{"glyphs":{"0":{"ha":828,"x_min":39,"x_max":842,"o":"m 39 469 q 51 621 39 547 q 78 768 64 694 q 106 915 93 842 q 118 1065 118 989 q 115 1121 118 1096 q 107 1170 113 1146 q 94 1220 101 1194 q 79 1279 88 1246 q 148 1282 101 1281 q 245 1285 194 1283 q 340 1287 296 1286 q 401 1288 385 1288 q 582 1240 514 1288 q 686 1117 650 1192 q 734 951 722 1042 q 746 774 746 860 q 742 681 746 726 q 733 588 738 635 q 724 493 728 542 q 719 392 719 444 q 745 188 719 288 q 842 0 771 89 l 235 0 q 126 99 165 40 q 67 222 86 157 q 43 351 47 286 q 39 469 39 415 m 333 938 q 336 901 333 924 q 346 856 339 878 q 366 819 353 835 q 401 803 379 803 q 435 819 424 803 q 453 856 447 835 q 459 901 458 878 q 460 938 460 924 q 459 976 460 953 q 453 1022 458 1000 q 435 1059 447 1043 q 401 1075 424 1075 q 363 1059 376 1075 q 342 1022 349 1043 q 335 976 336 1000 q 333 938 333 953 z "},"1":{"ha":614,"x_min":-10,"x_max":636,"o":"m 636 3 q 593 3 626 3 q 513 2 560 3 q 410 1 465 1 q 299 1 354 1 q 195 0 244 0 q 111 0 146 0 q 81 53 94 19 q 59 125 69 81 q 49 236 49 169 q 63 363 49 297 q 92 498 76 429 q 122 635 108 567 q 136 771 136 704 q 130 939 136 868 q 108 1066 124 1010 q 63 1170 92 1122 q -10 1269 35 1218 q 105 1294 43 1288 q 229 1301 167 1301 q 327 1298 279 1301 q 415 1290 375 1294 q 486 1283 456 1286 q 531 1279 517 1279 q 508 1135 531 1218 q 460 955 486 1051 q 413 753 435 858 q 390 540 390 647 q 409 391 390 463 q 461 253 428 319 q 540 124 494 186 q 636 3 585 61 z "},"2":{"ha":732,"x_min":38,"x_max":735,"o":"m 140 0 q 61 256 85 146 q 38 453 38 367 q 68 631 38 560 q 144 751 99 701 q 242 834 189 800 q 341 901 296 868 q 417 972 386 933 q 447 1067 447 1010 q 426 1115 447 1096 q 365 1135 406 1135 q 321 1117 336 1135 q 297 1074 306 1100 q 281 1019 288 1049 q 263 963 275 989 q 228 920 250 938 q 164 903 206 903 l 104 903 q 131 999 119 951 q 142 1097 142 1047 q 131 1188 142 1142 q 93 1282 121 1233 l 572 1282 q 629 1263 601 1282 q 657 1201 657 1243 q 645 1079 657 1139 q 633 953 633 1019 q 618 899 633 919 q 581 864 603 878 q 532 840 558 850 q 483 817 506 829 q 447 785 461 804 q 432 733 432 765 q 447 698 432 711 q 485 685 463 685 q 513 695 503 685 q 530 721 522 706 q 545 754 538 736 q 569 788 553 772 q 611 813 585 803 q 681 824 638 824 q 642 614 656 713 q 629 425 629 515 q 655 197 629 301 q 735 0 681 92 l 140 0 z "},"3":{"ha":707,"x_min":14,"x_max":714,"o":"m 51 254 q 50 392 50 325 q 49 526 50 458 q 42 666 47 593 q 25 824 38 739 q 95 807 68 824 q 140 767 122 790 q 173 715 158 743 q 205 663 188 686 q 249 623 222 639 q 317 607 275 607 q 370 620 357 607 q 383 661 383 633 q 365 694 383 676 q 323 733 346 711 q 281 780 300 754 q 263 835 263 806 q 274 869 263 857 q 305 890 286 881 q 344 910 324 900 q 384 940 365 921 q 415 988 403 958 q 426 1067 426 1018 q 406 1115 426 1096 q 344 1135 385 1135 q 300 1117 315 1135 q 276 1074 285 1100 q 260 1019 267 1049 q 242 963 254 989 q 207 920 229 938 q 143 903 185 903 l 69 903 q 56 938 60 921 q 53 974 53 954 q 58 1040 53 1006 q 64 1113 64 1074 q 54 1192 64 1150 q 14 1282 44 1233 l 551 1282 q 608 1263 581 1282 q 636 1201 636 1243 q 624 1079 636 1139 q 613 953 613 1019 q 603 908 613 926 q 577 876 593 889 q 541 853 561 863 q 501 836 521 844 q 558 810 531 824 q 605 775 585 797 q 638 717 625 753 q 650 625 650 682 q 649 507 650 560 q 645 411 647 454 q 641 333 643 368 q 639 264 639 297 q 644 193 639 225 q 658 131 649 161 q 682 69 668 101 q 714 0 696 38 l 229 0 q 144 24 178 0 q 90 86 111 49 q 61 169 69 124 q 51 254 53 214 z "},"4":{"ha":960,"x_min":0,"x_max":982,"o":"m 982 3 q 933 3 972 3 q 839 2 894 3 q 718 1 783 1 q 589 1 653 1 q 470 0 525 0 q 381 0 415 0 q 440 154 429 75 q 450 321 450 233 q 446 397 450 358 q 432 476 442 436 l 0 476 q 100 569 54 511 q 183 699 146 628 q 247 847 219 769 q 294 997 275 924 q 322 1132 313 1069 q 332 1236 332 1194 q 328 1282 332 1268 l 878 1282 q 837 1147 860 1226 q 793 972 814 1067 q 758 773 772 876 q 744 565 744 669 q 756 398 744 481 q 796 242 768 315 q 869 108 824 169 q 982 3 914 47 m 496 1076 q 463 1033 486 1063 q 418 970 440 1004 q 378 902 396 936 q 361 844 361 868 q 376 813 361 824 q 406 801 390 801 q 442 815 424 801 q 477 851 461 828 q 503 908 493 875 q 513 979 513 940 q 496 1076 513 1025 z "},"5":{"ha":700,"x_min":14,"x_max":650,"o":"m 51 254 q 50 392 50 325 q 49 526 50 458 q 42 666 47 593 q 25 824 38 739 q 94 813 68 824 q 137 788 121 803 q 160 754 153 772 q 176 721 168 736 q 193 695 183 706 q 221 685 203 685 q 258 698 243 685 q 274 733 274 711 q 259 785 274 765 q 222 817 244 804 q 174 840 200 829 q 125 864 147 850 q 88 899 103 878 q 72 953 72 919 q 67 1038 68 997 q 61 1119 65 1079 q 47 1200 57 1160 q 14 1281 36 1240 l 640 1281 q 594 1168 606 1218 q 583 1079 583 1118 q 592 1003 583 1033 q 600 958 600 974 l 540 958 q 478 972 499 958 q 449 1004 458 985 q 435 1047 439 1024 q 421 1089 431 1069 q 390 1122 411 1108 q 326 1135 369 1135 q 278 1115 297 1135 q 258 1067 258 1096 q 288 971 258 1007 q 360 910 317 935 q 454 865 403 885 q 549 815 506 844 q 621 742 592 786 q 650 625 650 697 q 649 494 650 551 q 647 388 649 436 q 644 297 646 339 q 642 209 643 254 q 639 114 640 164 q 635 0 638 64 l 139 0 q 74 105 94 38 q 51 254 54 172 z "},"6":{"ha":715,"x_min":33,"x_max":726,"o":"m 633 992 q 609 991 624 992 q 579 990 594 990 q 518 999 547 990 q 478 1042 489 1008 q 456 1084 471 1072 q 400 1096 442 1096 q 358 1082 376 1096 q 328 1044 340 1068 q 311 988 317 1019 q 306 924 306 957 q 310 858 306 892 q 415 911 353 892 q 531 931 476 931 q 609 914 578 931 q 640 860 640 897 q 638 803 640 839 q 632 721 635 767 q 626 620 629 675 q 624 506 624 565 q 628 372 624 440 q 644 239 632 304 q 676 113 656 174 q 726 0 696 51 l 250 0 q 214 26 247 0 q 141 110 181 51 q 69 265 101 169 q 38 499 38 360 q 44 646 38 574 q 58 791 50 718 q 73 938 67 864 q 79 1086 79 1011 q 68 1179 79 1129 q 33 1282 57 1229 l 479 1282 q 542 1269 517 1282 q 584 1236 568 1256 q 607 1194 600 1217 q 615 1154 614 1172 q 621 1110 618 1129 q 626 1074 624 1092 q 630 1037 628 1056 q 633 992 632 1018 m 508 760 q 495 789 508 775 q 447 803 482 803 q 399 796 428 803 q 333 772 371 789 q 378 702 350 729 q 444 675 407 675 q 494 700 479 675 q 508 760 508 725 z "},"7":{"ha":646,"x_min":36,"x_max":661,"o":"m 36 265 q 63 419 36 344 q 128 564 89 493 q 213 701 167 635 q 299 831 260 768 q 364 952 338 893 q 390 1067 390 1011 q 369 1115 390 1096 q 308 1135 349 1135 q 264 1117 279 1135 q 240 1074 249 1100 q 224 1019 231 1049 q 206 963 218 989 q 171 920 193 938 q 107 903 149 903 l 47 903 q 74 999 63 951 q 85 1097 85 1047 q 74 1188 85 1142 q 36 1282 64 1233 l 635 1282 q 594 1128 625 1210 q 530 961 563 1047 q 472 785 497 875 q 446 608 446 696 q 456 482 446 549 q 492 340 467 415 q 558 179 517 264 q 661 0 600 94 l 222 0 q 81 100 125 32 q 36 265 36 168 z "},"8":{"ha":782,"x_min":19,"x_max":789,"o":"m 244 0 q 154 27 189 0 q 100 94 119 54 q 74 179 81 133 q 68 264 68 225 q 60 433 68 331 q 53 667 53 535 q 64 734 53 707 q 95 780 75 761 q 141 811 115 799 q 196 836 167 824 q 153 853 178 843 q 108 878 129 864 q 72 912 86 893 q 57 954 57 931 q 65 1022 63 992 q 68 1082 68 1053 q 58 1186 68 1135 q 19 1282 47 1238 l 626 1282 q 683 1263 656 1282 q 711 1201 711 1243 q 699 1079 711 1139 q 688 953 688 1019 q 678 908 688 926 q 652 876 668 889 q 616 853 636 863 q 576 836 596 844 q 633 810 606 824 q 680 775 660 797 q 713 717 700 753 q 725 625 725 682 q 724 507 725 560 q 720 411 722 454 q 716 333 718 368 q 714 264 714 297 q 719 193 714 225 q 733 131 724 161 q 757 69 743 101 q 789 0 771 38 l 244 0 m 514 1081 q 494 1129 514 1110 q 446 1149 475 1149 q 386 1123 408 1149 q 349 1057 364 1097 q 326 968 335 1017 q 306 872 317 919 q 380 908 343 889 q 447 951 417 928 q 495 1007 476 975 q 514 1081 514 1039 m 272 604 q 292 556 272 575 q 340 536 311 536 q 400 562 378 536 q 437 628 422 588 q 461 717 451 668 q 481 813 471 765 q 406 776 443 796 q 340 733 369 757 q 291 678 310 710 q 272 604 272 646 z "},"9":{"ha":700,"x_min":14,"x_max":708,"o":"m 51 254 q 50 392 50 325 q 49 526 50 458 q 42 666 47 593 q 25 824 38 739 q 94 813 68 824 q 137 788 121 803 q 160 754 153 772 q 176 721 168 736 q 193 695 183 706 q 221 685 203 685 q 258 698 243 685 q 274 733 274 711 q 259 785 274 765 q 222 817 244 804 q 174 840 200 829 q 125 864 147 850 q 88 899 103 878 q 72 953 72 919 q 67 1038 68 997 q 61 1119 65 1079 q 47 1200 57 1160 q 14 1281 36 1240 l 514 1281 q 573 1266 550 1281 q 609 1229 596 1251 q 628 1183 622 1207 q 633 1139 633 1158 q 626 844 633 990 q 619 560 619 699 q 637 265 619 406 q 708 0 654 125 l 139 0 q 74 105 94 38 q 51 254 54 172 m 258 1067 q 277 993 258 1025 q 326 938 296 961 q 392 894 356 914 q 467 858 429 875 q 447 954 457 906 q 423 1043 438 1003 q 386 1109 408 1083 q 326 1135 364 1135 q 278 1115 297 1135 q 258 1067 258 1096 z "}," ":{"ha":417,"x_min":0,"x_max":0,"o":""},"d":{"ha":813,"x_min":-37,"x_max":769,"o":"m 304 1296 q 480 1267 406 1296 q 606 1190 554 1239 q 689 1072 657 1140 q 739 925 721 1004 q 763 758 757 846 q 769 583 769 671 q 765 455 769 522 q 747 322 761 388 q 706 197 733 256 q 633 92 679 138 q 518 21 586 47 q 354 -6 450 -6 q 205 9 264 -6 q 112 51 146 24 q 64 119 78 79 q 50 207 50 158 q 63 327 50 261 q 90 467 75 393 q 117 621 104 540 q 129 786 129 701 q 88 1042 129 924 q -37 1276 46 1161 q 8 1279 -26 1276 q 89 1286 42 1282 q 192 1293 136 1290 q 304 1296 249 1296 m 314 1061 q 328 1011 324 1042 q 337 947 333 981 q 346 880 340 914 q 363 819 351 846 q 396 774 375 792 q 451 757 417 757 q 504 782 488 757 q 521 836 521 807 q 502 908 521 869 q 454 981 483 947 q 388 1038 425 1015 q 314 1061 351 1061 z "},"e":{"ha":700,"x_min":29,"x_max":692,"o":"m 29 197 q 49 361 29 282 q 93 519 69 440 q 137 681 117 599 q 157 850 157 763 q 151 969 157 917 q 130 1072 144 1022 q 90 1171 115 1121 q 29 1282 65 1221 l 479 1282 q 549 1269 524 1282 q 588 1234 574 1256 q 605 1186 601 1213 q 608 1133 608 1160 q 608 1094 608 1110 q 610 1067 608 1079 q 613 1044 611 1056 q 618 1017 614 1032 l 567 1017 q 501 1035 519 1017 q 474 1076 483 1054 q 451 1115 464 1097 q 400 1133 438 1133 q 357 1114 372 1133 q 342 1065 342 1094 q 353 1030 342 1040 q 383 1015 365 1019 q 420 1008 400 1011 q 458 997 440 1006 q 487 967 475 988 q 499 908 499 947 q 497 892 499 901 q 492 874 496 883 q 461 884 476 878 q 429 890 446 890 q 382 874 401 890 q 363 811 363 858 q 386 768 363 783 q 440 753 410 753 q 503 772 485 753 q 531 812 522 790 q 548 852 540 833 q 578 871 556 871 q 647 836 629 871 q 665 753 665 801 q 658 643 665 700 q 641 528 650 586 q 624 411 632 469 q 617 294 617 353 q 639 135 617 207 q 692 3 661 63 q 624 1 658 1 q 543 0 589 0 q 435 0 497 0 q 283 0 372 0 q 190 10 236 0 q 109 42 144 19 q 51 103 74 65 q 29 197 29 142 z "},"f":{"ha":618,"x_min":3,"x_max":683,"o":"m 53 332 q 65 463 53 394 q 92 600 78 532 q 119 733 107 668 q 131 850 131 797 q 124 969 131 917 q 103 1072 118 1022 q 64 1171 89 1121 q 3 1282 39 1221 l 453 1282 q 522 1269 497 1282 q 561 1234 547 1256 q 578 1186 575 1213 q 582 1133 582 1160 q 582 1094 582 1110 q 583 1067 582 1079 q 586 1044 585 1056 q 592 1017 588 1032 l 540 1017 q 475 1035 493 1017 q 447 1076 457 1054 q 424 1115 438 1097 q 374 1133 411 1133 q 331 1114 346 1133 q 315 1065 315 1094 q 327 1030 315 1040 q 356 1015 339 1019 q 394 1008 374 1011 q 431 997 414 1006 q 460 967 449 988 q 472 908 472 947 q 471 892 472 901 q 465 874 469 883 q 435 884 450 878 q 403 890 419 890 q 353 870 371 890 q 335 801 335 850 q 347 704 335 767 q 383 565 360 642 q 438 406 406 489 q 509 244 471 322 q 592 103 547 167 q 683 0 636 39 l 267 0 q 163 31 204 0 q 98 112 122 63 q 63 219 74 161 q 53 332 53 278 z "},"g":{"ha":726,"x_min":33,"x_max":726,"o":"m 463 879 q 523 901 493 893 q 585 908 553 908 q 706 881 642 908 q 658 642 681 769 q 636 385 636 514 q 656 183 636 281 q 726 0 676 85 l 250 0 q 214 26 247 0 q 141 110 181 51 q 69 265 101 169 q 38 499 38 360 q 44 646 38 574 q 58 791 50 718 q 73 938 67 864 q 79 1086 79 1011 q 68 1179 79 1129 q 33 1282 57 1229 l 479 1282 q 542 1269 517 1282 q 584 1236 568 1256 q 607 1194 600 1217 q 615 1154 614 1172 q 621 1110 618 1129 q 626 1074 624 1092 q 630 1037 628 1056 q 633 992 632 1018 q 609 991 624 992 q 579 990 594 990 q 518 999 547 990 q 478 1042 489 1008 q 456 1084 471 1072 q 400 1096 442 1096 q 358 1082 376 1096 q 328 1044 340 1068 q 311 988 317 1019 q 306 924 306 957 q 315 836 306 881 q 341 756 324 792 q 385 697 358 719 q 444 675 411 675 q 494 700 479 675 q 508 760 508 725 q 495 830 508 796 q 463 879 482 864 z "},"h":{"ha":1068,"x_min":6,"x_max":1072,"o":"m 35 254 q 50 419 35 339 q 84 581 65 500 q 118 747 103 663 q 133 919 133 831 q 97 1103 133 1018 q 6 1271 60 1188 q 100 1286 50 1279 q 201 1293 150 1293 q 315 1274 275 1293 q 376 1226 356 1256 q 402 1165 396 1197 q 415 1103 408 1132 q 436 1055 422 1074 q 485 1036 450 1036 q 553 1063 522 1036 q 583 1133 583 1089 q 565 1213 583 1178 q 514 1282 546 1247 q 567 1288 547 1285 q 604 1292 588 1290 q 640 1295 621 1294 q 688 1296 658 1296 q 849 1248 792 1296 q 906 1125 906 1200 q 897 1003 906 1063 q 876 886 888 944 q 856 770 865 828 q 847 654 847 713 q 867 482 847 567 q 917 315 886 397 q 990 155 949 233 q 1072 0 1031 76 l 750 0 q 647 28 686 0 q 588 101 608 57 q 560 196 567 144 q 554 294 554 247 q 562 403 554 349 q 578 515 569 458 q 594 628 586 571 q 601 744 601 685 q 596 784 601 763 q 578 825 590 806 q 548 858 567 844 q 504 871 529 871 q 435 844 461 871 q 397 781 410 818 q 380 701 383 743 q 376 625 376 658 q 392 469 376 549 q 432 309 407 389 q 489 151 457 229 q 554 0 521 74 q 483 -2 517 0 q 417 -6 450 -4 q 348 -10 383 -8 q 271 -11 313 -11 q 168 8 213 -11 q 94 63 124 28 q 49 147 64 99 q 35 254 35 196 z "},"i":{"ha":614,"x_min":-10,"x_max":636,"o":"m 636 3 q 586 1 621 3 q 506 -3 551 -1 q 407 -7 460 -6 q 303 -8 354 -8 q 110 48 171 -8 q 49 236 49 104 q 63 363 49 297 q 92 498 76 429 q 122 635 108 567 q 136 771 136 704 q 130 939 136 868 q 108 1066 124 1010 q 63 1170 92 1122 q -10 1269 35 1218 q 18 1274 1 1269 q 65 1283 35 1278 q 144 1292 96 1288 q 264 1296 192 1296 q 376 1285 332 1296 q 445 1253 419 1275 q 481 1197 471 1231 q 492 1115 492 1163 q 476 997 492 1054 q 441 873 460 939 q 406 727 422 807 q 390 540 390 647 q 409 391 390 463 q 461 253 428 319 q 540 124 494 186 q 636 3 585 61 z "},"l":{"ha":725,"x_min":-21,"x_max":722,"o":"m 476 967 q 502 976 492 975 q 526 978 513 978 q 607 953 578 978 q 651 892 636 929 q 669 809 665 854 q 672 724 672 764 q 667 618 672 669 q 658 515 663 567 q 648 408 653 463 q 643 294 643 354 q 657 141 643 213 q 722 1 671 69 q 710 1 719 1 q 660 0 701 0 q 533 0 619 0 q 292 0 447 0 q 218 5 258 0 q 142 31 178 10 q 83 99 107 53 q 58 226 58 144 q 70 348 58 272 q 97 509 82 424 q 123 680 111 594 q 135 832 135 765 q 101 1074 135 963 q -21 1282 68 1186 q 131 1294 61 1289 q 283 1300 201 1300 q 449 1146 449 1300 q 438 1082 449 1119 q 414 1003 426 1044 q 390 919 401 961 q 379 844 379 878 q 397 785 379 808 q 458 763 414 763 q 508 788 493 763 q 522 847 522 813 q 509 917 522 883 q 476 967 496 951 z "},"m":{"ha":1018,"x_min":-28,"x_max":1025,"o":"m 33 233 q 50 381 33 318 q 86 503 67 443 q 122 628 106 563 q 139 783 139 694 q 130 892 139 832 q 101 1016 121 951 q 49 1146 81 1081 q -28 1271 17 1211 q 74 1286 17 1279 q 182 1293 131 1293 q 327 1267 274 1293 q 408 1201 381 1240 q 446 1117 436 1163 q 460 1032 456 1071 q 472 967 465 993 q 501 940 479 940 q 533 963 521 940 q 551 1015 544 985 q 561 1078 558 1046 q 564 1133 564 1111 q 545 1213 564 1178 q 494 1282 526 1247 q 552 1288 528 1285 q 599 1292 576 1290 q 644 1295 621 1294 q 696 1296 667 1296 q 790 1288 749 1296 q 862 1260 832 1281 q 908 1203 892 1239 q 924 1108 924 1167 q 918 1011 924 1057 q 906 915 913 965 q 893 803 899 865 q 888 657 888 742 q 893 485 888 569 q 914 317 899 400 q 956 156 929 235 q 1025 0 983 76 l 772 0 q 672 27 708 0 q 617 92 635 54 q 594 171 599 131 q 590 238 590 211 q 606 345 590 276 q 640 492 621 414 q 674 648 658 569 q 689 786 689 726 q 688 808 689 793 q 680 840 686 824 q 660 867 674 856 q 619 879 646 879 q 582 859 597 879 q 557 806 567 839 q 544 729 547 772 q 540 640 540 686 q 547 502 540 569 q 563 394 554 435 q 499 406 522 397 q 463 434 475 415 q 447 481 450 453 q 443 551 443 510 q 441 660 443 604 q 431 764 439 717 q 404 841 422 811 q 353 871 386 871 q 324 847 331 871 q 317 790 317 822 q 331 599 317 701 q 374 392 346 496 q 443 187 403 288 q 535 0 483 86 q 464 -2 497 0 q 397 -6 431 -4 q 328 -10 364 -8 q 251 -11 293 -11 q 83 52 133 -11 q 33 233 33 115 z "},"o":{"ha":828,"x_min":39,"x_max":842,"o":"m 39 469 q 51 621 39 547 q 78 768 64 694 q 106 915 93 842 q 118 1065 118 989 q 115 1121 118 1096 q 107 1170 113 1146 q 94 1220 101 1194 q 79 1279 88 1246 q 148 1282 101 1281 q 245 1285 194 1283 q 340 1287 296 1286 q 401 1288 385 1288 q 582 1240 514 1288 q 686 1117 650 1192 q 734 951 722 1042 q 746 774 746 860 q 742 681 746 726 q 733 588 738 635 q 724 493 728 542 q 719 392 719 444 q 745 188 719 288 q 842 0 771 89 l 235 0 q 126 99 165 40 q 67 222 86 157 q 43 351 47 286 q 39 469 39 415 m 333 938 q 336 901 333 924 q 346 856 339 878 q 366 819 353 835 q 401 803 379 803 q 435 819 424 803 q 453 856 447 835 q 459 901 458 878 q 460 938 460 924 q 459 976 460 953 q 453 1022 458 1000 q 435 1059 447 1043 q 401 1075 424 1075 q 363 1059 376 1075 q 342 1022 349 1043 q 335 976 336 1000 q 333 938 333 953 z "},"p":{"ha":714,"x_min":-15,"x_max":700,"o":"m -15 1282 q 112 1285 56 1282 q 219 1291 168 1288 q 323 1297 271 1294 q 439 1300 375 1300 q 633 1232 565 1300 q 700 1028 700 1164 q 676 904 700 954 q 618 817 653 854 q 542 747 583 779 q 467 679 501 715 q 408 597 432 643 q 385 481 385 550 q 410 353 385 415 q 474 230 435 290 q 565 113 514 169 q 665 0 615 56 l 239 0 q 152 24 188 0 q 95 84 117 47 q 64 167 74 121 q 54 256 54 213 q 68 395 54 331 q 98 527 82 460 q 128 672 114 594 q 142 851 142 750 q 137 969 142 911 q 115 1083 132 1028 q 67 1188 99 1138 q -15 1282 36 1239 m 464 1068 q 436 1123 464 1108 q 360 1138 408 1138 q 344 1138 353 1138 q 326 1136 335 1138 q 349 1078 342 1106 q 361 1023 357 1050 q 367 967 365 996 q 371 904 368 939 q 435 974 407 932 q 464 1068 464 1015 z "},"s":{"ha":707,"x_min":14,"x_max":714,"o":"m 51 254 q 50 392 50 325 q 49 526 50 458 q 42 666 47 593 q 25 824 38 739 q 94 813 68 824 q 137 788 121 803 q 160 754 153 772 q 176 721 168 736 q 193 695 183 706 q 221 685 203 685 q 258 698 243 685 q 274 733 274 711 q 259 785 274 765 q 222 817 244 804 q 174 840 200 829 q 125 864 147 850 q 88 899 103 878 q 72 953 72 919 q 67 1038 68 997 q 61 1119 65 1079 q 47 1200 57 1160 q 14 1281 36 1240 l 479 1281 q 509 1276 494 1281 q 535 1263 524 1272 q 555 1236 547 1253 q 563 1193 563 1219 q 564 1149 563 1182 q 567 1079 565 1117 q 571 1008 569 1042 q 572 958 572 974 l 513 958 q 449 972 471 958 q 417 1004 428 985 q 402 1047 407 1024 q 391 1089 397 1069 q 371 1122 385 1108 q 326 1135 357 1135 q 278 1115 297 1135 q 258 1067 258 1096 q 288 971 258 1007 q 360 910 317 935 q 454 865 403 885 q 549 815 506 844 q 621 742 592 786 q 650 625 650 697 q 649 507 650 560 q 645 411 647 454 q 641 333 643 368 q 639 264 639 297 q 644 193 639 225 q 658 131 649 161 q 682 69 668 101 q 714 0 696 38 l 229 0 q 144 24 178 0 q 90 86 111 49 q 61 169 69 124 q 51 254 53 214 z "},"t":{"ha":763,"x_min":10,"x_max":778,"o":"m 147 333 q 168 498 147 418 q 215 656 189 578 q 261 815 240 735 q 282 978 282 894 q 281 1019 282 997 q 275 1061 281 1042 q 258 1094 269 1081 q 224 1107 246 1107 q 178 1088 190 1107 q 165 1039 165 1068 q 172 989 165 1014 q 185 942 178 964 q 198 902 192 921 q 204 871 204 883 q 183 852 204 857 q 144 847 161 847 q 108 850 128 847 q 74 860 89 853 q 48 878 58 867 q 38 908 38 890 q 39 949 38 933 q 42 976 40 964 q 44 1002 43 989 q 46 1036 46 1015 q 38 1159 46 1099 q 10 1282 31 1219 l 546 1282 q 612 1263 589 1282 q 645 1211 635 1243 q 658 1137 656 1179 q 663 1049 660 1094 q 672 957 665 1003 q 697 871 678 911 q 629 855 664 857 q 567 853 594 853 q 508 868 529 853 q 488 919 488 883 q 493 990 488 949 q 499 1057 499 1031 q 497 1074 499 1064 q 490 1093 494 1083 q 478 1109 486 1103 q 460 1115 471 1115 q 433 1107 443 1115 q 417 1086 422 1099 q 411 1058 413 1074 q 410 1026 410 1042 q 439 764 410 901 q 518 492 468 626 q 635 231 568 357 q 778 0 703 104 q 640 -10 704 -7 q 518 -14 576 -14 q 358 1 428 -14 q 242 53 289 15 q 172 160 196 92 q 147 333 147 228 z "},"u":{"ha":936,"x_min":-17,"x_max":942,"o":"m -17 1282 q 135 1294 65 1289 q 288 1300 206 1300 q 453 1146 453 1300 q 442 1085 453 1119 q 418 1003 431 1050 q 394 896 406 956 q 383 761 383 836 q 401 702 383 725 q 463 679 418 679 q 510 703 486 679 q 553 765 533 726 q 585 851 572 803 q 597 947 597 899 q 569 1124 597 1043 q 488 1279 540 1204 q 510 1283 496 1279 q 547 1292 524 1288 q 609 1301 571 1297 q 704 1306 647 1306 q 793 1291 758 1306 q 848 1252 828 1276 q 876 1195 868 1228 q 885 1125 885 1163 q 870 1006 885 1064 q 838 883 856 949 q 805 736 819 817 q 790 549 790 656 q 825 260 790 393 q 942 8 860 126 q 879 3 932 8 q 753 -6 826 -1 q 600 -16 681 -11 q 454 -21 519 -21 q 290 -8 364 -21 q 165 38 217 4 q 86 130 114 71 q 58 282 58 189 q 71 394 58 328 q 99 536 83 461 q 126 688 114 611 q 139 832 139 765 q 106 1074 139 963 q -17 1282 72 1186 z "},"y":{"ha":653,"x_min":-54,"x_max":668,"o":"m 43 265 q 66 406 43 339 q 116 540 89 474 q 166 676 143 607 q 189 821 189 744 q 169 942 189 876 q 115 1069 149 1007 q 37 1184 81 1131 q -54 1271 -7 1238 q -2 1277 -25 1275 q 41 1281 21 1279 q 81 1282 61 1282 q 122 1282 100 1282 q 208 1262 172 1282 q 265 1204 243 1242 q 298 1114 288 1167 q 308 997 308 1061 q 308 978 308 990 q 307 929 308 967 q 338 1000 326 971 q 355 1051 349 1029 q 363 1088 361 1072 q 365 1121 365 1104 q 326 1282 365 1206 q 400 1294 365 1290 q 467 1297 435 1297 q 527 1294 500 1297 q 572 1280 554 1292 q 600 1246 590 1268 q 610 1183 610 1224 q 585 1073 610 1131 q 531 947 561 1015 q 477 794 501 878 q 453 608 453 711 q 463 482 453 549 q 499 340 474 415 q 565 179 524 264 q 668 0 607 94 l 229 0 q 88 100 132 32 q 43 265 43 168 z "},"j":{"ha":711,"x_min":25,"x_max":715,"o":"m 569 1282 q 626 1261 606 1282 q 646 1217 646 1240 q 644 1204 646 1208 q 597 926 617 1075 q 578 624 578 778 q 608 293 578 454 q 715 0 639 132 l 229 0 q 144 24 178 0 q 90 86 111 49 q 61 169 69 124 q 51 254 53 214 q 50 381 50 325 q 49 499 50 438 q 42 637 47 561 q 25 824 38 713 q 94 813 68 824 q 135 788 119 803 q 160 754 150 772 q 183 721 171 736 q 213 695 194 706 q 263 685 231 685 q 326 701 299 685 q 372 747 353 718 q 400 811 390 775 q 410 885 410 847 q 399 966 410 926 q 368 1037 388 1006 q 322 1088 349 1068 q 263 1107 294 1107 q 208 1097 222 1107 q 194 1069 194 1086 q 201 1034 194 1058 q 207 983 207 1010 q 194 937 207 957 q 143 917 182 917 q 85 936 108 917 q 63 992 63 956 q 65 1072 63 1039 q 68 1135 68 1106 q 62 1200 68 1167 q 35 1282 56 1233 l 569 1282 z "},"n":{"ha":1025,"x_min":-19,"x_max":1033,"o":"m 42 233 q 58 381 42 318 q 94 503 75 443 q 131 628 114 563 q 147 783 147 694 q 138 892 147 832 q 109 1016 129 951 q 57 1146 89 1081 q -19 1271 25 1211 q 82 1286 25 1279 q 190 1293 139 1293 q 348 1242 282 1293 q 460 1115 414 1192 q 535 949 506 1039 q 585 783 565 860 q 619 656 606 707 q 646 606 632 606 q 676 628 667 606 q 686 689 686 650 q 676 808 686 739 q 642 956 667 878 q 573 1115 617 1033 q 461 1268 529 1196 q 587 1288 528 1279 q 704 1296 646 1296 q 799 1288 757 1296 q 870 1260 840 1281 q 916 1203 900 1239 q 932 1108 932 1167 q 926 1011 932 1057 q 914 915 921 965 q 901 803 907 865 q 896 657 896 742 q 901 485 896 569 q 922 317 907 400 q 965 156 938 235 q 1033 0 992 76 l 794 0 q 695 27 742 0 q 610 98 649 54 q 541 198 571 142 q 490 311 511 254 q 458 422 469 368 q 447 517 447 476 q 449 624 447 574 q 451 717 451 674 q 448 760 451 733 q 435 811 444 786 q 408 853 425 836 q 361 871 390 871 q 332 847 339 871 q 325 790 325 822 q 340 599 325 701 q 383 392 354 496 q 451 187 411 288 q 543 0 492 86 q 472 -2 506 0 q 406 -6 439 -4 q 337 -10 372 -8 q 260 -11 301 -11 q 92 52 142 -11 q 42 233 42 115 z "},"r":{"ha":996,"x_min":-1,"x_max":1025,"o":"m -1 1282 q 132 1285 69 1282 q 254 1291 194 1288 q 372 1297 314 1294 q 494 1300 431 1300 q 653 1274 583 1300 q 773 1204 724 1247 q 848 1105 822 1161 q 874 989 874 1049 q 863 913 874 953 q 826 835 851 872 q 762 765 801 797 q 664 708 722 732 q 688 591 668 657 q 737 455 707 525 q 804 315 767 385 q 881 183 842 244 q 957 74 919 122 q 1025 0 994 26 l 758 0 q 638 26 686 0 q 561 97 590 53 q 517 197 532 140 q 494 310 501 253 q 485 424 488 368 q 476 524 482 481 q 460 594 471 568 q 424 621 449 621 q 403 605 413 621 q 385 560 393 589 q 374 494 378 532 q 369 411 369 456 q 376 303 369 360 q 399 192 383 247 q 442 88 415 138 q 507 0 468 38 q 443 -2 469 0 q 391 -6 417 -4 q 336 -10 365 -8 q 265 -11 307 -11 q 97 52 147 -11 q 47 233 47 115 q 55 331 47 286 q 74 421 63 376 q 100 513 86 465 q 126 616 114 560 q 145 741 138 672 q 153 896 153 810 q 147 1002 153 950 q 123 1103 140 1054 q 76 1197 106 1151 q -1 1282 46 1243 m 594 1058 q 581 1093 594 1078 q 547 1119 568 1108 q 497 1135 525 1129 q 438 1142 468 1142 q 382 1136 406 1142 q 405 1078 397 1106 q 417 1023 413 1050 q 422 967 421 996 q 426 904 424 939 q 548 964 501 922 q 594 1058 594 1006 z "},"v":{"ha":933,"x_min":-32,"x_max":926,"o":"m -32 1282 q 28 1286 0 1285 q 83 1288 57 1288 q 263 1266 193 1288 q 372 1208 332 1244 q 426 1123 411 1172 q 440 1018 440 1074 q 434 926 440 974 q 419 831 428 878 q 405 739 411 785 q 399 653 399 693 q 409 603 399 622 q 457 583 419 583 q 522 603 494 583 q 566 658 549 624 q 592 738 583 692 q 600 836 600 785 q 589 963 600 897 q 558 1088 578 1028 q 509 1199 538 1149 q 444 1282 481 1250 q 524 1290 486 1288 q 593 1292 561 1292 q 774 1267 707 1292 q 874 1208 840 1243 q 917 1134 908 1174 q 926 1064 926 1094 q 878 860 913 960 q 808 660 844 760 q 744 459 772 560 q 717 256 717 358 q 719 188 717 219 q 729 126 722 157 q 747 64 736 96 q 775 -4 758 32 q 683 3 743 0 q 553 8 622 7 q 415 10 483 10 q 300 11 347 11 q 159 8 226 11 q 43 -1 92 6 q 98 110 75 47 q 136 243 121 172 q 158 389 151 314 q 165 538 165 464 q 151 752 165 644 q 111 958 138 860 q 49 1140 85 1056 q -32 1282 13 1224 z "},"æ":{"ha":1233,"x_min":40,"x_max":1219,"o":"m 40 218 q 65 406 43 313 q 111 590 86 499 q 156 773 136 682 q 176 957 176 864 q 153 1125 176 1043 q 69 1285 129 1207 q 158 1279 114 1285 q 256 1274 203 1274 q 327 1277 285 1274 q 417 1285 369 1281 q 512 1294 464 1290 q 601 1297 560 1297 q 696 1282 653 1297 l 1007 1282 q 1076 1269 1051 1282 q 1115 1234 1101 1256 q 1133 1186 1129 1213 q 1136 1133 1136 1160 q 1136 1094 1136 1110 q 1138 1067 1136 1079 q 1140 1044 1139 1056 q 1146 1017 1142 1032 l 1094 1017 q 1029 1035 1047 1017 q 1001 1076 1011 1054 q 978 1115 992 1097 q 928 1133 965 1133 q 885 1114 900 1133 q 869 1065 869 1094 q 881 1030 869 1040 q 910 1015 893 1019 q 948 1008 928 1011 q 985 997 968 1006 q 1015 967 1003 988 q 1026 908 1026 947 q 1025 892 1026 901 q 1019 874 1024 883 q 989 884 1004 878 q 957 890 974 890 q 910 874 929 890 q 890 811 890 858 q 914 768 890 783 q 968 753 938 753 q 1031 772 1013 753 q 1059 812 1050 790 q 1076 852 1068 833 q 1106 871 1083 871 q 1175 836 1157 871 q 1193 753 1193 801 q 1185 643 1193 700 q 1169 528 1178 586 q 1152 411 1160 469 q 1144 294 1144 353 q 1167 135 1144 207 q 1219 3 1189 63 q 1151 1 1186 1 q 1065 0 1115 0 q 942 0 1014 0 q 765 0 871 0 q 660 28 707 8 q 579 84 613 49 q 528 172 546 119 q 510 297 510 224 q 520 438 510 374 q 544 553 531 501 q 567 642 557 604 q 578 707 578 681 q 567 757 578 738 q 519 776 557 776 q 450 747 475 776 q 413 672 425 717 q 397 578 400 628 q 393 488 393 528 q 401 356 393 417 q 424 237 408 294 q 465 122 440 179 q 522 0 489 64 l 158 0 q 102 32 125 10 q 66 84 79 54 q 47 149 53 114 q 40 218 40 183 m 461 990 q 501 957 472 965 q 557 949 529 949 l 572 949 q 560 1028 565 990 q 545 1095 556 1067 q 513 1140 535 1124 q 451 1157 492 1157 l 422 1157 q 433 1113 426 1139 q 445 1063 439 1088 q 456 1017 451 1038 q 461 990 461 997 z "},"œ":{"ha":1093,"x_min":39,"x_max":1079,"o":"m 39 469 q 51 621 39 547 q 78 768 64 694 q 106 915 93 842 q 118 1065 118 989 q 115 1121 118 1096 q 107 1170 113 1146 q 94 1220 101 1194 q 79 1279 88 1246 q 148 1282 101 1281 q 245 1285 194 1283 q 340 1287 296 1286 q 401 1288 385 1288 q 436 1286 419 1288 q 468 1282 453 1285 l 867 1282 q 936 1269 911 1282 q 975 1234 961 1256 q 992 1186 989 1213 q 996 1133 996 1160 q 996 1094 996 1110 q 997 1067 996 1079 q 1000 1044 999 1056 q 1006 1017 1001 1032 l 954 1017 q 889 1035 907 1017 q 861 1076 871 1054 q 838 1115 851 1097 q 788 1133 825 1133 q 744 1114 760 1133 q 729 1065 729 1094 q 741 1030 729 1040 q 770 1015 753 1019 q 808 1008 788 1011 q 845 997 828 1006 q 874 967 863 988 q 886 908 886 947 q 885 892 886 901 q 879 874 883 883 q 849 884 864 878 q 817 890 833 890 q 769 874 789 890 q 750 811 750 858 q 774 768 750 783 q 828 753 797 753 q 891 772 872 753 q 919 812 910 790 q 935 852 928 833 q 965 871 943 871 q 1035 836 1017 871 q 1053 753 1053 801 q 1045 643 1053 700 q 1028 528 1038 586 q 1012 411 1019 469 q 1004 294 1004 353 q 1026 135 1004 207 q 1079 3 1049 63 q 1045 2 1064 3 q 992 1 1026 1 q 901 0 957 0 q 756 0 844 0 q 540 0 667 0 q 235 0 413 0 q 126 99 165 40 q 67 222 86 157 q 43 351 47 286 q 39 469 39 415 m 333 938 q 336 901 333 924 q 346 856 339 878 q 366 819 353 835 q 401 803 379 803 q 435 819 424 803 q 453 856 447 835 q 459 901 458 878 q 460 938 460 924 q 459 976 460 953 q 453 1022 458 1000 q 435 1059 447 1043 q 401 1075 424 1075 q 363 1059 376 1075 q 342 1022 349 1043 q 335 976 336 1000 q 333 938 333 953 z "},"k":{"ha":1000,"x_min":-4,"x_max":1022,"o":"m -4 1282 q 81 1297 42 1293 q 154 1301 121 1301 q 305 1268 251 1301 q 384 1183 358 1235 q 415 1068 410 1131 q 421 949 421 1006 q 422 900 421 926 q 425 851 422 874 q 435 814 428 829 q 456 799 443 799 q 503 815 483 799 q 537 859 524 832 q 556 922 550 886 q 563 997 563 958 q 556 1076 563 1036 q 538 1152 550 1117 q 509 1217 526 1188 q 468 1263 492 1246 q 624 1296 546 1296 q 708 1284 668 1296 q 777 1248 747 1272 q 824 1187 807 1224 q 842 1100 842 1150 q 826 987 842 1046 q 784 874 810 928 q 726 777 758 821 q 661 708 693 733 q 685 591 665 657 q 734 455 704 525 q 801 315 764 385 q 878 183 839 244 q 954 74 917 122 q 1022 0 992 26 l 756 0 q 635 26 683 0 q 558 97 588 53 q 514 197 529 140 q 492 310 499 253 q 482 424 485 368 q 474 524 479 481 q 457 594 468 568 q 421 621 446 621 q 400 605 410 621 q 383 560 390 589 q 371 494 375 532 q 367 411 367 456 q 374 303 367 360 q 397 192 381 247 q 439 88 413 138 q 504 0 465 38 q 440 -2 467 0 q 388 -6 414 -4 q 333 -10 363 -8 q 263 -11 304 -11 q 94 52 144 -11 q 44 233 44 115 q 52 331 44 286 q 72 421 60 376 q 97 513 83 465 q 123 616 111 560 q 142 741 135 672 q 150 896 150 810 q 144 1002 150 950 q 120 1103 138 1054 q 73 1197 103 1151 q -4 1282 43 1243 z "},"w":{"ha":1218,"x_min":-19,"x_max":1192,"o":"m 715 0 q 664 131 675 58 q 653 272 653 203 q 656 351 653 314 q 658 419 658 389 q 650 477 658 456 q 615 499 642 499 q 568 475 590 499 q 529 411 546 451 q 503 319 513 371 q 493 208 493 267 q 502 102 493 156 q 531 0 511 49 l 186 0 q 104 110 126 43 q 82 258 82 178 q 92 394 82 324 q 115 534 103 465 q 137 667 126 603 q 147 782 147 731 q 138 890 147 831 q 109 1015 129 950 q 57 1144 89 1079 q -19 1269 25 1210 q 26 1281 0 1276 q 80 1290 53 1286 q 133 1294 107 1293 q 179 1296 160 1296 q 363 1228 301 1296 q 424 1018 424 1161 q 417 962 424 999 q 404 880 411 925 q 391 786 397 835 q 385 696 385 738 q 397 615 385 647 q 440 583 408 583 q 503 602 481 583 q 538 653 526 621 q 553 727 550 685 q 556 817 556 769 q 550 905 556 860 q 535 994 544 950 q 515 1077 526 1038 q 490 1147 503 1117 q 541 1158 518 1154 q 585 1163 564 1163 q 669 1149 636 1163 q 720 1110 701 1135 q 747 1051 739 1085 q 754 979 754 1018 q 750 906 754 944 q 740 830 746 868 q 731 755 735 792 q 726 686 726 718 q 738 607 726 639 q 778 575 749 575 q 832 592 810 575 q 869 640 854 610 q 890 710 883 669 q 896 796 896 750 q 883 940 896 865 q 849 1083 871 1015 q 798 1201 826 1150 q 738 1274 769 1253 q 785 1278 758 1276 q 838 1281 811 1281 q 888 1283 864 1282 q 928 1283 911 1283 q 1072 1259 1019 1283 q 1151 1200 1125 1235 q 1185 1126 1178 1165 q 1192 1056 1192 1086 q 1158 864 1182 961 q 1111 670 1135 767 q 1069 478 1088 574 q 1051 290 1051 382 q 1067 141 1051 214 q 1124 0 1083 68 l 715 0 z "},"z":{"ha":732,"x_min":38,"x_max":735,"o":"m 681 824 q 642 614 656 713 q 629 425 629 515 q 655 197 629 301 q 735 0 681 92 l 140 0 q 61 256 85 146 q 38 453 38 367 q 68 631 38 560 q 144 751 99 701 q 242 834 189 800 q 341 901 296 868 q 417 972 386 933 q 447 1067 447 1010 q 426 1115 447 1096 q 365 1135 406 1135 q 321 1117 336 1135 q 297 1074 306 1100 q 281 1019 288 1049 q 263 963 275 989 q 228 920 250 938 q 164 903 206 903 l 104 903 q 131 999 119 951 q 142 1097 142 1047 q 131 1188 142 1142 q 93 1282 121 1233 l 692 1282 q 659 1201 669 1242 q 644 1121 649 1161 q 639 1039 640 1081 q 633 953 638 997 q 618 899 633 919 q 581 864 603 878 q 532 840 558 850 q 483 817 506 829 q 447 785 461 804 q 432 733 432 765 q 447 698 432 711 q 485 685 463 685 q 513 695 503 685 q 530 721 522 706 q 545 754 538 736 q 569 788 553 772 q 611 813 585 803 q 681 824 638 824 z "},"q":{"ha":794,"x_min":39,"x_max":958,"o":"m 39 469 q 51 621 39 547 q 78 768 64 694 q 106 915 93 842 q 118 1065 118 989 q 115 1121 118 1096 q 107 1170 113 1146 q 94 1220 101 1194 q 79 1279 88 1246 q 148 1282 101 1281 q 245 1285 194 1283 q 340 1287 296 1286 q 401 1288 385 1288 q 576 1247 508 1288 q 681 1140 643 1207 q 733 986 719 1074 q 747 803 747 899 q 741 661 747 732 q 726 520 735 590 q 712 383 718 450 q 706 250 706 315 q 717 116 706 181 q 756 -6 728 51 q 833 -113 783 -64 q 958 -201 882 -162 q 851 -253 911 -235 q 732 -271 792 -271 q 647 -260 688 -271 q 574 -225 606 -249 q 524 -163 543 -201 q 506 -72 506 -125 q 514 0 506 -40 l 235 0 q 126 99 165 40 q 67 222 86 157 q 43 351 47 286 q 39 469 39 415 m 333 938 q 336 901 333 924 q 346 856 339 878 q 366 819 353 835 q 401 803 379 803 q 435 819 424 803 q 453 856 447 835 q 459 901 458 878 q 460 938 460 924 q 459 976 460 953 q 453 1022 458 1000 q 435 1059 447 1043 q 401 1075 424 1075 q 363 1059 376 1075 q 342 1022 349 1043 q 335 976 336 1000 q 333 938 333 953 z "},"x":{"ha":988,"x_min":-17,"x_max":1010,"o":"m 611 1296 q 695 1284 656 1296 q 765 1248 735 1272 q 812 1187 794 1224 q 829 1100 829 1150 q 813 987 829 1046 q 772 874 797 928 q 713 777 746 821 q 649 708 681 733 q 672 591 653 657 q 722 455 692 525 q 789 315 751 385 q 865 183 826 244 q 942 74 904 122 q 1010 0 979 26 l 743 0 q 605 37 657 0 q 525 131 553 74 q 486 259 497 189 q 470 396 475 329 q 460 517 465 463 q 440 600 456 572 q 404 619 421 619 q 374 597 386 619 q 353 542 361 575 q 343 471 346 508 q 340 401 340 433 q 356 301 340 363 q 393 178 371 240 q 442 67 415 117 q 492 0 469 17 l 154 0 q 65 133 92 63 q 38 278 38 203 q 53 397 38 336 q 94 515 68 457 q 155 630 119 574 q 231 738 190 686 q 212 877 231 799 q 160 1033 193 956 q 81 1178 126 1111 q -17 1282 36 1244 q 144 1304 74 1304 q 299 1267 244 1304 q 381 1173 354 1229 q 413 1051 407 1117 q 419 930 418 986 q 423 836 419 874 q 449 799 426 799 q 494 815 475 799 q 525 860 513 832 q 544 924 538 888 q 550 997 550 960 q 544 1076 550 1036 q 526 1152 538 1117 q 497 1217 514 1188 q 456 1263 479 1246 q 611 1296 533 1296 z "},"A":{"ha":986,"x_min":40,"x_max":999,"o":"m 40 218 q 65 406 43 313 q 111 590 86 499 q 156 773 136 682 q 176 957 176 864 q 153 1125 176 1043 q 69 1285 129 1207 q 158 1279 114 1285 q 256 1274 203 1274 q 327 1277 285 1274 q 417 1285 369 1281 q 512 1294 464 1290 q 601 1297 560 1297 q 705 1278 663 1297 q 774 1227 747 1260 q 814 1150 801 1194 q 826 1054 826 1106 q 824 976 826 1010 q 818 899 821 942 q 813 797 815 857 q 810 640 810 736 q 826 431 810 519 q 868 270 842 342 q 928 135 894 199 q 999 0 963 71 l 765 0 q 660 28 707 8 q 579 84 613 49 q 528 172 546 119 q 510 297 510 224 q 520 438 510 374 q 544 553 531 501 q 567 642 557 604 q 578 707 578 681 q 567 757 578 738 q 519 776 557 776 q 450 747 475 776 q 413 672 425 717 q 397 578 400 628 q 393 488 393 528 q 401 356 393 417 q 424 237 408 294 q 465 122 440 179 q 522 0 489 64 l 158 0 q 102 32 125 10 q 66 84 79 54 q 47 149 53 114 q 40 218 40 183 m 461 990 q 501 957 472 965 q 557 949 529 949 l 572 949 q 560 1028 565 990 q 545 1095 556 1067 q 513 1140 535 1124 q 451 1157 492 1157 l 422 1157 q 433 1113 426 1139 q 445 1063 439 1088 q 456 1017 451 1038 q 461 990 461 997 z "},"B":{"ha":797,"x_min":-4,"x_max":772,"o":"m 36 221 q 51 363 36 294 q 85 499 67 431 q 118 638 103 567 q 133 788 133 708 q 123 915 133 853 q 94 1036 113 976 q 51 1156 76 1096 q -4 1278 25 1215 q 231 1286 115 1281 q 465 1292 347 1292 q 594 1257 547 1292 q 642 1140 642 1222 q 632 1083 642 1111 q 608 1031 622 1056 q 576 983 593 1006 q 544 938 558 960 q 660 841 615 892 q 729 734 704 790 q 763 618 754 678 q 772 494 772 558 q 760 291 772 396 q 749 78 749 186 q 753 41 749 58 q 769 4 757 24 q 636 0 688 3 q 540 -6 585 -3 q 446 -12 494 -10 q 319 -14 397 -14 q 200 -3 253 -14 q 111 33 147 7 q 56 105 75 60 q 36 221 36 150 m 417 558 q 442 500 417 517 q 494 483 467 483 q 553 512 532 483 q 574 582 574 540 q 558 649 574 615 q 518 710 543 683 q 463 753 493 736 q 403 769 432 769 q 410 720 407 742 q 414 676 413 699 q 416 626 415 653 q 417 558 417 599 m 300 1140 q 327 1075 315 1110 q 354 1003 339 1040 q 372 1012 361 1003 q 392 1035 382 1021 q 408 1067 401 1050 q 414 1100 414 1083 q 399 1135 414 1121 q 346 1150 385 1150 q 300 1140 319 1150 z "},"C":{"ha":721,"x_min":14,"x_max":707,"o":"m 18 499 q 24 646 18 574 q 39 791 31 718 q 53 938 47 864 q 60 1086 60 1011 q 49 1179 60 1129 q 14 1282 38 1229 l 460 1282 q 523 1269 497 1282 q 565 1236 549 1256 q 588 1194 581 1217 q 596 1154 594 1172 q 601 1097 599 1129 q 606 1032 604 1065 q 610 967 608 999 q 614 908 613 935 q 590 908 604 908 q 560 907 575 907 q 499 916 528 907 q 458 958 469 925 q 453 997 456 974 q 442 1042 450 1021 q 421 1080 435 1064 q 381 1096 407 1096 q 329 1076 347 1096 q 303 1029 311 1057 q 293 972 294 1001 q 292 919 292 942 q 299 855 292 886 q 324 799 307 824 q 366 760 340 775 q 429 744 392 744 q 477 747 451 744 q 528 758 503 750 q 573 779 553 765 q 604 815 593 793 q 626 791 618 814 q 638 739 633 768 q 642 683 642 710 q 643 650 643 657 q 640 573 643 618 q 634 478 638 528 q 628 378 631 428 q 625 283 625 328 q 643 135 625 201 q 707 0 661 68 l 231 0 q 194 26 228 0 q 122 110 161 51 q 50 265 82 169 q 18 499 18 360 z "},"D":{"ha":813,"x_min":-37,"x_max":769,"o":"m 304 1296 q 480 1267 406 1296 q 606 1190 554 1239 q 689 1072 657 1140 q 739 925 721 1004 q 763 758 757 846 q 769 583 769 671 q 765 455 769 522 q 747 322 761 388 q 706 197 733 256 q 633 92 679 138 q 518 21 586 47 q 354 -6 450 -6 q 205 9 264 -6 q 112 51 146 24 q 64 119 78 79 q 50 207 50 158 q 63 327 50 261 q 90 467 75 393 q 117 621 104 540 q 129 786 129 701 q 88 1042 129 924 q -37 1276 46 1161 q 8 1279 -26 1276 q 89 1286 42 1282 q 192 1293 136 1290 q 304 1296 249 1296 m 314 1061 q 328 1011 324 1042 q 337 947 333 981 q 346 880 340 914 q 363 819 351 846 q 396 774 375 792 q 451 757 417 757 q 504 782 488 757 q 521 836 521 807 q 502 908 521 869 q 454 981 483 947 q 388 1038 425 1015 q 314 1061 351 1061 z "},"E":{"ha":700,"x_min":29,"x_max":692,"o":"m 29 197 q 49 361 29 282 q 93 519 69 440 q 137 681 117 599 q 157 850 157 763 q 151 969 157 917 q 130 1072 144 1022 q 90 1171 115 1121 q 29 1282 65 1221 l 479 1282 q 549 1269 524 1282 q 588 1234 574 1256 q 605 1186 601 1213 q 608 1133 608 1160 q 608 1094 608 1110 q 610 1067 608 1079 q 613 1044 611 1056 q 618 1017 614 1032 l 567 1017 q 501 1035 519 1017 q 474 1076 483 1054 q 451 1115 464 1097 q 400 1133 438 1133 q 357 1114 372 1133 q 342 1065 342 1094 q 353 1030 342 1040 q 383 1015 365 1019 q 420 1008 400 1011 q 458 997 440 1006 q 487 967 475 988 q 499 908 499 947 q 497 892 499 901 q 492 874 496 883 q 461 884 476 878 q 429 890 446 890 q 382 874 401 890 q 363 811 363 858 q 386 768 363 783 q 440 753 410 753 q 503 772 485 753 q 531 812 522 790 q 548 852 540 833 q 578 871 556 871 q 647 836 629 871 q 665 753 665 801 q 658 643 665 700 q 641 528 650 586 q 624 411 632 469 q 617 294 617 353 q 639 135 617 207 q 692 3 661 63 q 624 1 658 1 q 543 0 589 0 q 435 0 497 0 q 283 0 372 0 q 190 10 236 0 q 109 42 144 19 q 51 103 74 65 q 29 197 29 142 z "},"F":{"ha":618,"x_min":3,"x_max":683,"o":"m 53 332 q 65 463 53 394 q 92 600 78 532 q 119 733 107 668 q 131 850 131 797 q 124 969 131 917 q 103 1072 118 1022 q 64 1171 89 1121 q 3 1282 39 1221 l 453 1282 q 522 1269 497 1282 q 561 1234 547 1256 q 578 1186 575 1213 q 582 1133 582 1160 q 582 1094 582 1110 q 583 1067 582 1079 q 586 1044 585 1056 q 592 1017 588 1032 l 540 1017 q 475 1035 493 1017 q 447 1076 457 1054 q 424 1115 438 1097 q 374 1133 411 1133 q 331 1114 346 1133 q 315 1065 315 1094 q 327 1030 315 1040 q 356 1015 339 1019 q 394 1008 374 1011 q 431 997 414 1006 q 460 967 449 988 q 472 908 472 947 q 471 892 472 901 q 465 874 469 883 q 435 884 450 878 q 403 890 419 890 q 353 870 371 890 q 335 801 335 850 q 347 704 335 767 q 383 565 360 642 q 438 406 406 489 q 509 244 471 322 q 592 103 547 167 q 683 0 636 39 l 267 0 q 163 31 204 0 q 98 112 122 63 q 63 219 74 161 q 53 332 53 278 z "},"G":{"ha":726,"x_min":33,"x_max":726,"o":"m 463 879 q 523 901 493 893 q 585 908 553 908 q 706 881 642 908 q 658 642 681 769 q 636 385 636 514 q 656 183 636 281 q 726 0 676 85 l 250 0 q 214 26 247 0 q 141 110 181 51 q 69 265 101 169 q 38 499 38 360 q 44 646 38 574 q 58 791 50 718 q 73 938 67 864 q 79 1086 79 1011 q 68 1179 79 1129 q 33 1282 57 1229 l 479 1282 q 542 1269 517 1282 q 584 1236 568 1256 q 607 1194 600 1217 q 615 1154 614 1172 q 621 1110 618 1129 q 626 1074 624 1092 q 630 1037 628 1056 q 633 992 632 1018 q 609 991 624 992 q 579 990 594 990 q 518 999 547 990 q 478 1042 489 1008 q 456 1084 471 1072 q 400 1096 442 1096 q 358 1082 376 1096 q 328 1044 340 1068 q 311 988 317 1019 q 306 924 306 957 q 315 836 306 881 q 341 756 324 792 q 385 697 358 719 q 444 675 411 675 q 494 700 479 675 q 508 760 508 725 q 495 830 508 796 q 463 879 482 864 z "},"H":{"ha":1068,"x_min":6,"x_max":1072,"o":"m 35 254 q 50 419 35 339 q 84 581 65 500 q 118 747 103 663 q 133 919 133 831 q 97 1103 133 1018 q 6 1271 60 1188 q 100 1286 50 1279 q 201 1293 150 1293 q 315 1274 275 1293 q 376 1226 356 1256 q 402 1165 396 1197 q 415 1103 408 1132 q 436 1055 422 1074 q 485 1036 450 1036 q 553 1063 522 1036 q 583 1133 583 1089 q 565 1213 583 1178 q 514 1282 546 1247 q 567 1288 547 1285 q 604 1292 588 1290 q 640 1295 621 1294 q 688 1296 658 1296 q 849 1248 792 1296 q 906 1125 906 1200 q 897 1003 906 1063 q 876 886 888 944 q 856 770 865 828 q 847 654 847 713 q 867 482 847 567 q 917 315 886 397 q 990 155 949 233 q 1072 0 1031 76 l 750 0 q 647 28 686 0 q 588 101 608 57 q 560 196 567 144 q 554 294 554 247 q 562 403 554 349 q 578 515 569 458 q 594 628 586 571 q 601 744 601 685 q 596 784 601 763 q 578 825 590 806 q 548 858 567 844 q 504 871 529 871 q 435 844 461 871 q 397 781 410 818 q 380 701 383 743 q 376 625 376 658 q 392 469 376 549 q 432 309 407 389 q 489 151 457 229 q 554 0 521 74 q 483 -2 517 0 q 417 -6 450 -4 q 348 -10 383 -8 q 271 -11 313 -11 q 168 8 213 -11 q 94 63 124 28 q 49 147 64 99 q 35 254 35 196 z "},"I":{"ha":614,"x_min":-10,"x_max":636,"o":"m 636 3 q 586 1 621 3 q 506 -3 551 -1 q 407 -7 460 -6 q 303 -8 354 -8 q 110 48 171 -8 q 49 236 49 104 q 63 363 49 297 q 92 498 76 429 q 122 635 108 567 q 136 771 136 704 q 130 939 136 868 q 108 1066 124 1010 q 63 1170 92 1122 q -10 1269 35 1218 q 18 1274 1 1269 q 65 1283 35 1278 q 144 1292 96 1288 q 264 1296 192 1296 q 376 1285 332 1296 q 445 1253 419 1275 q 481 1197 471 1231 q 492 1115 492 1163 q 476 997 492 1054 q 441 873 460 939 q 406 727 422 807 q 390 540 390 647 q 409 391 390 463 q 461 253 428 319 q 540 124 494 186 q 636 3 585 61 z "},"J":{"ha":711,"x_min":25,"x_max":715,"o":"m 569 1282 q 626 1261 606 1282 q 646 1217 646 1240 q 644 1204 646 1208 q 597 926 617 1075 q 578 624 578 778 q 608 293 578 454 q 715 0 639 132 l 229 0 q 144 24 178 0 q 90 86 111 49 q 61 169 69 124 q 51 254 53 214 q 50 381 50 325 q 49 499 50 438 q 42 637 47 561 q 25 824 38 713 q 94 813 68 824 q 135 788 119 803 q 160 754 150 772 q 183 721 171 736 q 213 695 194 706 q 263 685 231 685 q 326 701 299 685 q 372 747 353 718 q 400 811 390 775 q 410 885 410 847 q 399 966 410 926 q 368 1037 388 1006 q 322 1088 349 1068 q 263 1107 294 1107 q 208 1097 222 1107 q 194 1069 194 1086 q 201 1034 194 1058 q 207 983 207 1010 q 194 937 207 957 q 143 917 182 917 q 85 936 108 917 q 63 992 63 956 q 65 1072 63 1039 q 68 1135 68 1106 q 62 1200 68 1167 q 35 1282 56 1233 l 569 1282 z "},"K":{"ha":1000,"x_min":-4,"x_max":1022,"o":"m -4 1282 q 81 1297 42 1293 q 154 1301 121 1301 q 305 1268 251 1301 q 384 1183 358 1235 q 415 1068 410 1131 q 421 949 421 1006 q 422 900 421 926 q 425 851 422 874 q 435 814 428 829 q 456 799 443 799 q 503 815 483 799 q 537 859 524 832 q 556 922 550 886 q 563 997 563 958 q 556 1076 563 1036 q 538 1152 550 1117 q 509 1217 526 1188 q 468 1263 492 1246 q 624 1296 546 1296 q 708 1284 668 1296 q 777 1248 747 1272 q 824 1187 807 1224 q 842 1100 842 1150 q 826 987 842 1046 q 784 874 810 928 q 726 777 758 821 q 661 708 693 733 q 685 591 665 657 q 734 455 704 525 q 801 315 764 385 q 878 183 839 244 q 954 74 917 122 q 1022 0 992 26 l 756 0 q 635 26 683 0 q 558 97 588 53 q 514 197 529 140 q 492 310 499 253 q 482 424 485 368 q 474 524 479 481 q 457 594 468 568 q 421 621 446 621 q 400 605 410 621 q 383 560 390 589 q 371 494 375 532 q 367 411 367 456 q 374 303 367 360 q 397 192 381 247 q 439 88 413 138 q 504 0 465 38 q 440 -2 467 0 q 388 -6 414 -4 q 333 -10 363 -8 q 263 -11 304 -11 q 94 52 144 -11 q 44 233 44 115 q 52 331 44 286 q 72 421 60 376 q 97 513 83 465 q 123 616 111 560 q 142 741 135 672 q 150 896 150 810 q 144 1002 150 950 q 120 1103 138 1054 q 73 1197 103 1151 q -4 1282 43 1243 z "},"L":{"ha":725,"x_min":-21,"x_max":722,"o":"m 476 967 q 502 976 492 975 q 526 978 513 978 q 607 953 578 978 q 651 892 636 929 q 669 809 665 854 q 672 724 672 764 q 667 618 672 669 q 658 515 663 567 q 648 408 653 463 q 643 294 643 354 q 657 141 643 213 q 722 1 671 69 q 710 1 719 1 q 660 0 701 0 q 533 0 619 0 q 292 0 447 0 q 218 5 258 0 q 142 31 178 10 q 83 99 107 53 q 58 226 58 144 q 70 348 58 272 q 97 509 82 424 q 123 680 111 594 q 135 832 135 765 q 101 1074 135 963 q -21 1282 68 1186 q 131 1294 61 1289 q 283 1300 201 1300 q 449 1146 449 1300 q 438 1082 449 1119 q 414 1003 426 1044 q 390 919 401 961 q 379 844 379 878 q 397 785 379 808 q 458 763 414 763 q 508 788 493 763 q 522 847 522 813 q 509 917 522 883 q 476 967 496 951 z "},"M":{"ha":1018,"x_min":-28,"x_max":1025,"o":"m 33 233 q 50 381 33 318 q 86 503 67 443 q 122 628 106 563 q 139 783 139 694 q 130 892 139 832 q 101 1016 121 951 q 49 1146 81 1081 q -28 1271 17 1211 q 74 1286 17 1279 q 182 1293 131 1293 q 327 1267 274 1293 q 408 1201 381 1240 q 446 1117 436 1163 q 460 1032 456 1071 q 472 967 465 993 q 501 940 479 940 q 533 963 521 940 q 551 1015 544 985 q 561 1078 558 1046 q 564 1133 564 1111 q 545 1213 564 1178 q 494 1282 526 1247 q 552 1288 528 1285 q 599 1292 576 1290 q 644 1295 621 1294 q 696 1296 667 1296 q 790 1288 749 1296 q 862 1260 832 1281 q 908 1203 892 1239 q 924 1108 924 1167 q 918 1011 924 1057 q 906 915 913 965 q 893 803 899 865 q 888 657 888 742 q 893 485 888 569 q 914 317 899 400 q 956 156 929 235 q 1025 0 983 76 l 772 0 q 672 27 708 0 q 617 92 635 54 q 594 171 599 131 q 590 238 590 211 q 606 345 590 276 q 640 492 621 414 q 674 648 658 569 q 689 786 689 726 q 688 808 689 793 q 680 840 686 824 q 660 867 674 856 q 619 879 646 879 q 582 859 597 879 q 557 806 567 839 q 544 729 547 772 q 540 640 540 686 q 547 502 540 569 q 563 394 554 435 q 499 406 522 397 q 463 434 475 415 q 447 481 450 453 q 443 551 443 510 q 441 660 443 604 q 431 764 439 717 q 404 841 422 811 q 353 871 386 871 q 324 847 331 871 q 317 790 317 822 q 331 599 317 701 q 374 392 346 496 q 443 187 403 288 q 535 0 483 86 q 464 -2 497 0 q 397 -6 431 -4 q 328 -10 364 -8 q 251 -11 293 -11 q 83 52 133 -11 q 33 233 33 115 z "},"N":{"ha":1025,"x_min":-19,"x_max":1033,"o":"m 42 233 q 58 381 42 318 q 94 503 75 443 q 131 628 114 563 q 147 783 147 694 q 138 892 147 832 q 109 1016 129 951 q 57 1146 89 1081 q -19 1271 25 1211 q 82 1286 25 1279 q 190 1293 139 1293 q 348 1242 282 1293 q 460 1115 414 1192 q 535 949 506 1039 q 585 783 565 860 q 619 656 606 707 q 646 606 632 606 q 676 628 667 606 q 686 689 686 650 q 676 808 686 739 q 642 956 667 878 q 573 1115 617 1033 q 461 1268 529 1196 q 587 1288 528 1279 q 704 1296 646 1296 q 799 1288 757 1296 q 870 1260 840 1281 q 916 1203 900 1239 q 932 1108 932 1167 q 926 1011 932 1057 q 914 915 921 965 q 901 803 907 865 q 896 657 896 742 q 901 485 896 569 q 922 317 907 400 q 965 156 938 235 q 1033 0 992 76 l 794 0 q 695 27 742 0 q 610 98 649 54 q 541 198 571 142 q 490 311 511 254 q 458 422 469 368 q 447 517 447 476 q 449 624 447 574 q 451 717 451 674 q 448 760 451 733 q 435 811 444 786 q 408 853 425 836 q 361 871 390 871 q 332 847 339 871 q 325 790 325 822 q 340 599 325 701 q 383 392 354 496 q 451 187 411 288 q 543 0 492 86 q 472 -2 506 0 q 406 -6 439 -4 q 337 -10 372 -8 q 260 -11 301 -11 q 92 52 142 -11 q 42 233 42 115 z "},"O":{"ha":828,"x_min":39,"x_max":842,"o":"m 39 469 q 51 621 39 547 q 78 768 64 694 q 106 915 93 842 q 118 1065 118 989 q 115 1121 118 1096 q 107 1170 113 1146 q 94 1220 101 1194 q 79 1279 88 1246 q 148 1282 101 1281 q 245 1285 194 1283 q 340 1287 296 1286 q 401 1288 385 1288 q 582 1240 514 1288 q 686 1117 650 1192 q 734 951 722 1042 q 746 774 746 860 q 742 681 746 726 q 733 588 738 635 q 724 493 728 542 q 719 392 719 444 q 745 188 719 288 q 842 0 771 89 l 235 0 q 126 99 165 40 q 67 222 86 157 q 43 351 47 286 q 39 469 39 415 m 333 938 q 336 901 333 924 q 346 856 339 878 q 366 819 353 835 q 401 803 379 803 q 435 819 424 803 q 453 856 447 835 q 459 901 458 878 q 460 938 460 924 q 459 976 460 953 q 453 1022 458 1000 q 435 1059 447 1043 q 401 1075 424 1075 q 363 1059 376 1075 q 342 1022 349 1043 q 335 976 336 1000 q 333 938 333 953 z "},"P":{"ha":714,"x_min":-15,"x_max":700,"o":"m -15 1282 q 112 1285 56 1282 q 219 1291 168 1288 q 323 1297 271 1294 q 439 1300 375 1300 q 633 1232 565 1300 q 700 1028 700 1164 q 676 904 700 954 q 618 817 653 854 q 542 747 583 779 q 467 679 501 715 q 408 597 432 643 q 385 481 385 550 q 410 353 385 415 q 474 230 435 290 q 565 113 514 169 q 665 0 615 56 l 239 0 q 152 24 188 0 q 95 84 117 47 q 64 167 74 121 q 54 256 54 213 q 68 395 54 331 q 98 527 82 460 q 128 672 114 594 q 142 851 142 750 q 137 969 142 911 q 115 1083 132 1028 q 67 1188 99 1138 q -15 1282 36 1239 m 464 1068 q 436 1123 464 1108 q 360 1138 408 1138 q 344 1138 353 1138 q 326 1136 335 1138 q 349 1078 342 1106 q 361 1023 357 1050 q 367 967 365 996 q 371 904 368 939 q 435 974 407 932 q 464 1068 464 1015 z "},"Q":{"ha":794,"x_min":39,"x_max":958,"o":"m 39 469 q 51 621 39 547 q 78 768 64 694 q 106 915 93 842 q 118 1065 118 989 q 115 1121 118 1096 q 107 1170 113 1146 q 94 1220 101 1194 q 79 1279 88 1246 q 148 1282 101 1281 q 245 1285 194 1283 q 340 1287 296 1286 q 401 1288 385 1288 q 576 1247 508 1288 q 681 1140 643 1207 q 733 986 719 1074 q 747 803 747 899 q 741 661 747 732 q 726 520 735 590 q 712 383 718 450 q 706 250 706 315 q 717 116 706 181 q 756 -6 728 51 q 833 -113 783 -64 q 958 -201 882 -162 q 851 -253 911 -235 q 732 -271 792 -271 q 647 -260 688 -271 q 574 -225 606 -249 q 524 -163 543 -201 q 506 -72 506 -125 q 514 0 506 -40 l 235 0 q 126 99 165 40 q 67 222 86 157 q 43 351 47 286 q 39 469 39 415 m 333 938 q 336 901 333 924 q 346 856 339 878 q 366 819 353 835 q 401 803 379 803 q 435 819 424 803 q 453 856 447 835 q 459 901 458 878 q 460 938 460 924 q 459 976 460 953 q 453 1022 458 1000 q 435 1059 447 1043 q 401 1075 424 1075 q 363 1059 376 1075 q 342 1022 349 1043 q 335 976 336 1000 q 333 938 333 953 z "},"R":{"ha":996,"x_min":-1,"x_max":1025,"o":"m -1 1282 q 132 1285 69 1282 q 254 1291 194 1288 q 372 1297 314 1294 q 494 1300 431 1300 q 653 1274 583 1300 q 773 1204 724 1247 q 848 1105 822 1161 q 874 989 874 1049 q 863 913 874 953 q 826 835 851 872 q 762 765 801 797 q 664 708 722 732 q 688 591 668 657 q 737 455 707 525 q 804 315 767 385 q 881 183 842 244 q 957 74 919 122 q 1025 0 994 26 l 758 0 q 638 26 686 0 q 561 97 590 53 q 517 197 532 140 q 494 310 501 253 q 485 424 488 368 q 476 524 482 481 q 460 594 471 568 q 424 621 449 621 q 403 605 413 621 q 385 560 393 589 q 374 494 378 532 q 369 411 369 456 q 376 303 369 360 q 399 192 383 247 q 442 88 415 138 q 507 0 468 38 q 443 -2 469 0 q 391 -6 417 -4 q 336 -10 365 -8 q 265 -11 307 -11 q 97 52 147 -11 q 47 233 47 115 q 55 331 47 286 q 74 421 63 376 q 100 513 86 465 q 126 616 114 560 q 145 741 138 672 q 153 896 153 810 q 147 1002 153 950 q 123 1103 140 1054 q 76 1197 106 1151 q -1 1282 46 1243 m 594 1058 q 581 1093 594 1078 q 547 1119 568 1108 q 497 1135 525 1129 q 438 1142 468 1142 q 382 1136 406 1142 q 405 1078 397 1106 q 417 1023 413 1050 q 422 967 421 996 q 426 904 424 939 q 548 964 501 922 q 594 1058 594 1006 z "},"S":{"ha":707,"x_min":14,"x_max":714,"o":"m 51 254 q 50 392 50 325 q 49 526 50 458 q 42 666 47 593 q 25 824 38 739 q 94 813 68 824 q 137 788 121 803 q 160 754 153 772 q 176 721 168 736 q 193 695 183 706 q 221 685 203 685 q 258 698 243 685 q 274 733 274 711 q 259 785 274 765 q 222 817 244 804 q 174 840 200 829 q 125 864 147 850 q 88 899 103 878 q 72 953 72 919 q 67 1038 68 997 q 61 1119 65 1079 q 47 1200 57 1160 q 14 1281 36 1240 l 479 1281 q 509 1276 494 1281 q 535 1263 524 1272 q 555 1236 547 1253 q 563 1193 563 1219 q 564 1149 563 1182 q 567 1079 565 1117 q 571 1008 569 1042 q 572 958 572 974 l 513 958 q 449 972 471 958 q 417 1004 428 985 q 402 1047 407 1024 q 391 1089 397 1069 q 371 1122 385 1108 q 326 1135 357 1135 q 278 1115 297 1135 q 258 1067 258 1096 q 288 971 258 1007 q 360 910 317 935 q 454 865 403 885 q 549 815 506 844 q 621 742 592 786 q 650 625 650 697 q 649 507 650 560 q 645 411 647 454 q 641 333 643 368 q 639 264 639 297 q 644 193 639 225 q 658 131 649 161 q 682 69 668 101 q 714 0 696 38 l 229 0 q 144 24 178 0 q 90 86 111 49 q 61 169 69 124 q 51 254 53 214 z "},"T":{"ha":763,"x_min":10,"x_max":778,"o":"m 147 333 q 168 498 147 418 q 215 656 189 578 q 261 815 240 735 q 282 978 282 894 q 281 1019 282 997 q 275 1061 281 1042 q 258 1094 269 1081 q 224 1107 246 1107 q 178 1088 190 1107 q 165 1039 165 1068 q 172 989 165 1014 q 185 942 178 964 q 198 902 192 921 q 204 871 204 883 q 183 852 204 857 q 144 847 161 847 q 108 850 128 847 q 74 860 89 853 q 48 878 58 867 q 38 908 38 890 q 39 949 38 933 q 42 976 40 964 q 44 1002 43 989 q 46 1036 46 1015 q 38 1159 46 1099 q 10 1282 31 1219 l 546 1282 q 612 1263 589 1282 q 645 1211 635 1243 q 658 1137 656 1179 q 663 1049 660 1094 q 672 957 665 1003 q 697 871 678 911 q 629 855 664 857 q 567 853 594 853 q 508 868 529 853 q 488 919 488 883 q 493 990 488 949 q 499 1057 499 1031 q 497 1074 499 1064 q 490 1093 494 1083 q 478 1109 486 1103 q 460 1115 471 1115 q 433 1107 443 1115 q 417 1086 422 1099 q 411 1058 413 1074 q 410 1026 410 1042 q 439 764 410 901 q 518 492 468 626 q 635 231 568 357 q 778 0 703 104 q 640 -10 704 -7 q 518 -14 576 -14 q 358 1 428 -14 q 242 53 289 15 q 172 160 196 92 q 147 333 147 228 z "},"U":{"ha":936,"x_min":-17,"x_max":942,"o":"m -17 1282 q 135 1294 65 1289 q 288 1300 206 1300 q 453 1146 453 1300 q 442 1085 453 1119 q 418 1003 431 1050 q 394 896 406 956 q 383 761 383 836 q 401 702 383 725 q 463 679 418 679 q 510 703 486 679 q 553 765 533 726 q 585 851 572 803 q 597 947 597 899 q 569 1124 597 1043 q 488 1279 540 1204 q 510 1283 496 1279 q 547 1292 524 1288 q 609 1301 571 1297 q 704 1306 647 1306 q 793 1291 758 1306 q 848 1252 828 1276 q 876 1195 868 1228 q 885 1125 885 1163 q 870 1006 885 1064 q 838 883 856 949 q 805 736 819 817 q 790 549 790 656 q 825 260 790 393 q 942 8 860 126 q 879 3 932 8 q 753 -6 826 -1 q 600 -16 681 -11 q 454 -21 519 -21 q 290 -8 364 -21 q 165 38 217 4 q 86 130 114 71 q 58 282 58 189 q 71 394 58 328 q 99 536 83 461 q 126 688 114 611 q 139 832 139 765 q 106 1074 139 963 q -17 1282 72 1186 z "},"V":{"ha":933,"x_min":-32,"x_max":926,"o":"m -32 1282 q 28 1286 0 1285 q 83 1288 57 1288 q 263 1266 193 1288 q 372 1208 332 1244 q 426 1123 411 1172 q 440 1018 440 1074 q 434 926 440 974 q 419 831 428 878 q 405 739 411 785 q 399 653 399 693 q 409 603 399 622 q 457 583 419 583 q 522 603 494 583 q 566 658 549 624 q 592 738 583 692 q 600 836 600 785 q 589 963 600 897 q 558 1088 578 1028 q 509 1199 538 1149 q 444 1282 481 1250 q 524 1290 486 1288 q 593 1292 561 1292 q 774 1267 707 1292 q 874 1208 840 1243 q 917 1134 908 1174 q 926 1064 926 1094 q 878 860 913 960 q 808 660 844 760 q 744 459 772 560 q 717 256 717 358 q 719 188 717 219 q 729 126 722 157 q 747 64 736 96 q 775 -4 758 32 q 683 3 743 0 q 553 8 622 7 q 415 10 483 10 q 300 11 347 11 q 159 8 226 11 q 43 -1 92 6 q 98 110 75 47 q 136 243 121 172 q 158 389 151 314 q 165 538 165 464 q 151 752 165 644 q 111 958 138 860 q 49 1140 85 1056 q -32 1282 13 1224 z "},"W":{"ha":1218,"x_min":-19,"x_max":1192,"o":"m 715 0 q 664 131 675 58 q 653 272 653 203 q 656 351 653 314 q 658 419 658 389 q 650 477 658 456 q 615 499 642 499 q 568 475 590 499 q 529 411 546 451 q 503 319 513 371 q 493 208 493 267 q 502 102 493 156 q 531 0 511 49 l 186 0 q 104 110 126 43 q 82 258 82 178 q 92 394 82 324 q 115 534 103 465 q 137 667 126 603 q 147 782 147 731 q 138 890 147 831 q 109 1015 129 950 q 57 1144 89 1079 q -19 1269 25 1210 q 26 1281 0 1276 q 80 1290 53 1286 q 133 1294 107 1293 q 179 1296 160 1296 q 363 1228 301 1296 q 424 1018 424 1161 q 417 962 424 999 q 404 880 411 925 q 391 786 397 835 q 385 696 385 738 q 397 615 385 647 q 440 583 408 583 q 503 602 481 583 q 538 653 526 621 q 553 727 550 685 q 556 817 556 769 q 550 905 556 860 q 535 994 544 950 q 515 1077 526 1038 q 490 1147 503 1117 q 541 1158 518 1154 q 585 1163 564 1163 q 669 1149 636 1163 q 720 1110 701 1135 q 747 1051 739 1085 q 754 979 754 1018 q 750 906 754 944 q 740 830 746 868 q 731 755 735 792 q 726 686 726 718 q 738 607 726 639 q 778 575 749 575 q 832 592 810 575 q 869 640 854 610 q 890 710 883 669 q 896 796 896 750 q 883 940 896 865 q 849 1083 871 1015 q 798 1201 826 1150 q 738 1274 769 1253 q 785 1278 758 1276 q 838 1281 811 1281 q 888 1283 864 1282 q 928 1283 911 1283 q 1072 1259 1019 1283 q 1151 1200 1125 1235 q 1185 1126 1178 1165 q 1192 1056 1192 1086 q 1158 864 1182 961 q 1111 670 1135 767 q 1069 478 1088 574 q 1051 290 1051 382 q 1067 141 1051 214 q 1124 0 1083 68 l 715 0 z "},"X":{"ha":988,"x_min":-17,"x_max":1010,"o":"m 611 1296 q 695 1284 656 1296 q 765 1248 735 1272 q 812 1187 794 1224 q 829 1100 829 1150 q 813 987 829 1046 q 772 874 797 928 q 713 777 746 821 q 649 708 681 733 q 672 591 653 657 q 722 455 692 525 q 789 315 751 385 q 865 183 826 244 q 942 74 904 122 q 1010 0 979 26 l 743 0 q 605 37 657 0 q 525 131 553 74 q 486 259 497 189 q 470 396 475 329 q 460 517 465 463 q 440 600 456 572 q 404 619 421 619 q 374 597 386 619 q 353 542 361 575 q 343 471 346 508 q 340 401 340 433 q 356 301 340 363 q 393 178 371 240 q 442 67 415 117 q 492 0 469 17 l 154 0 q 65 133 92 63 q 38 278 38 203 q 53 397 38 336 q 94 515 68 457 q 155 630 119 574 q 231 738 190 686 q 212 877 231 799 q 160 1033 193 956 q 81 1178 126 1111 q -17 1282 36 1244 q 144 1304 74 1304 q 299 1267 244 1304 q 381 1173 354 1229 q 413 1051 407 1117 q 419 930 418 986 q 423 836 419 874 q 449 799 426 799 q 494 815 475 799 q 525 860 513 832 q 544 924 538 888 q 550 997 550 960 q 544 1076 550 1036 q 526 1152 538 1117 q 497 1217 514 1188 q 456 1263 479 1246 q 611 1296 533 1296 z "},"Y":{"ha":653,"x_min":-54,"x_max":668,"o":"m 43 265 q 66 406 43 339 q 116 540 89 474 q 166 676 143 607 q 189 821 189 744 q 169 942 189 876 q 115 1069 149 1007 q 37 1184 81 1131 q -54 1271 -7 1238 q -2 1277 -25 1275 q 41 1281 21 1279 q 81 1282 61 1282 q 122 1282 100 1282 q 208 1262 172 1282 q 265 1204 243 1242 q 298 1114 288 1167 q 308 997 308 1061 q 308 978 308 990 q 307 929 308 967 q 338 1000 326 971 q 355 1051 349 1029 q 363 1088 361 1072 q 365 1121 365 1104 q 326 1282 365 1206 q 400 1294 365 1290 q 467 1297 435 1297 q 527 1294 500 1297 q 572 1280 554 1292 q 600 1246 590 1268 q 610 1183 610 1224 q 585 1073 610 1131 q 531 947 561 1015 q 477 794 501 878 q 453 608 453 711 q 463 482 453 549 q 499 340 474 415 q 565 179 524 264 q 668 0 607 94 l 229 0 q 88 100 132 32 q 43 265 43 168 z "},"Z":{"ha":732,"x_min":38,"x_max":735,"o":"m 681 824 q 642 614 656 713 q 629 425 629 515 q 655 197 629 301 q 735 0 681 92 l 140 0 q 61 256 85 146 q 38 453 38 367 q 68 631 38 560 q 144 751 99 701 q 242 834 189 800 q 341 901 296 868 q 417 972 386 933 q 447 1067 447 1010 q 426 1115 447 1096 q 365 1135 406 1135 q 321 1117 336 1135 q 297 1074 306 1100 q 281 1019 288 1049 q 263 963 275 989 q 228 920 250 938 q 164 903 206 903 l 104 903 q 131 999 119 951 q 142 1097 142 1047 q 131 1188 142 1142 q 93 1282 121 1233 l 692 1282 q 659 1201 669 1242 q 644 1121 649 1161 q 639 1039 640 1081 q 633 953 638 997 q 618 899 633 919 q 581 864 603 878 q 532 840 558 850 q 483 817 506 829 q 447 785 461 804 q 432 733 432 765 q 447 698 432 711 q 485 685 463 685 q 513 695 503 685 q 530 721 522 706 q 545 754 538 736 q 569 788 553 772 q 611 813 585 803 q 681 824 638 824 z "},"c":{"ha":721,"x_min":14,"x_max":707,"o":"m 18 499 q 24 646 18 574 q 39 791 31 718 q 53 938 47 864 q 60 1086 60 1011 q 49 1179 60 1129 q 14 1282 38 1229 l 460 1282 q 523 1269 497 1282 q 565 1236 549 1256 q 588 1194 581 1217 q 596 1154 594 1172 q 601 1097 599 1129 q 606 1032 604 1065 q 610 967 608 999 q 614 908 613 935 q 590 908 604 908 q 560 907 575 907 q 499 916 528 907 q 458 958 469 925 q 453 997 456 974 q 442 1042 450 1021 q 421 1080 435 1064 q 381 1096 407 1096 q 329 1076 347 1096 q 303 1029 311 1057 q 293 972 294 1001 q 292 919 292 942 q 299 855 292 886 q 324 799 307 824 q 366 760 340 775 q 429 744 392 744 q 477 747 451 744 q 528 758 503 750 q 573 779 553 765 q 604 815 593 793 q 626 791 618 814 q 638 739 633 768 q 642 683 642 710 q 643 650 643 657 q 640 573 643 618 q 634 478 638 528 q 628 378 631 428 q 625 283 625 328 q 643 135 625 201 q 707 0 661 68 l 231 0 q 194 26 228 0 q 122 110 161 51 q 50 265 82 169 q 18 499 18 360 z "},"Œ":{"ha":1093,"x_min":39,"x_max":1079,"o":"m 39 469 q 51 621 39 547 q 78 768 64 694 q 106 915 93 842 q 118 1065 118 989 q 115 1121 118 1096 q 107 1170 113 1146 q 94 1220 101 1194 q 79 1279 88 1246 q 148 1282 101 1281 q 245 1285 194 1283 q 340 1287 296 1286 q 401 1288 385 1288 q 436 1286 419 1288 q 468 1282 453 1285 l 867 1282 q 936 1269 911 1282 q 975 1234 961 1256 q 992 1186 989 1213 q 996 1133 996 1160 q 996 1094 996 1110 q 997 1067 996 1079 q 1000 1044 999 1056 q 1006 1017 1001 1032 l 954 1017 q 889 1035 907 1017 q 861 1076 871 1054 q 838 1115 851 1097 q 788 1133 825 1133 q 744 1114 760 1133 q 729 1065 729 1094 q 741 1030 729 1040 q 770 1015 753 1019 q 808 1008 788 1011 q 845 997 828 1006 q 874 967 863 988 q 886 908 886 947 q 885 892 886 901 q 879 874 883 883 q 849 884 864 878 q 817 890 833 890 q 769 874 789 890 q 750 811 750 858 q 774 768 750 783 q 828 753 797 753 q 891 772 872 753 q 919 812 910 790 q 935 852 928 833 q 965 871 943 871 q 1035 836 1017 871 q 1053 753 1053 801 q 1045 643 1053 700 q 1028 528 1038 586 q 1012 411 1019 469 q 1004 294 1004 353 q 1026 135 1004 207 q 1079 3 1049 63 q 1045 2 1064 3 q 992 1 1026 1 q 901 0 957 0 q 756 0 844 0 q 540 0 667 0 q 235 0 413 0 q 126 99 165 40 q 67 222 86 157 q 43 351 47 286 q 39 469 39 415 m 333 938 q 336 901 333 924 q 346 856 339 878 q 366 819 353 835 q 401 803 379 803 q 435 819 424 803 q 453 856 447 835 q 459 901 458 878 q 460 938 460 924 q 459 976 460 953 q 453 1022 458 1000 q 435 1059 447 1043 q 401 1075 424 1075 q 363 1059 376 1075 q 342 1022 349 1043 q 335 976 336 1000 q 333 938 333 953 z "},"Æ":{"ha":1233,"x_min":40,"x_max":1219,"o":"m 40 218 q 65 406 43 313 q 111 590 86 499 q 156 773 136 682 q 176 957 176 864 q 153 1125 176 1043 q 69 1285 129 1207 q 158 1279 114 1285 q 256 1274 203 1274 q 327 1277 285 1274 q 417 1285 369 1281 q 512 1294 464 1290 q 601 1297 560 1297 q 696 1282 653 1297 l 1007 1282 q 1076 1269 1051 1282 q 1115 1234 1101 1256 q 1133 1186 1129 1213 q 1136 1133 1136 1160 q 1136 1094 1136 1110 q 1138 1067 1136 1079 q 1140 1044 1139 1056 q 1146 1017 1142 1032 l 1094 1017 q 1029 1035 1047 1017 q 1001 1076 1011 1054 q 978 1115 992 1097 q 928 1133 965 1133 q 885 1114 900 1133 q 869 1065 869 1094 q 881 1030 869 1040 q 910 1015 893 1019 q 948 1008 928 1011 q 985 997 968 1006 q 1015 967 1003 988 q 1026 908 1026 947 q 1025 892 1026 901 q 1019 874 1024 883 q 989 884 1004 878 q 957 890 974 890 q 910 874 929 890 q 890 811 890 858 q 914 768 890 783 q 968 753 938 753 q 1031 772 1013 753 q 1059 812 1050 790 q 1076 852 1068 833 q 1106 871 1083 871 q 1175 836 1157 871 q 1193 753 1193 801 q 1185 643 1193 700 q 1169 528 1178 586 q 1152 411 1160 469 q 1144 294 1144 353 q 1167 135 1144 207 q 1219 3 1189 63 q 1151 1 1186 1 q 1065 0 1115 0 q 942 0 1014 0 q 765 0 871 0 q 660 28 707 8 q 579 84 613 49 q 528 172 546 119 q 510 297 510 224 q 520 438 510 374 q 544 553 531 501 q 567 642 557 604 q 578 707 578 681 q 567 757 578 738 q 519 776 557 776 q 450 747 475 776 q 413 672 425 717 q 397 578 400 628 q 393 488 393 528 q 401 356 393 417 q 424 237 408 294 q 465 122 440 179 q 522 0 489 64 l 158 0 q 102 32 125 10 q 66 84 79 54 q 47 149 53 114 q 40 218 40 183 m 461 990 q 501 957 472 965 q 557 949 529 949 l 572 949 q 560 1028 565 990 q 545 1095 556 1067 q 513 1140 535 1124 q 451 1157 492 1157 l 422 1157 q 433 1113 426 1139 q 445 1063 439 1088 q 456 1017 451 1038 q 461 990 461 997 z "},"!":{"ha":542,"x_min":-26,"x_max":550,"o":"m 460 590 q 367 579 413 583 q 289 575 321 575 q 190 588 229 575 q 128 624 151 600 q 97 681 106 647 q 88 756 88 714 q 99 861 88 804 q 110 985 110 918 q 99 1063 110 1022 q 69 1142 88 1103 q 26 1216 50 1181 q -26 1281 1 1251 q -3 1283 -15 1281 q 35 1288 10 1285 q 103 1292 60 1290 q 218 1294 146 1294 q 326 1279 283 1294 q 393 1240 368 1264 q 428 1186 418 1217 q 438 1125 438 1156 q 430 1050 438 1090 q 413 966 422 1010 q 395 876 403 922 q 388 785 388 831 q 403 687 388 736 q 460 590 419 638 m 550 0 q 410 -12 467 0 q 311 -25 353 -25 q 213 -8 253 -25 q 151 35 174 8 q 118 94 128 61 q 108 161 108 128 q 113 238 108 204 q 122 301 117 272 q 132 356 128 331 q 136 407 136 382 q 128 467 136 436 q 99 538 119 499 q 314 516 235 538 q 434 459 393 494 q 486 377 475 424 q 497 279 497 331 q 492 190 497 235 q 486 110 486 146 q 505 44 486 76 q 550 0 524 13 z "},":":{"ha":497,"x_min":47,"x_max":506,"o":"m 506 0 q 365 -12 422 0 q 267 -25 308 -25 q 169 -8 208 -25 q 106 35 129 8 q 74 94 83 61 q 64 161 64 128 q 68 238 64 204 q 78 301 72 272 q 88 356 83 331 q 92 407 92 382 q 83 467 92 436 q 54 538 75 499 q 269 516 190 538 q 390 459 349 494 q 442 377 431 424 q 453 279 453 331 q 447 190 453 235 q 442 110 442 146 q 460 44 442 76 q 506 0 479 13 m 499 693 q 358 681 415 693 q 260 668 301 668 q 162 685 201 668 q 99 728 122 701 q 67 788 76 754 q 57 854 57 821 q 61 931 57 897 q 71 994 65 965 q 81 1049 76 1024 q 85 1100 85 1075 q 76 1160 85 1129 q 47 1231 68 1192 q 263 1209 183 1231 q 383 1152 342 1188 q 435 1070 424 1117 q 446 972 446 1024 q 440 883 446 928 q 435 803 435 839 q 453 738 435 769 q 499 693 472 706 z "},".":{"ha":497,"x_min":54,"x_max":506,"o":"m 506 0 q 365 -12 422 0 q 267 -25 308 -25 q 169 -8 208 -25 q 106 35 129 8 q 74 94 83 61 q 64 161 64 128 q 68 238 64 204 q 78 301 72 272 q 88 356 83 331 q 92 407 92 382 q 83 467 92 436 q 54 538 75 499 q 269 516 190 538 q 390 459 349 494 q 442 377 431 424 q 453 279 453 331 q 447 190 453 235 q 442 110 442 146 q 460 44 442 76 q 506 0 479 13 z "},",":{"ha":497,"x_min":54,"x_max":506,"o":"m 506 -208 q 365 -221 422 -208 q 267 -233 308 -233 q 169 -217 208 -233 q 106 -174 129 -200 q 74 -114 83 -147 q 64 -47 64 -81 q 71 42 64 1 q 85 121 78 83 q 100 194 93 158 q 107 271 107 231 q 96 366 107 315 q 54 482 85 417 q 269 460 190 482 q 390 403 349 439 q 442 322 431 368 q 453 224 453 275 q 448 167 453 196 q 438 108 443 138 q 427 49 432 79 q 422 -12 422 18 q 440 -110 422 -61 q 506 -208 457 -158 z "},";":{"ha":497,"x_min":47,"x_max":506,"o":"m 499 693 q 358 681 415 693 q 260 668 301 668 q 162 685 201 668 q 99 728 122 701 q 67 788 76 754 q 57 854 57 821 q 61 931 57 897 q 71 994 65 965 q 81 1049 76 1024 q 85 1100 85 1075 q 76 1160 85 1129 q 47 1231 68 1192 q 263 1209 183 1231 q 383 1152 342 1188 q 435 1070 424 1117 q 446 972 446 1024 q 440 883 446 928 q 435 803 435 839 q 453 738 435 769 q 499 693 472 706 m 506 -208 q 365 -221 422 -208 q 267 -233 308 -233 q 169 -217 208 -233 q 106 -174 129 -200 q 74 -114 83 -147 q 64 -47 64 -81 q 71 42 64 1 q 85 121 78 83 q 100 194 93 158 q 107 271 107 231 q 96 366 107 315 q 54 482 85 417 q 269 460 190 482 q 390 403 349 439 q 442 322 431 368 q 453 224 453 275 q 448 167 453 196 q 438 108 443 138 q 427 49 432 79 q 422 -12 422 18 q 440 -110 422 -61 q 506 -208 457 -158 z "},"$":{"ha":707,"x_min":14,"x_max":714,"o":"m 338 -25 q 339 0 338 -7 l 229 0 q 144 24 178 0 q 90 86 111 49 q 61 169 69 124 q 51 254 53 214 q 50 392 50 325 q 49 526 50 458 q 42 666 47 593 q 25 824 38 739 q 94 813 68 824 q 137 788 121 803 q 160 754 153 772 q 176 721 168 736 q 193 695 183 706 q 221 685 203 685 q 258 698 243 685 q 274 733 274 711 q 259 785 274 765 q 222 817 244 804 q 174 840 200 829 q 125 864 147 850 q 88 899 103 878 q 72 953 72 919 q 67 1038 68 997 q 61 1119 65 1079 q 47 1200 57 1160 q 14 1281 36 1240 l 261 1281 q 258 1294 258 1288 q 258 1310 258 1301 q 274 1374 258 1347 q 310 1400 289 1400 q 346 1374 331 1400 q 361 1310 361 1347 q 360 1294 361 1301 q 358 1281 360 1288 l 479 1281 q 509 1276 494 1281 q 535 1263 524 1272 q 555 1236 547 1253 q 563 1193 563 1219 q 564 1149 563 1182 q 567 1079 565 1117 q 571 1008 569 1042 q 572 958 572 974 l 513 958 q 449 972 471 958 q 417 1004 428 985 q 402 1047 407 1024 q 391 1089 397 1069 q 371 1122 385 1108 q 326 1135 357 1135 q 278 1115 297 1135 q 258 1067 258 1096 q 288 971 258 1007 q 360 910 317 935 q 454 865 403 885 q 549 815 506 844 q 621 742 592 786 q 650 625 650 697 q 649 507 650 560 q 645 411 647 454 q 641 333 643 368 q 639 264 639 297 q 644 193 639 225 q 658 131 649 161 q 682 69 668 101 q 714 0 696 38 l 433 0 q 436 -25 436 -14 q 422 -93 436 -65 q 386 -121 407 -121 q 351 -93 365 -121 q 338 -25 338 -65 z "},"¢":{"ha":721,"x_min":14,"x_max":707,"o":"m 347 0 l 231 0 q 194 26 228 0 q 122 110 161 51 q 50 265 82 169 q 18 499 18 360 q 24 646 18 574 q 39 791 31 718 q 53 938 47 864 q 60 1086 60 1011 q 49 1179 60 1129 q 14 1282 38 1229 l 253 1282 q 251 1307 251 1289 q 263 1365 251 1342 q 294 1389 275 1389 q 326 1365 314 1389 q 339 1307 339 1342 q 336 1282 339 1296 l 460 1282 q 523 1269 497 1282 q 565 1236 549 1256 q 588 1194 581 1217 q 596 1154 594 1172 q 601 1097 599 1129 q 606 1032 604 1065 q 610 967 608 999 q 614 908 613 935 q 590 908 604 908 q 560 907 575 907 q 499 916 528 907 q 458 958 469 925 q 453 997 456 974 q 442 1042 450 1021 q 421 1080 435 1064 q 381 1096 407 1096 q 329 1076 347 1096 q 303 1029 311 1057 q 293 972 294 1001 q 292 919 292 942 q 299 855 292 886 q 324 799 307 824 q 366 760 340 775 q 429 744 392 744 q 477 747 451 744 q 528 758 503 750 q 573 779 553 765 q 604 815 593 793 q 626 791 618 814 q 638 739 633 768 q 642 683 642 710 q 643 650 643 657 q 640 573 643 618 q 634 478 638 528 q 628 378 631 428 q 625 283 625 328 q 643 135 625 201 q 707 0 661 68 l 435 0 q 436 -17 436 -6 q 424 -78 436 -53 q 392 -104 411 -104 q 360 -78 372 -104 q 347 -17 347 -53 l 347 0 z "},"ı":{"ha":614,"x_min":-10,"x_max":636,"o":"m 636 3 q 586 1 621 3 q 506 -3 551 -1 q 407 -7 460 -6 q 303 -8 354 -8 q 110 48 171 -8 q 49 236 49 104 q 63 363 49 297 q 92 498 76 429 q 122 635 108 567 q 136 771 136 704 q 130 939 136 868 q 108 1066 124 1010 q 63 1170 92 1122 q -10 1269 35 1218 q 18 1274 1 1269 q 65 1283 35 1278 q 144 1292 96 1288 q 264 1296 192 1296 q 376 1285 332 1296 q 445 1253 419 1275 q 481 1197 471 1231 q 492 1115 492 1163 q 476 997 492 1054 q 441 873 460 939 q 406 727 422 807 q 390 540 390 647 q 409 391 390 463 q 461 253 428 319 q 540 124 494 186 q 636 3 585 61 z "},"¥":{"ha":697,"x_min":-10,"x_max":713,"o":"m 17 810 l 233 810 l 233 821 q 213 942 233 876 q 159 1069 193 1007 q 81 1184 125 1131 q -10 1271 38 1238 q 42 1277 19 1275 q 85 1281 65 1279 q 125 1282 106 1282 q 167 1282 144 1282 q 252 1262 217 1282 q 310 1204 288 1242 q 342 1114 332 1167 q 353 997 353 1061 q 353 978 353 990 q 351 929 353 967 q 382 1000 371 971 q 399 1051 393 1029 q 408 1088 406 1072 q 410 1121 410 1104 q 371 1282 410 1206 q 444 1294 410 1290 q 511 1297 479 1297 q 572 1294 544 1297 q 617 1280 599 1292 q 644 1246 635 1268 q 654 1183 654 1224 q 640 1103 654 1144 q 607 1017 626 1063 q 565 921 588 972 q 525 810 542 869 l 693 810 l 693 700 l 503 700 q 499 655 500 678 q 497 608 497 632 l 497 590 l 693 590 l 693 479 l 508 479 q 573 260 525 379 q 713 0 621 142 l 274 0 q 132 100 176 32 q 88 265 88 168 q 101 374 88 322 q 135 479 115 426 l 17 479 l 17 590 l 181 590 q 201 645 192 618 q 217 700 210 672 l 17 700 l 17 810 z "},"=":{"ha":571,"x_min":56,"x_max":519,"o":"m 56 872 l 519 872 l 519 729 l 56 729 l 56 872 m 56 588 l 519 588 l 519 444 l 56 444 l 56 588 z "},"¤":{"ha":751,"x_min":4,"x_max":756,"o":"m 4 851 l 93 851 q 104 967 100 910 q 108 1086 108 1025 q 97 1179 108 1129 q 63 1282 86 1229 l 508 1282 q 572 1269 546 1282 q 613 1236 597 1256 q 636 1194 629 1217 q 644 1154 643 1172 q 650 1097 647 1129 q 655 1032 653 1065 q 659 967 657 999 q 663 908 661 935 q 638 908 653 908 q 608 907 624 907 q 547 916 576 907 q 507 958 518 925 q 501 997 504 974 q 491 1042 499 1021 q 469 1080 483 1064 q 429 1096 456 1096 q 386 1077 403 1096 q 360 1026 369 1058 q 346 949 350 993 q 340 851 342 904 l 625 851 l 625 742 l 340 742 l 340 725 q 340 676 340 700 q 343 632 340 653 l 625 632 l 625 521 l 358 521 q 403 428 374 458 q 478 397 432 397 q 526 400 500 397 q 576 410 551 403 q 622 432 601 418 q 653 468 642 446 q 701 406 689 442 q 714 331 714 371 q 707 240 714 286 q 700 147 700 193 q 711 69 700 107 q 756 0 722 32 l 279 0 q 243 26 276 0 q 170 110 210 51 q 99 265 131 169 q 67 499 67 360 l 67 521 l 4 521 l 4 632 l 72 632 q 77 687 75 660 q 82 742 79 714 l 4 742 l 4 851 z "},"£":{"ha":725,"x_min":-21,"x_max":722,"o":"m 18 1115 l 86 1115 q -21 1282 47 1206 q 131 1294 61 1289 q 283 1300 201 1300 q 449 1146 449 1300 q 449 1132 449 1139 q 447 1115 449 1125 l 694 1115 l 694 1006 l 433 1006 q 428 965 431 986 q 422 924 425 944 l 694 924 l 694 813 l 407 813 q 395 713 400 758 q 390 644 390 668 q 408 585 390 608 q 469 563 425 563 q 519 588 504 563 q 533 647 533 613 q 520 717 533 683 q 488 767 507 751 q 513 776 503 775 q 538 778 524 778 q 618 753 589 778 q 662 692 647 729 q 680 609 676 654 q 683 524 683 564 q 677 462 683 497 q 664 385 671 426 q 651 301 657 344 q 644 214 644 258 q 661 99 644 154 q 722 1 678 44 q 710 1 719 1 q 660 0 701 0 q 533 0 619 0 q 292 0 447 0 q 218 5 258 0 q 142 31 178 10 q 83 99 107 53 q 58 226 58 144 q 69 343 58 271 q 94 497 81 415 q 121 661 108 578 q 135 813 133 744 l 18 813 l 18 924 l 131 924 q 118 1006 126 967 l 18 1006 l 18 1115 z "},"ß":{"ha":1386,"x_min":14,"x_max":1393,"o":"m 51 254 q 50 392 50 325 q 49 526 50 458 q 42 666 47 593 q 25 824 38 739 q 94 813 68 824 q 137 788 121 803 q 160 754 153 772 q 176 721 168 736 q 193 695 183 706 q 221 685 203 685 q 258 698 243 685 q 274 733 274 711 q 259 785 274 765 q 222 817 244 804 q 174 840 200 829 q 125 864 147 850 q 88 899 103 878 q 72 953 72 919 q 67 1038 68 997 q 61 1119 65 1079 q 47 1200 57 1160 q 14 1281 36 1240 l 479 1281 q 509 1276 494 1281 q 535 1263 524 1272 q 555 1236 547 1253 q 563 1193 563 1219 q 564 1149 563 1182 q 567 1079 565 1117 q 571 1008 569 1042 q 572 958 572 974 l 513 958 q 449 972 471 958 q 417 1004 428 985 q 402 1047 407 1024 q 391 1089 397 1069 q 371 1122 385 1108 q 326 1135 357 1135 q 278 1115 297 1135 q 258 1067 258 1096 q 288 971 258 1007 q 360 910 317 935 q 454 865 403 885 q 549 815 506 844 q 621 742 592 786 q 650 625 650 697 q 649 507 650 560 q 645 411 647 454 q 641 333 643 368 q 639 264 639 297 q 644 193 639 225 q 658 131 649 161 q 682 69 668 101 q 714 0 696 38 l 229 0 q 144 24 178 0 q 90 86 111 49 q 61 169 69 124 q 51 254 53 214 m 731 254 q 729 392 729 325 q 728 526 729 458 q 722 666 726 593 q 704 824 717 739 q 774 813 747 824 q 816 788 800 803 q 840 754 832 772 q 855 721 847 736 q 872 695 863 706 q 900 685 882 685 q 938 698 922 685 q 953 733 953 711 q 938 785 953 765 q 901 817 924 804 q 853 840 879 829 q 804 864 826 850 q 767 899 782 878 q 751 953 751 919 q 746 1038 747 997 q 740 1119 744 1079 q 726 1200 736 1160 q 693 1281 715 1240 l 1158 1281 q 1188 1276 1174 1281 q 1215 1263 1203 1272 q 1234 1236 1226 1253 q 1242 1193 1242 1219 q 1243 1149 1242 1182 q 1247 1079 1244 1117 q 1250 1008 1249 1042 q 1251 958 1251 974 l 1192 958 q 1128 972 1150 958 q 1097 1004 1107 985 q 1081 1047 1086 1024 q 1070 1089 1076 1069 q 1050 1122 1064 1108 q 1006 1135 1036 1135 q 957 1115 976 1135 q 938 1067 938 1096 q 967 971 938 1007 q 1039 910 996 935 q 1133 865 1082 885 q 1228 815 1185 844 q 1300 742 1271 786 q 1329 625 1329 697 q 1328 507 1329 560 q 1324 411 1326 454 q 1320 333 1322 368 q 1318 264 1318 297 q 1323 193 1318 225 q 1338 131 1328 161 q 1361 69 1347 101 q 1393 0 1375 38 l 908 0 q 824 24 857 0 q 769 86 790 49 q 740 169 749 124 q 731 254 732 214 z "},"•":{"ha":497,"x_min":47,"x_max":499,"o":"m 499 389 q 358 376 415 389 q 260 364 301 364 q 162 381 201 364 q 99 424 122 397 q 67 483 76 450 q 57 550 57 517 q 61 627 57 593 q 71 690 65 661 q 81 745 76 719 q 85 796 85 771 q 76 856 85 825 q 47 926 68 888 q 263 905 183 926 q 383 848 342 883 q 435 766 424 813 q 446 668 446 719 q 440 579 446 624 q 435 499 435 535 q 453 433 435 465 q 499 389 472 401 z "},"·":{"ha":497,"x_min":47,"x_max":499,"o":"m 499 389 q 358 376 415 389 q 260 364 301 364 q 162 381 201 364 q 99 424 122 397 q 67 483 76 450 q 57 550 57 517 q 61 627 57 593 q 71 690 65 661 q 81 745 76 719 q 85 796 85 771 q 76 856 85 825 q 47 926 68 888 q 263 905 183 926 q 383 848 342 883 q 435 766 424 813 q 446 668 446 719 q 440 579 446 624 q 435 499 435 535 q 453 433 435 465 q 499 389 472 401 z "},"¡":{"ha":533,"x_min":-25,"x_max":551,"o":"m 65 624 q 158 635 113 631 q 236 639 204 639 q 335 626 296 639 q 397 590 374 614 q 428 533 419 567 q 438 458 438 500 q 426 353 438 410 q 415 229 415 296 q 426 151 415 192 q 456 72 438 111 q 500 -2 475 33 q 551 -67 525 -37 q 528 -69 540 -67 q 490 -74 515 -71 q 422 -78 465 -76 q 307 -81 379 -81 q 199 -65 242 -81 q 132 -26 157 -50 q 97 28 107 -3 q 88 89 88 58 q 95 165 88 125 q 113 248 103 204 q 130 338 122 292 q 138 429 138 383 q 122 527 138 478 q 65 624 106 576 m -25 1214 q 115 1226 58 1214 q 214 1239 172 1239 q 312 1222 272 1239 q 374 1179 351 1206 q 407 1119 397 1153 q 417 1053 417 1086 q 413 976 417 1010 q 403 913 408 942 q 393 858 397 883 q 389 807 389 832 q 397 747 389 778 q 426 676 406 715 q 211 698 290 676 q 91 755 132 719 q 39 837 50 790 q 28 935 28 883 q 33 1024 28 979 q 39 1104 39 1068 q 20 1169 39 1138 q -25 1214 1 1201 z "}," ":{"ha":278,"x_min":0,"x_max":0,"o":""},"-":{"ha":571,"x_min":56,"x_max":519,"o":"m 56 588 l 519 588 l 519 444 l 56 444 l 56 588 z "},"Ð":{"ha":813,"x_min":-37,"x_max":769,"o":"m -1 957 l 111 957 q 55 1120 92 1042 q -37 1276 18 1199 q 8 1279 -26 1276 q 89 1286 42 1282 q 192 1293 136 1290 q 304 1296 249 1296 q 480 1267 406 1296 q 606 1190 554 1239 q 689 1072 657 1140 q 739 925 721 1004 q 763 758 757 846 q 769 583 769 671 q 765 455 769 522 q 747 322 761 388 q 706 197 733 256 q 633 92 679 138 q 518 21 586 47 q 354 -6 450 -6 q 205 9 264 -6 q 112 51 146 24 q 64 119 78 79 q 50 207 50 158 q 63 327 50 261 q 90 467 75 393 q 117 621 104 540 q 129 786 129 701 q 128 821 129 804 q 126 856 128 838 l -1 856 l -1 957 m 314 1061 q 328 1015 324 1042 q 336 957 332 989 l 410 957 l 410 856 l 351 856 q 384 785 363 814 q 451 757 406 757 q 504 782 488 757 q 521 836 521 807 q 502 908 521 869 q 454 981 483 947 q 388 1038 425 1015 q 314 1061 351 1061 z "},"ð":{"ha":813,"x_min":-37,"x_max":769,"o":"m -1 957 l 111 957 q 55 1120 92 1042 q -37 1276 18 1199 q 8 1279 -26 1276 q 89 1286 42 1282 q 192 1293 136 1290 q 304 1296 249 1296 q 480 1267 406 1296 q 606 1190 554 1239 q 689 1072 657 1140 q 739 925 721 1004 q 763 758 757 846 q 769 583 769 671 q 765 455 769 522 q 747 322 761 388 q 706 197 733 256 q 633 92 679 138 q 518 21 586 47 q 354 -6 450 -6 q 205 9 264 -6 q 112 51 146 24 q 64 119 78 79 q 50 207 50 158 q 63 327 50 261 q 90 467 75 393 q 117 621 104 540 q 129 786 129 701 q 128 821 129 804 q 126 856 128 838 l -1 856 l -1 957 m 314 1061 q 328 1015 324 1042 q 336 957 332 989 l 410 957 l 410 856 l 351 856 q 384 785 363 814 q 451 757 406 757 q 504 782 488 757 q 521 836 521 807 q 502 908 521 869 q 454 981 483 947 q 388 1038 425 1015 q 314 1061 351 1061 z "},"Þ":{"ha":967,"x_min":-10,"x_max":935,"o":"m 492 965 q 685 932 603 965 q 824 844 768 899 q 907 721 879 790 q 935 581 935 651 q 911 475 935 531 q 838 373 888 419 q 715 295 789 326 q 539 264 640 264 q 494 264 515 264 q 454 265 474 264 q 535 130 488 194 q 636 3 582 65 q 586 1 621 3 q 506 -3 551 -1 q 407 -7 460 -6 q 303 -8 354 -8 q 110 48 171 -8 q 49 236 49 104 q 63 363 49 297 q 92 498 76 429 q 122 635 108 567 q 136 771 136 704 q 130 939 136 868 q 108 1066 124 1010 q 63 1170 92 1122 q -10 1269 35 1218 q 18 1274 1 1269 q 65 1283 35 1278 q 144 1292 96 1288 q 264 1296 192 1296 q 376 1285 332 1296 q 445 1253 419 1275 q 481 1197 471 1231 q 492 1115 492 1163 q 485 1040 492 1076 q 468 965 479 1003 l 492 965 m 508 842 q 523 799 518 825 q 531 744 528 772 q 540 686 535 715 q 558 633 546 657 q 590 595 569 610 q 643 581 610 581 q 694 601 679 581 q 710 647 710 622 q 692 709 710 675 q 645 772 674 743 q 581 822 617 801 q 508 842 544 842 z "},"þ":{"ha":967,"x_min":-10,"x_max":935,"o":"m 492 965 q 685 932 603 965 q 824 844 768 899 q 907 721 879 790 q 935 581 935 651 q 911 475 935 531 q 838 373 888 419 q 715 295 789 326 q 539 264 640 264 q 494 264 515 264 q 454 265 474 264 q 535 130 488 194 q 636 3 582 65 q 586 1 621 3 q 506 -3 551 -1 q 407 -7 460 -6 q 303 -8 354 -8 q 110 48 171 -8 q 49 236 49 104 q 63 363 49 297 q 92 498 76 429 q 122 635 108 567 q 136 771 136 704 q 130 939 136 868 q 108 1066 124 1010 q 63 1170 92 1122 q -10 1269 35 1218 q 18 1274 1 1269 q 65 1283 35 1278 q 144 1292 96 1288 q 264 1296 192 1296 q 376 1285 332 1296 q 445 1253 419 1275 q 481 1197 471 1231 q 492 1115 492 1163 q 485 1040 492 1076 q 468 965 479 1003 l 492 965 m 508 842 q 523 799 518 825 q 531 744 528 772 q 540 686 535 715 q 558 633 546 657 q 590 595 569 610 q 643 581 610 581 q 694 601 679 581 q 710 647 710 622 q 692 709 710 675 q 645 772 674 743 q 581 822 617 801 q 508 842 544 842 z "},"ﬁ":{"ha":1215,"x_min":3,"x_max":1238,"o":"m 53 332 q 65 463 53 394 q 92 600 78 532 q 119 733 107 668 q 131 850 131 797 q 124 969 131 917 q 103 1072 118 1022 q 64 1171 89 1121 q 3 1282 39 1221 l 453 1282 q 522 1269 497 1282 q 561 1234 547 1256 q 578 1186 575 1213 q 582 1133 582 1160 q 582 1094 582 1110 q 583 1067 582 1079 q 586 1044 585 1056 q 592 1017 588 1032 l 540 1017 q 475 1035 493 1017 q 447 1076 457 1054 q 424 1115 438 1097 q 374 1133 411 1133 q 331 1114 346 1133 q 315 1065 315 1094 q 327 1030 315 1040 q 356 1015 339 1019 q 394 1008 374 1011 q 431 997 414 1006 q 460 967 449 988 q 472 908 472 947 q 471 892 472 901 q 465 874 469 883 q 435 884 450 878 q 403 890 419 890 q 353 870 371 890 q 335 801 335 850 q 347 704 335 767 q 383 565 360 642 q 438 406 406 489 q 509 244 471 322 q 592 103 547 167 q 683 0 636 39 l 267 0 q 163 31 204 0 q 98 112 122 63 q 63 219 74 161 q 53 332 53 278 m 1238 3 q 1188 1 1222 3 q 1107 -3 1153 -1 q 1008 -7 1061 -6 q 904 -8 956 -8 q 711 48 772 -8 q 650 236 650 104 q 664 363 650 297 q 694 498 678 429 q 724 635 710 567 q 738 771 738 704 q 731 939 738 868 q 709 1066 725 1010 q 665 1170 693 1122 q 592 1269 636 1218 q 619 1274 603 1269 q 667 1283 636 1278 q 745 1292 697 1288 q 865 1296 793 1296 q 977 1285 933 1296 q 1047 1253 1021 1275 q 1083 1197 1072 1231 q 1093 1115 1093 1163 q 1077 997 1093 1054 q 1042 873 1061 939 q 1008 727 1024 807 q 992 540 992 647 q 1010 391 992 463 q 1063 253 1029 319 q 1141 124 1096 186 q 1238 3 1186 61 z "},"ﬂ":{"ha":1325,"x_min":3,"x_max":1322,"o":"m 53 332 q 65 463 53 394 q 92 600 78 532 q 119 733 107 668 q 131 850 131 797 q 124 969 131 917 q 103 1072 118 1022 q 64 1171 89 1121 q 3 1282 39 1221 l 453 1282 q 522 1269 497 1282 q 561 1234 547 1256 q 578 1186 575 1213 q 582 1133 582 1160 q 582 1094 582 1110 q 583 1067 582 1079 q 586 1044 585 1056 q 592 1017 588 1032 l 540 1017 q 475 1035 493 1017 q 447 1076 457 1054 q 424 1115 438 1097 q 374 1133 411 1133 q 331 1114 346 1133 q 315 1065 315 1094 q 327 1030 315 1040 q 356 1015 339 1019 q 394 1008 374 1011 q 431 997 414 1006 q 460 967 449 988 q 472 908 472 947 q 471 892 472 901 q 465 874 469 883 q 435 884 450 878 q 403 890 419 890 q 353 870 371 890 q 335 801 335 850 q 347 704 335 767 q 383 565 360 642 q 438 406 406 489 q 509 244 471 322 q 592 103 547 167 q 683 0 636 39 l 267 0 q 163 31 204 0 q 98 112 122 63 q 63 219 74 161 q 53 332 53 278 m 1076 967 q 1102 976 1092 975 q 1126 978 1113 978 q 1207 953 1178 978 q 1251 892 1236 929 q 1269 809 1265 854 q 1272 724 1272 764 q 1267 618 1272 669 q 1258 515 1263 567 q 1248 408 1253 463 q 1243 294 1243 354 q 1257 141 1243 213 q 1322 1 1271 69 q 1310 1 1319 1 q 1260 0 1301 0 q 1133 0 1219 0 q 892 0 1047 0 q 818 5 858 0 q 742 31 778 10 q 683 99 707 53 q 658 226 658 144 q 670 348 658 272 q 697 509 682 424 q 723 680 711 594 q 735 832 735 765 q 701 1074 735 963 q 579 1282 668 1186 q 731 1294 661 1289 q 883 1300 801 1300 q 1049 1146 1049 1300 q 1038 1082 1049 1119 q 1014 1003 1026 1044 q 990 919 1001 961 q 979 844 979 878 q 997 785 979 808 q 1058 763 1014 763 q 1108 788 1093 763 q 1122 847 1122 813 q 1109 917 1122 883 q 1076 967 1096 951 z "},"€":{"ha":751,"x_min":4,"x_max":756,"o":"m 4 851 l 93 851 q 104 967 100 910 q 108 1086 108 1025 q 97 1179 108 1129 q 63 1282 86 1229 l 508 1282 q 572 1269 546 1282 q 613 1236 597 1256 q 636 1194 629 1217 q 644 1154 643 1172 q 650 1097 647 1129 q 655 1032 653 1065 q 659 967 657 999 q 663 908 661 935 q 638 908 653 908 q 608 907 624 907 q 547 916 576 907 q 507 958 518 925 q 501 997 504 974 q 491 1042 499 1021 q 469 1080 483 1064 q 429 1096 456 1096 q 386 1077 403 1096 q 360 1026 369 1058 q 346 949 350 993 q 340 851 342 904 l 625 851 l 625 742 l 340 742 l 340 725 q 340 676 340 700 q 343 632 340 653 l 625 632 l 625 521 l 358 521 q 403 428 374 458 q 478 397 432 397 q 526 400 500 397 q 576 410 551 403 q 622 432 601 418 q 653 468 642 446 q 701 406 689 442 q 714 331 714 371 q 707 240 714 286 q 700 147 700 193 q 711 69 700 107 q 756 0 722 32 l 279 0 q 243 26 276 0 q 170 110 210 51 q 99 265 131 169 q 67 499 67 360 l 67 521 l 4 521 l 4 632 l 72 632 q 77 687 75 660 q 82 742 79 714 l 4 742 l 4 851 z "},"‚":{"ha":497,"x_min":54,"x_max":506,"o":"m 506 -208 q 365 -221 422 -208 q 267 -233 308 -233 q 169 -217 208 -233 q 106 -174 129 -200 q 74 -114 83 -147 q 64 -47 64 -81 q 71 42 64 1 q 85 121 78 83 q 100 194 93 158 q 107 271 107 231 q 96 366 107 315 q 54 482 85 417 q 269 460 190 482 q 390 403 349 439 q 442 322 431 368 q 453 224 453 275 q 448 167 453 196 q 438 108 443 138 q 427 49 432 79 q 422 -12 422 18 q 440 -110 422 -61 q 506 -208 457 -158 z "},"„":{"ha":949,"x_min":54,"x_max":957,"o":"m 506 -208 q 365 -221 422 -208 q 267 -233 308 -233 q 169 -217 208 -233 q 106 -174 129 -200 q 74 -114 83 -147 q 64 -47 64 -81 q 71 42 64 1 q 85 121 78 83 q 100 194 93 158 q 107 271 107 231 q 96 366 107 315 q 54 482 85 417 q 269 460 190 482 q 390 403 349 439 q 442 322 431 368 q 453 224 453 275 q 448 167 453 196 q 438 108 443 138 q 427 49 432 79 q 422 -12 422 18 q 440 -110 422 -61 q 506 -208 457 -158 m 957 -214 q 817 -226 874 -214 q 718 -239 760 -239 q 620 -222 660 -239 q 558 -179 581 -206 q 525 -119 535 -153 q 515 -53 515 -86 q 522 37 515 -4 q 537 115 529 78 q 551 189 544 153 q 558 265 558 225 q 547 360 558 310 q 506 476 536 411 q 721 455 642 476 q 841 398 800 433 q 893 316 882 363 q 904 218 904 269 q 899 161 904 190 q 889 103 894 132 q 878 43 883 74 q 874 -18 874 13 q 891 -115 874 -67 q 957 -214 908 -164 z "},"”":{"ha":949,"x_min":54,"x_max":957,"o":"m 506 671 q 365 658 422 671 q 267 646 308 646 q 169 663 208 646 q 106 706 129 679 q 74 765 83 732 q 64 832 64 799 q 71 922 64 881 q 85 1000 78 963 q 100 1074 93 1038 q 107 1150 107 1110 q 96 1245 107 1194 q 54 1361 85 1296 q 269 1340 190 1361 q 390 1283 349 1318 q 442 1201 431 1247 q 453 1103 453 1154 q 448 1046 453 1075 q 438 988 443 1017 q 427 928 432 958 q 422 867 422 897 q 440 769 422 818 q 506 671 457 721 m 957 665 q 817 653 874 665 q 718 640 760 640 q 620 657 660 640 q 558 700 581 674 q 525 760 535 726 q 515 826 515 793 q 522 916 515 875 q 537 994 529 957 q 551 1068 544 1032 q 558 1144 558 1104 q 547 1240 558 1189 q 506 1356 536 1290 q 721 1334 642 1356 q 841 1277 800 1313 q 893 1195 882 1242 q 904 1097 904 1149 q 899 1040 904 1069 q 889 982 894 1011 q 878 922 883 953 q 874 861 874 892 q 891 764 874 813 q 957 665 908 715 z "},"“":{"ha":949,"x_min":54,"x_max":957,"o":"m 506 674 q 365 661 422 674 q 267 649 308 649 q 169 665 208 649 q 106 708 129 682 q 74 768 83 735 q 64 835 64 801 q 71 924 64 883 q 85 1003 78 965 q 100 1076 93 1040 q 107 1153 107 1113 q 96 1248 107 1197 q 54 1364 85 1299 q 269 1342 190 1364 q 390 1285 349 1321 q 442 1203 431 1250 q 453 1106 453 1157 q 448 1049 453 1078 q 438 990 443 1019 q 427 931 432 961 q 422 869 422 900 q 440 772 422 821 q 506 674 457 724 m 957 668 q 817 656 874 668 q 718 643 760 643 q 620 660 660 643 q 558 703 581 676 q 525 763 535 729 q 515 829 515 796 q 522 919 515 878 q 537 997 529 960 q 551 1071 544 1035 q 558 1147 558 1107 q 547 1242 558 1192 q 506 1358 536 1293 q 721 1337 642 1358 q 841 1280 800 1315 q 893 1198 882 1244 q 904 1100 904 1151 q 899 1043 904 1072 q 889 985 894 1014 q 878 925 883 956 q 874 864 874 894 q 891 767 874 815 q 957 668 908 718 z "},"‘":{"ha":497,"x_min":54,"x_max":506,"o":"m 506 674 q 365 661 422 674 q 267 649 308 649 q 169 665 208 649 q 106 708 129 682 q 74 768 83 735 q 64 835 64 801 q 71 924 64 883 q 85 1003 78 965 q 100 1076 93 1040 q 107 1153 107 1113 q 96 1248 107 1197 q 54 1364 85 1299 q 269 1342 190 1364 q 390 1285 349 1321 q 442 1203 431 1250 q 453 1106 453 1157 q 448 1049 453 1078 q 438 990 443 1019 q 427 931 432 961 q 422 869 422 900 q 440 772 422 821 q 506 674 457 724 z "},"’":{"ha":497,"x_min":54,"x_max":506,"o":"m 506 674 q 365 661 422 674 q 267 649 308 649 q 169 665 208 649 q 106 708 129 682 q 74 768 83 735 q 64 835 64 801 q 71 924 64 883 q 85 1003 78 965 q 100 1076 93 1040 q 107 1153 107 1113 q 96 1248 107 1197 q 54 1364 85 1299 q 269 1342 190 1364 q 390 1285 349 1321 q 442 1203 431 1250 q 453 1106 453 1157 q 448 1049 453 1078 q 438 990 443 1019 q 427 931 432 961 q 422 869 422 900 q 440 772 422 821 q 506 674 457 724 z "},"'":{"ha":456,"x_min":19,"x_max":471,"o":"m 471 776 q 331 764 388 776 q 232 751 274 751 q 134 768 174 751 q 72 811 94 785 q 39 871 49 838 q 29 938 29 904 q 33 1015 29 981 q 43 1078 38 1049 q 53 1133 49 1107 q 57 1183 57 1158 q 49 1244 57 1213 q 19 1314 40 1275 q 235 1292 156 1314 q 355 1235 314 1271 q 407 1153 396 1200 q 418 1056 418 1107 q 413 967 418 1011 q 407 886 407 922 q 426 821 407 853 q 471 776 444 789 z "},"\"":{"ha":903,"x_min":19,"x_max":918,"o":"m 471 776 q 331 764 388 776 q 232 751 274 751 q 134 768 174 751 q 72 811 94 785 q 39 871 49 838 q 29 938 29 904 q 33 1015 29 981 q 43 1078 38 1049 q 53 1133 49 1107 q 57 1183 57 1158 q 49 1244 57 1213 q 19 1314 40 1275 q 235 1292 156 1314 q 355 1235 314 1271 q 407 1153 396 1200 q 418 1056 418 1107 q 413 967 418 1011 q 407 886 407 922 q 426 821 407 853 q 471 776 444 789 m 918 776 q 778 764 835 776 q 679 751 721 751 q 581 768 621 751 q 519 811 542 785 q 486 871 496 838 q 476 938 476 904 q 481 1015 476 981 q 490 1078 485 1049 q 500 1133 496 1107 q 504 1183 504 1158 q 496 1244 504 1213 q 467 1314 488 1275 q 682 1292 603 1314 q 802 1235 761 1271 q 854 1153 843 1200 q 865 1056 865 1107 q 860 967 865 1011 q 854 886 854 922 q 873 821 854 853 q 918 776 892 789 z "},"–":{"ha":724,"x_min":56,"x_max":672,"o":"m 56 588 l 672 588 l 672 444 l 56 444 l 56 588 z "},"—":{"ha":942,"x_min":56,"x_max":890,"o":"m 56 588 l 890 588 l 890 444 l 56 444 l 56 588 z "},"|":{"ha":246,"x_min":42,"x_max":204,"o":"m 204 -90 l 42 -90 l 42 1282 l 204 1282 l 204 -90 z "},"ˇ":{"ha":540,"x_min":36,"x_max":519,"o":"m 179 1611 l 283 1471 l 378 1589 l 519 1583 l 279 1296 l 36 1611 l 179 1611 z "},"ˆ":{"ha":540,"x_min":36,"x_max":506,"o":"m 363 1322 l 251 1457 l 178 1314 l 36 1319 l 249 1615 l 506 1322 l 363 1322 z "},"`":{"ha":304,"x_min":32,"x_max":268,"o":"m 154 1292 l 268 1044 l 196 1004 l 32 1231 l 154 1292 z "},"´":{"ha":304,"x_min":106,"x_max":342,"o":"m 342 1546 l 178 1319 l 106 1360 l 219 1607 l 342 1546 z "},"…":{"ha":1399,"x_min":54,"x_max":1407,"o":"m 506 1 q 365 -11 422 1 q 267 -24 308 -24 q 169 -7 208 -24 q 106 36 129 10 q 74 96 83 63 q 64 163 64 129 q 68 240 64 206 q 78 303 72 274 q 88 358 83 332 q 92 408 92 383 q 83 469 92 438 q 54 539 75 500 q 269 517 190 539 q 390 460 349 496 q 442 378 431 425 q 453 281 453 332 q 447 192 453 236 q 442 111 442 147 q 460 46 442 78 q 506 1 479 14 m 953 1 q 813 -11 869 1 q 714 -24 756 -24 q 616 -7 656 -24 q 553 36 576 10 q 521 96 531 63 q 511 163 511 129 q 515 240 511 206 q 525 303 519 274 q 535 358 531 332 q 539 408 539 383 q 531 469 539 438 q 501 539 522 500 q 717 517 638 539 q 837 460 796 496 q 889 378 878 425 q 900 281 900 332 q 894 192 900 236 q 889 111 889 147 q 908 46 889 78 q 953 1 926 14 m 1407 -1 q 1267 -14 1324 -1 q 1168 -26 1210 -26 q 1070 -10 1110 -26 q 1008 33 1031 7 q 975 93 985 60 q 965 160 965 126 q 969 237 965 203 q 979 300 974 271 q 989 355 985 329 q 993 406 993 381 q 985 466 993 435 q 956 536 976 497 q 1171 515 1092 536 q 1291 458 1250 493 q 1343 376 1332 422 q 1354 278 1354 329 q 1349 189 1354 233 q 1343 108 1343 144 q 1362 43 1343 75 q 1407 -1 1381 11 z "},"¨":{"ha":594,"x_min":19,"x_max":599,"o":"m 296 1353 q 210 1344 244 1353 q 150 1336 175 1336 q 90 1347 114 1336 q 52 1373 67 1357 q 31 1410 38 1389 q 25 1451 25 1431 q 34 1537 25 1504 q 43 1601 43 1569 q 19 1682 43 1636 q 151 1669 103 1682 q 225 1634 200 1656 q 257 1584 250 1613 q 264 1524 264 1556 q 260 1469 264 1496 q 257 1419 257 1442 q 269 1379 257 1399 q 296 1353 281 1360 m 599 1353 q 513 1344 547 1353 q 451 1336 478 1336 q 392 1347 415 1336 q 353 1373 368 1357 q 333 1410 339 1389 q 328 1451 328 1431 q 336 1537 328 1504 q 344 1601 344 1569 q 340 1640 344 1621 q 322 1682 335 1658 q 454 1669 406 1682 q 528 1634 503 1656 q 560 1584 553 1613 q 567 1524 567 1556 q 563 1469 567 1496 q 560 1419 560 1442 q 572 1379 560 1399 q 599 1353 583 1360 z "},"º":{"ha":538,"x_min":39,"x_max":519,"o":"m 39 814 q 46 901 39 858 q 62 986 53 943 q 78 1072 71 1029 q 85 1158 85 1114 q 78 1219 85 1194 q 63 1283 72 1244 q 102 1284 75 1283 q 158 1285 129 1285 q 213 1287 188 1286 q 249 1288 239 1288 q 353 1260 314 1288 q 414 1189 393 1232 q 442 1093 435 1146 q 449 990 449 1040 q 441 883 449 935 q 433 768 433 831 q 449 650 433 707 q 504 542 464 593 l 153 542 q 90 599 113 565 q 56 669 67 632 q 42 745 44 707 q 39 814 39 783 m 210 1085 q 211 1063 210 1076 q 217 1038 213 1050 q 228 1016 221 1025 q 249 1007 236 1007 q 269 1016 261 1007 q 279 1038 276 1025 q 283 1063 282 1050 q 283 1085 283 1076 q 283 1107 283 1093 q 279 1133 282 1121 q 269 1155 276 1146 q 249 1164 261 1164 q 226 1155 235 1164 q 215 1133 218 1146 q 210 1107 211 1121 q 210 1085 210 1093 m 97 421 l 492 421 l 519 278 l 125 278 l 97 421 z "},"#":{"ha":1489,"x_min":-19,"x_max":1471,"o":"m 42 233 q 58 381 42 318 q 94 503 75 443 q 131 628 114 563 q 147 783 147 694 q 138 892 147 832 q 109 1016 129 951 q 57 1146 89 1081 q -19 1271 25 1211 q 82 1286 25 1279 q 190 1293 139 1293 q 348 1242 282 1293 q 460 1115 414 1192 q 535 949 506 1039 q 585 783 565 860 q 619 656 606 707 q 646 606 632 606 q 676 628 667 606 q 686 689 686 650 q 676 808 686 739 q 642 956 667 878 q 573 1115 617 1033 q 461 1268 529 1196 q 587 1288 528 1279 q 704 1296 646 1296 q 799 1288 757 1296 q 870 1260 840 1281 q 916 1203 900 1239 q 932 1108 932 1167 q 926 1011 932 1057 q 914 915 921 965 q 901 803 907 865 q 896 657 896 742 q 901 485 896 569 q 922 317 907 400 q 965 156 938 235 q 1033 0 992 76 l 794 0 q 695 27 742 0 q 610 98 649 54 q 541 198 571 142 q 490 311 511 254 q 458 422 469 368 q 447 517 447 476 q 449 624 447 574 q 451 717 451 674 q 448 760 451 733 q 435 811 444 786 q 408 853 425 836 q 361 871 390 871 q 332 847 339 871 q 325 790 325 822 q 340 599 325 701 q 383 392 354 496 q 451 187 411 288 q 543 0 492 86 q 472 -2 506 0 q 406 -6 439 -4 q 337 -10 372 -8 q 260 -11 301 -11 q 92 52 142 -11 q 42 233 42 115 m 990 656 q 997 742 990 700 q 1013 828 1004 785 q 1029 913 1022 871 q 1036 1000 1036 956 q 1030 1061 1036 1036 q 1014 1125 1024 1086 q 1053 1126 1026 1125 q 1110 1127 1081 1126 q 1165 1128 1139 1128 q 1200 1129 1190 1129 q 1305 1101 1265 1129 q 1365 1031 1344 1074 q 1393 935 1386 988 q 1400 832 1400 882 q 1392 724 1400 776 q 1385 610 1385 672 q 1400 492 1385 549 q 1456 383 1415 435 l 1104 383 q 1041 440 1064 407 q 1007 511 1018 474 q 993 587 996 549 q 990 656 990 625 m 1161 926 q 1163 905 1161 918 q 1168 879 1164 892 q 1180 858 1172 867 q 1200 849 1188 849 q 1220 858 1213 849 q 1231 879 1228 867 q 1234 905 1233 892 q 1235 926 1235 918 q 1234 949 1235 935 q 1231 975 1233 963 q 1220 997 1228 988 q 1200 1006 1213 1006 q 1178 997 1186 1006 q 1166 975 1169 988 q 1162 949 1163 963 q 1161 926 1161 935 m 1049 263 l 1443 263 l 1471 119 l 1076 119 l 1049 263 z "},"˜":{"ha":542,"x_min":44,"x_max":504,"o":"m 504 1565 q 494 1460 504 1504 q 469 1387 485 1415 q 432 1344 453 1358 q 389 1331 411 1331 q 349 1337 369 1331 q 306 1351 329 1343 q 258 1366 283 1360 q 206 1372 233 1372 q 124 1365 167 1372 q 50 1335 82 1357 q 46 1362 47 1349 q 44 1389 44 1375 q 54 1464 44 1428 q 82 1527 64 1500 q 124 1570 100 1554 q 174 1586 147 1586 q 224 1575 197 1586 q 281 1551 251 1564 q 342 1528 310 1539 q 407 1517 374 1517 q 455 1527 428 1517 q 504 1565 482 1538 z "},"~":{"ha":667,"x_min":44,"x_max":625,"o":"m 625 1133 q 613 1016 625 1065 q 580 934 600 967 q 533 886 560 901 q 479 871 507 871 q 428 878 454 871 q 374 894 403 886 q 315 910 346 903 q 247 918 283 918 q 145 909 199 918 q 51 875 92 900 q 47 906 49 890 q 44 936 44 921 q 57 1020 44 981 q 92 1090 69 1060 q 144 1139 114 1121 q 207 1157 174 1157 q 271 1145 236 1157 q 343 1119 306 1133 q 421 1092 381 1104 q 503 1079 461 1079 q 563 1090 529 1079 q 625 1133 597 1101 z "},"^":{"ha":546,"x_min":1,"x_max":551,"o":"m 368 910 l 263 1029 l 182 901 l 1 901 l 260 1256 l 551 910 l 368 910 z "},"š":{"ha":707,"x_min":14,"x_max":714,"o":"m 196 1603 l 300 1463 l 394 1581 l 536 1575 l 296 1288 l 53 1603 l 196 1603 m 51 254 q 50 392 50 325 q 49 526 50 458 q 42 666 47 593 q 25 824 38 739 q 94 813 68 824 q 137 788 121 803 q 160 754 153 772 q 176 721 168 736 q 193 695 183 706 q 221 685 203 685 q 258 698 243 685 q 274 733 274 711 q 259 785 274 765 q 222 817 244 804 q 174 840 200 829 q 125 864 147 850 q 88 899 103 878 q 72 953 72 919 q 67 1038 68 997 q 61 1119 65 1079 q 47 1200 57 1160 q 14 1281 36 1240 l 479 1281 q 509 1276 494 1281 q 535 1263 524 1272 q 555 1236 547 1253 q 563 1193 563 1219 q 564 1149 563 1182 q 567 1079 565 1117 q 571 1008 569 1042 q 572 958 572 974 l 513 958 q 449 972 471 958 q 417 1004 428 985 q 402 1047 407 1024 q 391 1089 397 1069 q 371 1122 385 1108 q 326 1135 357 1135 q 278 1115 297 1135 q 258 1067 258 1096 q 288 971 258 1007 q 360 910 317 935 q 454 865 403 885 q 549 815 506 844 q 621 742 592 786 q 650 625 650 697 q 649 507 650 560 q 645 411 647 454 q 641 333 643 368 q 639 264 639 297 q 644 193 639 225 q 658 131 649 161 q 682 69 668 101 q 714 0 696 38 l 229 0 q 144 24 178 0 q 90 86 111 49 q 61 169 69 124 q 51 254 53 214 z "},"ž":{"ha":732,"x_min":38,"x_max":735,"o":"m 681 824 q 642 614 656 713 q 629 425 629 515 q 655 197 629 301 q 735 0 681 92 l 140 0 q 61 256 85 146 q 38 453 38 367 q 68 631 38 560 q 144 751 99 701 q 242 834 189 800 q 341 901 296 868 q 417 972 386 933 q 447 1067 447 1010 q 426 1115 447 1096 q 365 1135 406 1135 q 321 1117 336 1135 q 297 1074 306 1100 q 281 1019 288 1049 q 263 963 275 989 q 228 920 250 938 q 164 903 206 903 l 104 903 q 131 999 119 951 q 142 1097 142 1047 q 131 1188 142 1142 q 93 1282 121 1233 l 692 1282 q 659 1201 669 1242 q 644 1121 649 1161 q 639 1039 640 1081 q 633 953 638 997 q 618 899 633 919 q 581 864 603 878 q 532 840 558 850 q 483 817 506 829 q 447 785 461 804 q 432 733 432 765 q 447 698 432 711 q 485 685 463 685 q 513 695 503 685 q 530 721 522 706 q 545 754 538 736 q 569 788 553 772 q 611 813 585 803 q 681 824 638 824 m 297 1604 l 401 1464 l 496 1582 l 638 1576 l 397 1289 l 154 1604 l 297 1604 z "},"Ž":{"ha":732,"x_min":38,"x_max":735,"o":"m 681 824 q 642 614 656 713 q 629 425 629 515 q 655 197 629 301 q 735 0 681 92 l 140 0 q 61 256 85 146 q 38 453 38 367 q 68 631 38 560 q 144 751 99 701 q 242 834 189 800 q 341 901 296 868 q 417 972 386 933 q 447 1067 447 1010 q 426 1115 447 1096 q 365 1135 406 1135 q 321 1117 336 1135 q 297 1074 306 1100 q 281 1019 288 1049 q 263 963 275 989 q 228 920 250 938 q 164 903 206 903 l 104 903 q 131 999 119 951 q 142 1097 142 1047 q 131 1188 142 1142 q 93 1282 121 1233 l 692 1282 q 659 1201 669 1242 q 644 1121 649 1161 q 639 1039 640 1081 q 633 953 638 997 q 618 899 633 919 q 581 864 603 878 q 532 840 558 850 q 483 817 506 829 q 447 785 461 804 q 432 733 432 765 q 447 698 432 711 q 485 685 463 685 q 513 695 503 685 q 530 721 522 706 q 545 754 538 736 q 569 788 553 772 q 611 813 585 803 q 681 824 638 824 m 297 1604 l 401 1464 l 496 1582 l 638 1576 l 397 1289 l 154 1604 l 297 1604 z "},"Š":{"ha":707,"x_min":14,"x_max":714,"o":"m 196 1603 l 300 1463 l 394 1581 l 536 1575 l 296 1288 l 53 1603 l 196 1603 m 51 254 q 50 392 50 325 q 49 526 50 458 q 42 666 47 593 q 25 824 38 739 q 94 813 68 824 q 137 788 121 803 q 160 754 153 772 q 176 721 168 736 q 193 695 183 706 q 221 685 203 685 q 258 698 243 685 q 274 733 274 711 q 259 785 274 765 q 222 817 244 804 q 174 840 200 829 q 125 864 147 850 q 88 899 103 878 q 72 953 72 919 q 67 1038 68 997 q 61 1119 65 1079 q 47 1200 57 1160 q 14 1281 36 1240 l 479 1281 q 509 1276 494 1281 q 535 1263 524 1272 q 555 1236 547 1253 q 563 1193 563 1219 q 564 1149 563 1182 q 567 1079 565 1117 q 571 1008 569 1042 q 572 958 572 974 l 513 958 q 449 972 471 958 q 417 1004 428 985 q 402 1047 407 1024 q 391 1089 397 1069 q 371 1122 385 1108 q 326 1135 357 1135 q 278 1115 297 1135 q 258 1067 258 1096 q 288 971 258 1007 q 360 910 317 935 q 454 865 403 885 q 549 815 506 844 q 621 742 592 786 q 650 625 650 697 q 649 507 650 560 q 645 411 647 454 q 641 333 643 368 q 639 264 639 297 q 644 193 639 225 q 658 131 649 161 q 682 69 668 101 q 714 0 696 38 l 229 0 q 144 24 178 0 q 90 86 111 49 q 61 169 69 124 q 51 254 53 214 z "},"ÿ":{"ha":653,"x_min":-54,"x_max":668,"o":"m 43 265 q 66 406 43 339 q 116 540 89 474 q 166 676 143 607 q 189 821 189 744 q 169 942 189 876 q 115 1069 149 1007 q 37 1184 81 1131 q -54 1271 -7 1238 q -2 1277 -25 1275 q 41 1281 21 1279 q 81 1282 61 1282 q 122 1282 100 1282 q 208 1262 172 1282 q 265 1204 243 1242 q 298 1114 288 1167 q 308 997 308 1061 q 308 978 308 990 q 307 929 308 967 q 338 1000 326 971 q 355 1051 349 1029 q 363 1088 361 1072 q 365 1121 365 1104 q 326 1282 365 1206 q 400 1294 365 1290 q 467 1297 435 1297 q 527 1294 500 1297 q 572 1280 554 1292 q 600 1246 590 1268 q 610 1183 610 1224 q 585 1073 610 1131 q 531 947 561 1015 q 477 794 501 878 q 453 608 453 711 q 463 482 453 549 q 499 340 474 415 q 565 179 524 264 q 668 0 607 94 l 229 0 q 88 100 132 32 q 43 265 43 168 m 283 1353 q 197 1344 232 1353 q 138 1336 163 1336 q 78 1347 101 1336 q 40 1373 54 1357 q 19 1410 25 1389 q 13 1451 13 1431 q 22 1537 13 1504 q 31 1601 31 1569 q 7 1682 31 1636 q 139 1669 90 1682 q 213 1634 188 1656 q 244 1584 238 1613 q 251 1524 251 1556 q 248 1469 251 1496 q 244 1419 244 1442 q 256 1379 244 1399 q 283 1353 268 1360 m 586 1353 q 500 1344 535 1353 q 439 1336 465 1336 q 379 1347 403 1336 q 341 1373 356 1357 q 321 1410 326 1389 q 315 1451 315 1431 q 324 1537 315 1504 q 332 1601 332 1569 q 327 1640 332 1621 q 310 1682 322 1658 q 442 1669 393 1682 q 515 1634 490 1656 q 547 1584 540 1613 q 554 1524 554 1556 q 551 1469 554 1496 q 547 1419 547 1442 q 559 1379 547 1399 q 586 1353 571 1360 z "},"ý":{"ha":653,"x_min":-54,"x_max":668,"o":"m 43 265 q 66 406 43 339 q 116 540 89 474 q 166 676 143 607 q 189 821 189 744 q 169 942 189 876 q 115 1069 149 1007 q 37 1184 81 1131 q -54 1271 -7 1238 q -2 1277 -25 1275 q 41 1281 21 1279 q 81 1282 61 1282 q 122 1282 100 1282 q 208 1262 172 1282 q 265 1204 243 1242 q 298 1114 288 1167 q 308 997 308 1061 q 308 978 308 990 q 307 929 308 967 q 338 1000 326 971 q 355 1051 349 1029 q 363 1088 361 1072 q 365 1121 365 1104 q 326 1282 365 1206 q 400 1294 365 1290 q 467 1297 435 1297 q 527 1294 500 1297 q 572 1280 554 1292 q 600 1246 590 1268 q 610 1183 610 1224 q 585 1073 610 1131 q 531 947 561 1015 q 477 794 501 878 q 453 608 453 711 q 463 482 453 549 q 499 340 474 415 q 565 179 524 264 q 668 0 607 94 l 229 0 q 88 100 132 32 q 43 265 43 168 m 460 1546 l 296 1319 l 224 1360 l 338 1607 l 460 1546 z "},"Ý":{"ha":653,"x_min":-54,"x_max":668,"o":"m 43 265 q 66 406 43 339 q 116 540 89 474 q 166 676 143 607 q 189 821 189 744 q 169 942 189 876 q 115 1069 149 1007 q 37 1184 81 1131 q -54 1271 -7 1238 q -2 1277 -25 1275 q 41 1281 21 1279 q 81 1282 61 1282 q 122 1282 100 1282 q 208 1262 172 1282 q 265 1204 243 1242 q 298 1114 288 1167 q 308 997 308 1061 q 308 978 308 990 q 307 929 308 967 q 338 1000 326 971 q 355 1051 349 1029 q 363 1088 361 1072 q 365 1121 365 1104 q 326 1282 365 1206 q 400 1294 365 1290 q 467 1297 435 1297 q 527 1294 500 1297 q 572 1280 554 1292 q 600 1246 590 1268 q 610 1183 610 1224 q 585 1073 610 1131 q 531 947 561 1015 q 477 794 501 878 q 453 608 453 711 q 463 482 453 549 q 499 340 474 415 q 565 179 524 264 q 668 0 607 94 l 229 0 q 88 100 132 32 q 43 265 43 168 m 460 1546 l 296 1319 l 224 1360 l 338 1607 l 460 1546 z "},"Ÿ":{"ha":653,"x_min":-54,"x_max":668,"o":"m 43 265 q 66 406 43 339 q 116 540 89 474 q 166 676 143 607 q 189 821 189 744 q 169 942 189 876 q 115 1069 149 1007 q 37 1184 81 1131 q -54 1271 -7 1238 q -2 1277 -25 1275 q 41 1281 21 1279 q 81 1282 61 1282 q 122 1282 100 1282 q 208 1262 172 1282 q 265 1204 243 1242 q 298 1114 288 1167 q 308 997 308 1061 q 308 978 308 990 q 307 929 308 967 q 338 1000 326 971 q 355 1051 349 1029 q 363 1088 361 1072 q 365 1121 365 1104 q 326 1282 365 1206 q 400 1294 365 1290 q 467 1297 435 1297 q 527 1294 500 1297 q 572 1280 554 1292 q 600 1246 590 1268 q 610 1183 610 1224 q 585 1073 610 1131 q 531 947 561 1015 q 477 794 501 878 q 453 608 453 711 q 463 482 453 549 q 499 340 474 415 q 565 179 524 264 q 668 0 607 94 l 229 0 q 88 100 132 32 q 43 265 43 168 m 283 1353 q 197 1344 232 1353 q 138 1336 163 1336 q 78 1347 101 1336 q 40 1373 54 1357 q 19 1410 25 1389 q 13 1451 13 1431 q 22 1537 13 1504 q 31 1601 31 1569 q 7 1682 31 1636 q 139 1669 90 1682 q 213 1634 188 1656 q 244 1584 238 1613 q 251 1524 251 1556 q 248 1469 251 1496 q 244 1419 244 1442 q 256 1379 244 1399 q 283 1353 268 1360 m 586 1353 q 500 1344 535 1353 q 439 1336 465 1336 q 379 1347 403 1336 q 341 1373 356 1357 q 321 1410 326 1389 q 315 1451 315 1431 q 324 1537 315 1504 q 332 1601 332 1569 q 327 1640 332 1621 q 310 1682 322 1658 q 442 1669 393 1682 q 515 1634 490 1656 q 547 1584 540 1613 q 554 1524 554 1556 q 551 1469 554 1496 q 547 1419 547 1442 q 559 1379 547 1399 q 586 1353 571 1360 z "},"/":{"ha":899,"x_min":-1,"x_max":913,"o":"m 256 -3 q 228 -5 247 -3 q 182 -9 208 -7 q 126 -12 156 -11 q 68 -14 96 -14 q -1 40 -1 -14 q 19 117 -1 71 q 79 232 39 163 q 164 360 115 293 q 263 495 213 426 q 364 633 314 564 q 453 768 414 701 q 551 937 511 865 q 616 1065 590 1008 q 656 1170 642 1122 q 675 1269 669 1218 q 692 1274 681 1269 q 724 1283 704 1278 q 772 1292 743 1288 q 840 1296 801 1296 q 913 1251 913 1296 q 897 1195 913 1229 q 854 1114 882 1161 q 774 995 817 1053 q 681 872 731 938 q 574 725 631 806 q 451 538 517 644 q 314 249 357 382 q 256 -3 271 115 z "},"Ø":{"ha":828,"x_min":39,"x_max":842,"o":"m 39 469 q 51 621 39 547 q 78 768 64 694 q 106 915 93 842 q 118 1065 118 989 q 115 1121 118 1096 q 107 1170 113 1146 q 94 1220 101 1194 q 79 1279 88 1246 q 148 1282 101 1281 q 245 1285 194 1283 q 340 1287 296 1286 q 401 1288 385 1288 q 475 1281 442 1288 q 538 1263 508 1274 l 558 1328 l 685 1328 l 640 1186 q 694 1099 674 1147 q 726 996 714 1050 q 742 885 738 942 q 746 774 746 828 q 742 681 746 726 q 733 588 738 635 q 724 493 728 542 q 719 392 719 444 q 745 188 719 288 q 842 0 771 89 l 275 0 l 251 -79 l 129 -79 l 168 49 q 97 147 122 93 q 58 256 71 200 q 42 368 44 313 q 39 469 39 424 m 333 938 q 336 901 333 924 q 346 856 339 878 q 366 819 353 835 q 401 803 379 803 q 435 819 424 803 q 453 856 447 835 q 459 901 458 878 q 460 938 460 924 q 459 976 460 953 q 453 1022 458 1000 q 435 1059 447 1043 q 401 1075 424 1075 q 363 1059 376 1075 q 342 1022 349 1043 q 335 976 336 1000 q 333 938 333 953 z "},"ø":{"ha":828,"x_min":39,"x_max":842,"o":"m 39 469 q 51 621 39 547 q 78 768 64 694 q 106 915 93 842 q 118 1065 118 989 q 115 1121 118 1096 q 107 1170 113 1146 q 94 1220 101 1194 q 79 1279 88 1246 q 148 1282 101 1281 q 245 1285 194 1283 q 340 1287 296 1286 q 401 1288 385 1288 q 475 1281 442 1288 q 538 1263 508 1274 l 558 1328 l 685 1328 l 640 1186 q 694 1099 674 1147 q 726 996 714 1050 q 742 885 738 942 q 746 774 746 828 q 742 681 746 726 q 733 588 738 635 q 724 493 728 542 q 719 392 719 444 q 745 188 719 288 q 842 0 771 89 l 275 0 l 251 -79 l 129 -79 l 168 49 q 97 147 122 93 q 58 256 71 200 q 42 368 44 313 q 39 469 39 424 m 333 938 q 336 901 333 924 q 346 856 339 878 q 366 819 353 835 q 401 803 379 803 q 435 819 424 803 q 453 856 447 835 q 459 901 458 878 q 460 938 460 924 q 459 976 460 953 q 453 1022 458 1000 q 435 1059 447 1043 q 401 1075 424 1075 q 363 1059 376 1075 q 342 1022 349 1043 q 335 976 336 1000 q 333 938 333 953 z "},"˚":{"ha":538,"x_min":108,"x_max":449,"o":"m 108 1431 q 114 1464 108 1449 q 126 1495 119 1479 q 137 1529 132 1511 q 142 1569 142 1547 q 137 1595 142 1585 q 125 1622 132 1606 l 261 1622 q 338 1611 310 1622 q 383 1582 367 1600 q 403 1543 399 1564 q 408 1501 408 1522 q 403 1458 408 1479 q 397 1411 397 1436 q 408 1364 397 1388 q 449 1319 418 1340 l 192 1319 q 146 1342 163 1329 q 121 1371 129 1356 q 110 1402 113 1386 q 108 1431 108 1418 m 221 1458 q 224 1434 221 1447 q 243 1413 228 1421 l 313 1413 q 301 1431 304 1421 q 299 1451 299 1440 l 301 1489 q 295 1524 301 1507 q 261 1540 289 1540 l 225 1539 q 228 1528 228 1532 q 229 1518 229 1525 q 225 1488 229 1503 q 221 1458 221 1474 z "},"Å":{"ha":986,"x_min":40,"x_max":999,"o":"m 40 218 q 65 406 43 313 q 111 590 86 499 q 156 773 136 682 q 176 957 176 864 q 153 1125 176 1043 q 69 1285 129 1207 q 158 1279 114 1285 q 256 1274 203 1274 q 327 1277 285 1274 q 417 1285 369 1281 q 512 1294 464 1290 q 601 1297 560 1297 q 705 1278 663 1297 q 774 1227 747 1260 q 814 1150 801 1194 q 826 1054 826 1106 q 824 976 826 1010 q 818 899 821 942 q 813 797 815 857 q 810 640 810 736 q 826 431 810 519 q 868 270 842 342 q 928 135 894 199 q 999 0 963 71 l 765 0 q 660 28 707 8 q 579 84 613 49 q 528 172 546 119 q 510 297 510 224 q 520 438 510 374 q 544 553 531 501 q 567 642 557 604 q 578 707 578 681 q 567 757 578 738 q 519 776 557 776 q 450 747 475 776 q 413 672 425 717 q 397 578 400 628 q 393 488 393 528 q 401 356 393 417 q 424 237 408 294 q 465 122 440 179 q 522 0 489 64 l 158 0 q 102 32 125 10 q 66 84 79 54 q 47 149 53 114 q 40 218 40 183 m 461 990 q 501 957 472 965 q 557 949 529 949 l 572 949 q 560 1028 565 990 q 545 1095 556 1067 q 513 1140 535 1124 q 451 1157 492 1157 l 422 1157 q 433 1113 426 1139 q 445 1063 439 1088 q 456 1017 451 1038 q 461 990 461 997 m 289 1426 q 294 1460 289 1444 q 306 1491 300 1475 q 317 1525 313 1507 q 322 1565 322 1543 q 317 1591 322 1581 q 306 1618 313 1601 l 442 1618 q 519 1607 490 1618 q 563 1578 547 1596 q 584 1539 579 1560 q 589 1497 589 1518 q 583 1453 589 1475 q 578 1407 578 1432 q 585 1373 578 1383 q 617 1342 592 1363 q 512 1325 561 1336 q 401 1314 463 1314 q 346 1326 368 1314 q 311 1355 324 1338 q 294 1392 299 1372 q 289 1426 289 1411 m 401 1454 q 405 1430 401 1443 q 424 1408 408 1417 l 493 1408 q 482 1426 485 1417 q 479 1447 479 1436 l 482 1485 q 476 1519 482 1503 q 442 1536 469 1536 l 406 1535 q 409 1524 408 1528 q 410 1514 410 1521 q 406 1484 410 1499 q 401 1454 401 1469 z "},"å":{"ha":986,"x_min":40,"x_max":999,"o":"m 40 218 q 65 406 43 313 q 111 590 86 499 q 156 773 136 682 q 176 957 176 864 q 153 1125 176 1043 q 69 1285 129 1207 q 158 1279 114 1285 q 256 1274 203 1274 q 327 1277 285 1274 q 417 1285 369 1281 q 512 1294 464 1290 q 601 1297 560 1297 q 705 1278 663 1297 q 774 1227 747 1260 q 814 1150 801 1194 q 826 1054 826 1106 q 824 976 826 1010 q 818 899 821 942 q 813 797 815 857 q 810 640 810 736 q 826 431 810 519 q 868 270 842 342 q 928 135 894 199 q 999 0 963 71 l 765 0 q 660 28 707 8 q 579 84 613 49 q 528 172 546 119 q 510 297 510 224 q 520 438 510 374 q 544 553 531 501 q 567 642 557 604 q 578 707 578 681 q 567 757 578 738 q 519 776 557 776 q 450 747 475 776 q 413 672 425 717 q 397 578 400 628 q 393 488 393 528 q 401 356 393 417 q 424 237 408 294 q 465 122 440 179 q 522 0 489 64 l 158 0 q 102 32 125 10 q 66 84 79 54 q 47 149 53 114 q 40 218 40 183 m 461 990 q 501 957 472 965 q 557 949 529 949 l 572 949 q 560 1028 565 990 q 545 1095 556 1067 q 513 1140 535 1124 q 451 1157 492 1157 l 422 1157 q 433 1113 426 1139 q 445 1063 439 1088 q 456 1017 451 1038 q 461 990 461 997 m 289 1426 q 294 1460 289 1444 q 306 1491 300 1475 q 317 1525 313 1507 q 322 1565 322 1543 q 317 1591 322 1581 q 306 1618 313 1601 l 442 1618 q 519 1607 490 1618 q 563 1578 547 1596 q 584 1539 579 1560 q 589 1497 589 1518 q 583 1453 589 1475 q 578 1407 578 1432 q 585 1373 578 1383 q 617 1342 592 1363 q 512 1325 561 1336 q 401 1314 463 1314 q 346 1326 368 1314 q 311 1355 324 1338 q 294 1392 299 1372 q 289 1426 289 1411 m 401 1454 q 405 1430 401 1443 q 424 1408 408 1417 l 493 1408 q 482 1426 485 1417 q 479 1447 479 1436 l 482 1485 q 476 1519 482 1503 q 442 1536 469 1536 l 406 1535 q 409 1524 408 1528 q 410 1514 410 1521 q 406 1484 410 1499 q 401 1454 401 1469 z "},"¸":{"ha":497,"x_min":114,"x_max":381,"o":"m 363 -251 q 276 -260 313 -251 q 214 -268 239 -268 q 135 -242 157 -268 q 114 -182 114 -217 q 118 -144 114 -164 q 137 -83 126 -110 q 156 -33 147 -56 q 170 11 164 -10 q 176 56 176 32 q 175 79 176 67 q 169 104 174 92 q 274 96 233 104 q 339 72 315 88 q 372 36 363 57 q 381 -8 381 15 q 374 -58 381 -32 q 360 -109 368 -83 q 345 -158 351 -135 q 339 -197 339 -181 q 345 -230 339 -215 q 363 -251 351 -244 z "},"ñ":{"ha":1025,"x_min":-19,"x_max":1033,"o":"m 42 233 q 58 381 42 318 q 94 503 75 443 q 131 628 114 563 q 147 783 147 694 q 138 892 147 832 q 109 1016 129 951 q 57 1146 89 1081 q -19 1271 25 1211 q 82 1286 25 1279 q 190 1293 139 1293 q 348 1242 282 1293 q 460 1115 414 1192 q 535 949 506 1039 q 585 783 565 860 q 619 656 606 707 q 646 606 632 606 q 676 628 667 606 q 686 689 686 650 q 676 808 686 739 q 642 956 667 878 q 573 1115 617 1033 q 461 1268 529 1196 q 587 1288 528 1279 q 704 1296 646 1296 q 799 1288 757 1296 q 870 1260 840 1281 q 916 1203 900 1239 q 932 1108 932 1167 q 926 1011 932 1057 q 914 915 921 965 q 901 803 907 865 q 896 657 896 742 q 901 485 896 569 q 922 317 907 400 q 965 156 938 235 q 1033 0 992 76 l 794 0 q 695 27 742 0 q 610 98 649 54 q 541 198 571 142 q 490 311 511 254 q 458 422 469 368 q 447 517 447 476 q 449 624 447 574 q 451 717 451 674 q 448 760 451 733 q 435 811 444 786 q 408 853 425 836 q 361 871 390 871 q 332 847 339 871 q 325 790 325 822 q 340 599 325 701 q 383 392 354 496 q 451 187 411 288 q 543 0 492 86 q 472 -2 506 0 q 406 -6 439 -4 q 337 -10 372 -8 q 260 -11 301 -11 q 92 52 142 -11 q 42 233 42 115 m 719 1565 q 710 1460 719 1504 q 684 1387 700 1415 q 647 1344 668 1358 q 604 1331 626 1331 q 565 1337 585 1331 q 522 1351 544 1343 q 474 1366 499 1360 q 421 1372 449 1372 q 340 1365 382 1372 q 265 1335 297 1357 q 261 1362 263 1349 q 260 1389 260 1375 q 269 1464 260 1428 q 297 1527 279 1500 q 339 1570 315 1554 q 389 1586 363 1586 q 440 1575 413 1586 q 496 1551 467 1564 q 557 1528 525 1539 q 622 1517 589 1517 q 670 1527 643 1517 q 719 1565 697 1538 z "},"ç":{"ha":721,"x_min":14,"x_max":707,"o":"m 500 -187 q 437 -193 464 -187 q 390 -199 410 -199 q 331 -180 347 -199 q 315 -136 315 -161 q 316 -123 315 -129 q 318 -110 317 -117 q 338 -47 326 -72 q 357 0 350 -22 l 231 0 q 194 26 228 0 q 122 110 161 51 q 50 265 82 169 q 18 499 18 360 q 24 646 18 574 q 39 791 31 718 q 53 938 47 864 q 60 1086 60 1011 q 49 1179 60 1129 q 14 1282 38 1229 l 460 1282 q 523 1269 497 1282 q 565 1236 549 1256 q 588 1194 581 1217 q 596 1154 594 1172 q 601 1097 599 1129 q 606 1032 604 1065 q 610 967 608 999 q 614 908 613 935 q 590 908 604 908 q 560 907 575 907 q 499 916 528 907 q 458 958 469 925 q 453 997 456 974 q 442 1042 450 1021 q 421 1080 435 1064 q 381 1096 407 1096 q 329 1076 347 1096 q 303 1029 311 1057 q 293 972 294 1001 q 292 919 292 942 q 299 855 292 886 q 324 799 307 824 q 366 760 340 775 q 429 744 392 744 q 477 747 451 744 q 528 758 503 750 q 573 779 553 765 q 604 815 593 793 q 626 791 618 814 q 638 739 633 768 q 642 683 642 710 q 643 650 643 657 q 640 573 643 618 q 634 478 638 528 q 628 378 631 428 q 625 283 625 328 q 643 135 625 201 q 707 0 661 68 l 514 0 l 514 -10 q 509 -46 514 -26 q 499 -83 504 -65 q 488 -118 493 -101 q 483 -147 483 -135 q 500 -187 483 -175 z "},"Ç":{"ha":721,"x_min":14,"x_max":707,"o":"m 500 -187 q 437 -193 464 -187 q 390 -199 410 -199 q 331 -180 347 -199 q 315 -136 315 -161 q 316 -123 315 -129 q 318 -110 317 -117 q 338 -47 326 -72 q 357 0 350 -22 l 231 0 q 194 26 228 0 q 122 110 161 51 q 50 265 82 169 q 18 499 18 360 q 24 646 18 574 q 39 791 31 718 q 53 938 47 864 q 60 1086 60 1011 q 49 1179 60 1129 q 14 1282 38 1229 l 460 1282 q 523 1269 497 1282 q 565 1236 549 1256 q 588 1194 581 1217 q 596 1154 594 1172 q 601 1097 599 1129 q 606 1032 604 1065 q 610 967 608 999 q 614 908 613 935 q 590 908 604 908 q 560 907 575 907 q 499 916 528 907 q 458 958 469 925 q 453 997 456 974 q 442 1042 450 1021 q 421 1080 435 1064 q 381 1096 407 1096 q 329 1076 347 1096 q 303 1029 311 1057 q 293 972 294 1001 q 292 919 292 942 q 299 855 292 886 q 324 799 307 824 q 366 760 340 775 q 429 744 392 744 q 477 747 451 744 q 528 758 503 750 q 573 779 553 765 q 604 815 593 793 q 626 791 618 814 q 638 739 633 768 q 642 683 642 710 q 643 650 643 657 q 640 573 643 618 q 634 478 638 528 q 628 378 631 428 q 625 283 625 328 q 643 135 625 201 q 707 0 661 68 l 514 0 l 514 -10 q 509 -46 514 -26 q 499 -83 504 -65 q 488 -118 493 -101 q 483 -147 483 -135 q 500 -187 483 -175 z "},"%":{"ha":1086,"x_min":38,"x_max":1090,"o":"m 625 275 q 632 362 625 319 q 648 447 639 404 q 664 533 657 490 q 671 619 671 575 q 667 664 671 644 q 658 706 664 683 q 605 626 632 668 q 550 538 578 585 q 413 249 456 382 q 354 -3 369 115 q 326 -5 346 -3 q 281 -9 307 -7 q 224 -12 254 -11 q 167 -14 194 -14 q 97 40 97 -14 q 117 117 97 71 q 178 232 138 163 q 278 382 221 304 q 396 542 336 460 l 151 542 q 88 599 111 565 q 54 669 65 632 q 40 745 43 707 q 38 814 38 783 q 44 901 38 858 q 60 986 51 943 q 76 1072 69 1029 q 83 1158 83 1114 q 77 1219 83 1194 q 61 1283 71 1244 q 101 1284 74 1283 q 157 1285 128 1285 q 212 1287 186 1286 q 247 1288 238 1288 q 352 1260 313 1288 q 413 1189 392 1232 q 440 1093 433 1146 q 447 990 447 1040 q 440 883 447 935 q 432 768 432 831 q 437 694 432 731 q 456 624 442 658 q 506 696 482 660 q 551 768 529 732 q 649 937 610 865 q 715 1065 689 1008 q 754 1170 740 1122 q 774 1269 768 1218 q 791 1274 779 1269 q 822 1283 803 1278 q 871 1292 842 1288 q 939 1296 900 1296 q 1011 1251 1011 1296 q 996 1195 1011 1229 q 953 1114 981 1161 q 897 1028 926 1071 q 833 942 867 986 q 763 851 800 899 q 686 746 726 803 q 728 747 706 746 q 772 748 751 747 q 810 749 793 749 q 835 749 826 749 q 940 721 900 749 q 1000 650 979 693 q 1028 554 1021 607 q 1035 451 1035 501 q 1027 344 1035 396 q 1019 229 1019 292 q 1035 111 1019 168 q 1090 3 1050 54 l 739 3 q 676 60 699 26 q 642 131 653 93 q 628 206 631 168 q 625 275 625 244 m 796 546 q 797 524 796 538 q 803 499 799 511 q 815 477 807 486 q 835 468 822 468 q 855 477 847 468 q 865 499 863 486 q 869 524 868 511 q 869 546 869 538 q 869 568 869 554 q 865 594 868 582 q 855 616 863 607 q 835 625 847 625 q 813 616 821 625 q 801 594 804 607 q 797 568 797 582 q 796 546 796 554 m 208 1085 q 210 1063 208 1076 q 215 1038 211 1050 q 227 1016 219 1025 q 247 1007 235 1007 q 267 1016 260 1007 q 278 1038 275 1025 q 281 1063 281 1050 q 282 1085 282 1076 q 281 1107 282 1093 q 278 1133 281 1121 q 267 1155 275 1146 q 247 1164 260 1164 q 225 1155 233 1164 q 213 1133 217 1146 q 209 1107 210 1121 q 208 1085 208 1093 z "},"‰":{"ha":1547,"x_min":38,"x_max":1551,"o":"m 625 275 q 632 362 625 319 q 648 447 639 404 q 664 533 657 490 q 671 619 671 575 q 667 664 671 644 q 658 706 664 683 q 605 626 632 668 q 550 538 578 585 q 413 249 456 382 q 354 -3 369 115 q 326 -5 346 -3 q 281 -9 307 -7 q 224 -12 254 -11 q 167 -14 194 -14 q 97 40 97 -14 q 117 117 97 71 q 178 232 138 163 q 278 382 221 304 q 396 542 336 460 l 151 542 q 88 599 111 565 q 54 669 65 632 q 40 745 43 707 q 38 814 38 783 q 44 901 38 858 q 60 986 51 943 q 76 1072 69 1029 q 83 1158 83 1114 q 77 1219 83 1194 q 61 1283 71 1244 q 101 1284 74 1283 q 157 1285 128 1285 q 212 1287 186 1286 q 247 1288 238 1288 q 352 1260 313 1288 q 413 1189 392 1232 q 440 1093 433 1146 q 447 990 447 1040 q 440 883 447 935 q 432 768 432 831 q 437 694 432 731 q 456 624 442 658 q 506 696 482 660 q 551 768 529 732 q 649 937 610 865 q 715 1065 689 1008 q 754 1170 740 1122 q 774 1269 768 1218 q 791 1274 779 1269 q 822 1283 803 1278 q 871 1292 842 1288 q 939 1296 900 1296 q 1011 1251 1011 1296 q 996 1195 1011 1229 q 953 1114 981 1161 q 897 1028 926 1071 q 833 942 867 986 q 763 851 800 899 q 686 746 726 803 q 728 747 706 746 q 772 748 751 747 q 810 749 793 749 q 835 749 826 749 q 940 721 900 749 q 1000 650 979 693 q 1028 554 1021 607 q 1035 451 1035 501 q 1027 344 1035 396 q 1019 229 1019 292 q 1035 111 1019 168 q 1090 3 1050 54 l 739 3 q 676 60 699 26 q 642 131 653 93 q 628 206 631 168 q 625 275 625 244 m 1086 272 q 1093 359 1086 317 q 1109 444 1100 401 q 1125 530 1118 488 q 1132 617 1132 572 q 1126 678 1132 653 q 1110 742 1119 703 q 1149 742 1122 742 q 1206 744 1176 743 q 1260 745 1235 744 q 1296 746 1286 746 q 1401 718 1361 746 q 1461 647 1440 690 q 1489 551 1482 604 q 1496 449 1496 499 q 1488 341 1496 393 q 1481 226 1481 289 q 1496 108 1481 165 q 1551 0 1511 51 l 1200 0 q 1137 57 1160 24 q 1103 128 1114 90 q 1089 203 1092 165 q 1086 272 1086 242 m 208 1085 q 210 1063 208 1076 q 215 1038 211 1050 q 227 1016 219 1025 q 247 1007 235 1007 q 267 1016 260 1007 q 278 1038 275 1025 q 281 1063 281 1050 q 282 1085 282 1076 q 281 1107 282 1093 q 278 1133 281 1121 q 267 1155 275 1146 q 247 1164 260 1164 q 225 1155 233 1164 q 213 1133 217 1146 q 209 1107 210 1121 q 208 1085 208 1093 m 796 546 q 797 524 796 538 q 803 499 799 511 q 815 477 807 486 q 835 468 822 468 q 855 477 847 468 q 865 499 863 486 q 869 524 868 511 q 869 546 869 538 q 869 568 869 554 q 865 594 868 582 q 855 616 863 607 q 835 625 847 625 q 813 616 821 625 q 801 594 804 607 q 797 568 797 582 q 796 546 796 554 m 1257 543 q 1258 522 1257 535 q 1264 496 1260 508 q 1276 474 1268 483 q 1296 465 1283 465 q 1316 474 1308 465 q 1326 496 1324 483 q 1330 522 1329 508 q 1331 543 1331 535 q 1330 565 1331 551 q 1326 592 1329 579 q 1316 613 1324 604 q 1296 622 1308 622 q 1274 613 1282 622 q 1262 592 1265 604 q 1258 565 1258 579 q 1257 543 1257 551 z "},"†":{"ha":651,"x_min":19,"x_max":674,"o":"m 19 899 l 171 899 q 158 1013 167 963 q 132 1106 149 1063 q 90 1188 115 1149 q 28 1269 64 1228 q 56 1274 39 1269 q 103 1283 72 1278 q 181 1292 133 1288 q 301 1296 229 1296 q 413 1285 369 1296 q 483 1253 457 1275 q 519 1197 508 1231 q 529 1115 529 1163 q 516 1008 529 1060 q 485 899 503 957 l 647 899 l 647 756 l 449 756 q 433 656 439 708 q 428 540 428 603 q 447 391 428 463 q 499 253 465 319 q 577 124 532 186 q 674 3 622 61 q 624 1 658 3 q 543 -3 589 -1 q 444 -7 497 -6 q 340 -8 392 -8 q 147 48 208 -8 q 86 236 86 104 q 99 359 86 294 q 128 490 113 424 q 158 624 143 557 q 174 756 172 692 l 19 756 l 19 899 z "},"‡":{"ha":672,"x_min":24,"x_max":678,"o":"m 24 899 l 175 899 q 162 1013 171 963 q 136 1106 153 1063 q 94 1188 119 1149 q 32 1269 68 1228 q 60 1274 43 1269 q 107 1283 76 1278 q 185 1292 138 1288 q 306 1296 233 1296 q 417 1285 374 1296 q 487 1253 461 1275 q 523 1197 513 1231 q 533 1115 533 1163 q 520 1008 533 1060 q 489 899 507 957 l 651 899 l 651 756 l 453 756 q 443 700 447 728 q 436 640 439 672 l 653 640 l 653 497 l 433 497 q 460 360 439 426 q 513 233 481 294 q 588 115 546 172 q 678 3 631 57 q 628 1 663 3 q 547 -3 593 -1 q 449 -7 501 -6 q 344 -8 396 -8 q 151 48 213 -8 q 90 236 90 104 q 104 363 90 297 q 133 497 118 428 l 25 497 l 25 640 l 165 640 q 178 756 175 699 l 24 756 l 24 899 z "},"Ñ":{"ha":1025,"x_min":-19,"x_max":1033,"o":"m 42 233 q 58 381 42 318 q 94 503 75 443 q 131 628 114 563 q 147 783 147 694 q 138 892 147 832 q 109 1016 129 951 q 57 1146 89 1081 q -19 1271 25 1211 q 82 1286 25 1279 q 190 1293 139 1293 q 348 1242 282 1293 q 460 1115 414 1192 q 535 949 506 1039 q 585 783 565 860 q 619 656 606 707 q 646 606 632 606 q 676 628 667 606 q 686 689 686 650 q 676 808 686 739 q 642 956 667 878 q 573 1115 617 1033 q 461 1268 529 1196 q 587 1288 528 1279 q 704 1296 646 1296 q 799 1288 757 1296 q 870 1260 840 1281 q 916 1203 900 1239 q 932 1108 932 1167 q 926 1011 932 1057 q 914 915 921 965 q 901 803 907 865 q 896 657 896 742 q 901 485 896 569 q 922 317 907 400 q 965 156 938 235 q 1033 0 992 76 l 794 0 q 695 27 742 0 q 610 98 649 54 q 541 198 571 142 q 490 311 511 254 q 458 422 469 368 q 447 517 447 476 q 449 624 447 574 q 451 717 451 674 q 448 760 451 733 q 435 811 444 786 q 408 853 425 836 q 361 871 390 871 q 332 847 339 871 q 325 790 325 822 q 340 599 325 701 q 383 392 354 496 q 451 187 411 288 q 543 0 492 86 q 472 -2 506 0 q 406 -6 439 -4 q 337 -10 372 -8 q 260 -11 301 -11 q 92 52 142 -11 q 42 233 42 115 m 719 1565 q 710 1460 719 1504 q 684 1387 700 1415 q 647 1344 668 1358 q 604 1331 626 1331 q 565 1337 585 1331 q 522 1351 544 1343 q 474 1366 499 1360 q 421 1372 449 1372 q 340 1365 382 1372 q 265 1335 297 1357 q 261 1362 263 1349 q 260 1389 260 1375 q 269 1464 260 1428 q 297 1527 279 1500 q 339 1570 315 1554 q 389 1586 363 1586 q 440 1575 413 1586 q 496 1551 467 1564 q 557 1528 525 1539 q 622 1517 589 1517 q 670 1527 643 1517 q 719 1565 697 1538 z "},"è":{"ha":700,"x_min":29,"x_max":692,"o":"m 29 197 q 49 361 29 282 q 93 519 69 440 q 137 681 117 599 q 157 850 157 763 q 151 969 157 917 q 130 1072 144 1022 q 90 1171 115 1121 q 29 1282 65 1221 l 479 1282 q 549 1269 524 1282 q 588 1234 574 1256 q 605 1186 601 1213 q 608 1133 608 1160 q 608 1094 608 1110 q 610 1067 608 1079 q 613 1044 611 1056 q 618 1017 614 1032 l 567 1017 q 501 1035 519 1017 q 474 1076 483 1054 q 451 1115 464 1097 q 400 1133 438 1133 q 357 1114 372 1133 q 342 1065 342 1094 q 353 1030 342 1040 q 383 1015 365 1019 q 420 1008 400 1011 q 458 997 440 1006 q 487 967 475 988 q 499 908 499 947 q 497 892 499 901 q 492 874 496 883 q 461 884 476 878 q 429 890 446 890 q 382 874 401 890 q 363 811 363 858 q 386 768 363 783 q 440 753 410 753 q 503 772 485 753 q 531 812 522 790 q 548 852 540 833 q 578 871 556 871 q 647 836 629 871 q 665 753 665 801 q 658 643 665 700 q 641 528 650 586 q 624 411 632 469 q 617 294 617 353 q 639 135 617 207 q 692 3 661 63 q 624 1 658 1 q 543 0 589 0 q 435 0 497 0 q 283 0 372 0 q 190 10 236 0 q 109 42 144 19 q 51 103 74 65 q 29 197 29 142 m 329 1607 l 443 1360 l 371 1319 l 207 1546 l 329 1607 z "},"é":{"ha":700,"x_min":29,"x_max":692,"o":"m 29 197 q 49 361 29 282 q 93 519 69 440 q 137 681 117 599 q 157 850 157 763 q 151 969 157 917 q 130 1072 144 1022 q 90 1171 115 1121 q 29 1282 65 1221 l 479 1282 q 549 1269 524 1282 q 588 1234 574 1256 q 605 1186 601 1213 q 608 1133 608 1160 q 608 1094 608 1110 q 610 1067 608 1079 q 613 1044 611 1056 q 618 1017 614 1032 l 567 1017 q 501 1035 519 1017 q 474 1076 483 1054 q 451 1115 464 1097 q 400 1133 438 1133 q 357 1114 372 1133 q 342 1065 342 1094 q 353 1030 342 1040 q 383 1015 365 1019 q 420 1008 400 1011 q 458 997 440 1006 q 487 967 475 988 q 499 908 499 947 q 497 892 499 901 q 492 874 496 883 q 461 884 476 878 q 429 890 446 890 q 382 874 401 890 q 363 811 363 858 q 386 768 363 783 q 440 753 410 753 q 503 772 485 753 q 531 812 522 790 q 548 852 540 833 q 578 871 556 871 q 647 836 629 871 q 665 753 665 801 q 658 643 665 700 q 641 528 650 586 q 624 411 632 469 q 617 294 617 353 q 639 135 617 207 q 692 3 661 63 q 624 1 658 1 q 543 0 589 0 q 435 0 497 0 q 283 0 372 0 q 190 10 236 0 q 109 42 144 19 q 51 103 74 65 q 29 197 29 142 m 494 1546 l 331 1319 l 258 1360 l 372 1607 l 494 1546 z "},"ë":{"ha":700,"x_min":29,"x_max":692,"o":"m 29 197 q 49 361 29 282 q 93 519 69 440 q 137 681 117 599 q 157 850 157 763 q 151 969 157 917 q 130 1072 144 1022 q 90 1171 115 1121 q 29 1282 65 1221 l 479 1282 q 549 1269 524 1282 q 588 1234 574 1256 q 605 1186 601 1213 q 608 1133 608 1160 q 608 1094 608 1110 q 610 1067 608 1079 q 613 1044 611 1056 q 618 1017 614 1032 l 567 1017 q 501 1035 519 1017 q 474 1076 483 1054 q 451 1115 464 1097 q 400 1133 438 1133 q 357 1114 372 1133 q 342 1065 342 1094 q 353 1030 342 1040 q 383 1015 365 1019 q 420 1008 400 1011 q 458 997 440 1006 q 487 967 475 988 q 499 908 499 947 q 497 892 499 901 q 492 874 496 883 q 461 884 476 878 q 429 890 446 890 q 382 874 401 890 q 363 811 363 858 q 386 768 363 783 q 440 753 410 753 q 503 772 485 753 q 531 812 522 790 q 548 852 540 833 q 578 871 556 871 q 647 836 629 871 q 665 753 665 801 q 658 643 665 700 q 641 528 650 586 q 624 411 632 469 q 617 294 617 353 q 639 135 617 207 q 692 3 661 63 q 624 1 658 1 q 543 0 589 0 q 435 0 497 0 q 283 0 372 0 q 190 10 236 0 q 109 42 144 19 q 51 103 74 65 q 29 197 29 142 m 336 1353 q 250 1344 285 1353 q 190 1336 215 1336 q 131 1347 154 1336 q 92 1373 107 1357 q 72 1410 78 1389 q 65 1451 65 1431 q 74 1537 65 1504 q 83 1601 83 1569 q 60 1682 83 1636 q 192 1669 143 1682 q 265 1634 240 1656 q 297 1584 290 1613 q 304 1524 304 1556 q 301 1469 304 1496 q 297 1419 297 1442 q 309 1379 297 1399 q 336 1353 321 1360 m 639 1353 q 553 1344 588 1353 q 492 1336 518 1336 q 432 1347 456 1336 q 394 1373 408 1357 q 374 1410 379 1389 q 368 1451 368 1431 q 376 1537 368 1504 q 385 1601 385 1569 q 380 1640 385 1621 q 363 1682 375 1658 q 494 1669 446 1682 q 568 1634 543 1656 q 600 1584 593 1613 q 607 1524 607 1556 q 603 1469 607 1496 q 600 1419 600 1442 q 612 1379 600 1399 q 639 1353 624 1360 z "},"ê":{"ha":700,"x_min":29,"x_max":692,"o":"m 29 197 q 49 361 29 282 q 93 519 69 440 q 137 681 117 599 q 157 850 157 763 q 151 969 157 917 q 130 1072 144 1022 q 90 1171 115 1121 q 29 1282 65 1221 l 479 1282 q 549 1269 524 1282 q 588 1234 574 1256 q 605 1186 601 1213 q 608 1133 608 1160 q 608 1094 608 1110 q 610 1067 608 1079 q 613 1044 611 1056 q 618 1017 614 1032 l 567 1017 q 501 1035 519 1017 q 474 1076 483 1054 q 451 1115 464 1097 q 400 1133 438 1133 q 357 1114 372 1133 q 342 1065 342 1094 q 353 1030 342 1040 q 383 1015 365 1019 q 420 1008 400 1011 q 458 997 440 1006 q 487 967 475 988 q 499 908 499 947 q 497 892 499 901 q 492 874 496 883 q 461 884 476 878 q 429 890 446 890 q 382 874 401 890 q 363 811 363 858 q 386 768 363 783 q 440 753 410 753 q 503 772 485 753 q 531 812 522 790 q 548 852 540 833 q 578 871 556 871 q 647 836 629 871 q 665 753 665 801 q 658 643 665 700 q 641 528 650 586 q 624 411 632 469 q 617 294 617 353 q 639 135 617 207 q 692 3 661 63 q 624 1 658 1 q 543 0 589 0 q 435 0 497 0 q 283 0 372 0 q 190 10 236 0 q 109 42 144 19 q 51 103 74 65 q 29 197 29 142 m 442 1322 l 331 1457 l 257 1314 l 115 1319 l 328 1615 l 585 1322 l 442 1322 z "},"ö":{"ha":828,"x_min":39,"x_max":842,"o":"m 39 469 q 51 621 39 547 q 78 768 64 694 q 106 915 93 842 q 118 1065 118 989 q 115 1121 118 1096 q 107 1170 113 1146 q 94 1220 101 1194 q 79 1279 88 1246 q 148 1282 101 1281 q 245 1285 194 1283 q 340 1287 296 1286 q 401 1288 385 1288 q 582 1240 514 1288 q 686 1117 650 1192 q 734 951 722 1042 q 746 774 746 860 q 742 681 746 726 q 733 588 738 635 q 724 493 728 542 q 719 392 719 444 q 745 188 719 288 q 842 0 771 89 l 235 0 q 126 99 165 40 q 67 222 86 157 q 43 351 47 286 q 39 469 39 415 m 333 938 q 336 901 333 924 q 346 856 339 878 q 366 819 353 835 q 401 803 379 803 q 435 819 424 803 q 453 856 447 835 q 459 901 458 878 q 460 938 460 924 q 459 976 460 953 q 453 1022 458 1000 q 435 1059 447 1043 q 401 1075 424 1075 q 363 1059 376 1075 q 342 1022 349 1043 q 335 976 336 1000 q 333 938 333 953 m 358 1353 q 272 1344 307 1353 q 213 1336 238 1336 q 153 1347 176 1336 q 115 1373 129 1357 q 94 1410 100 1389 q 88 1451 88 1431 q 97 1537 88 1504 q 106 1601 106 1569 q 82 1682 106 1636 q 214 1669 165 1682 q 288 1634 263 1656 q 319 1584 313 1613 q 326 1524 326 1556 q 323 1469 326 1496 q 319 1419 319 1442 q 331 1379 319 1399 q 358 1353 343 1360 m 661 1353 q 575 1344 610 1353 q 514 1336 540 1336 q 454 1347 478 1336 q 416 1373 431 1357 q 396 1410 401 1389 q 390 1451 390 1431 q 399 1537 390 1504 q 407 1601 407 1569 q 402 1640 407 1621 q 385 1682 397 1658 q 517 1669 468 1682 q 590 1634 565 1656 q 622 1584 615 1613 q 629 1524 629 1556 q 626 1469 629 1496 q 622 1419 622 1442 q 634 1379 622 1399 q 661 1353 646 1360 z "},"õ":{"ha":828,"x_min":39,"x_max":842,"o":"m 39 469 q 51 621 39 547 q 78 768 64 694 q 106 915 93 842 q 118 1065 118 989 q 115 1121 118 1096 q 107 1170 113 1146 q 94 1220 101 1194 q 79 1279 88 1246 q 148 1282 101 1281 q 245 1285 194 1283 q 340 1287 296 1286 q 401 1288 385 1288 q 582 1240 514 1288 q 686 1117 650 1192 q 734 951 722 1042 q 746 774 746 860 q 742 681 746 726 q 733 588 738 635 q 724 493 728 542 q 719 392 719 444 q 745 188 719 288 q 842 0 771 89 l 235 0 q 126 99 165 40 q 67 222 86 157 q 43 351 47 286 q 39 469 39 415 m 333 938 q 336 901 333 924 q 346 856 339 878 q 366 819 353 835 q 401 803 379 803 q 435 819 424 803 q 453 856 447 835 q 459 901 458 878 q 460 938 460 924 q 459 976 460 953 q 453 1022 458 1000 q 435 1059 447 1043 q 401 1075 424 1075 q 363 1059 376 1075 q 342 1022 349 1043 q 335 976 336 1000 q 333 938 333 953 m 615 1565 q 606 1460 615 1504 q 580 1387 596 1415 q 543 1344 564 1358 q 500 1331 522 1331 q 460 1337 481 1331 q 417 1351 440 1343 q 369 1366 394 1360 q 317 1372 344 1372 q 235 1365 278 1372 q 161 1335 193 1357 q 157 1362 158 1349 q 156 1389 156 1375 q 165 1464 156 1428 q 193 1527 175 1500 q 235 1570 211 1554 q 285 1586 258 1586 q 335 1575 308 1586 q 392 1551 363 1564 q 453 1528 421 1539 q 518 1517 485 1517 q 566 1527 539 1517 q 615 1565 593 1538 z "},"ò":{"ha":828,"x_min":39,"x_max":842,"o":"m 39 469 q 51 621 39 547 q 78 768 64 694 q 106 915 93 842 q 118 1065 118 989 q 115 1121 118 1096 q 107 1170 113 1146 q 94 1220 101 1194 q 79 1279 88 1246 q 148 1282 101 1281 q 245 1285 194 1283 q 340 1287 296 1286 q 401 1288 385 1288 q 582 1240 514 1288 q 686 1117 650 1192 q 734 951 722 1042 q 746 774 746 860 q 742 681 746 726 q 733 588 738 635 q 724 493 728 542 q 719 392 719 444 q 745 188 719 288 q 842 0 771 89 l 235 0 q 126 99 165 40 q 67 222 86 157 q 43 351 47 286 q 39 469 39 415 m 333 938 q 336 901 333 924 q 346 856 339 878 q 366 819 353 835 q 401 803 379 803 q 435 819 424 803 q 453 856 447 835 q 459 901 458 878 q 460 938 460 924 q 459 976 460 953 q 453 1022 458 1000 q 435 1059 447 1043 q 401 1075 424 1075 q 363 1059 376 1075 q 342 1022 349 1043 q 335 976 336 1000 q 333 938 333 953 m 344 1613 l 458 1365 l 386 1325 l 222 1551 l 344 1613 z "},"ó":{"ha":828,"x_min":39,"x_max":842,"o":"m 39 469 q 51 621 39 547 q 78 768 64 694 q 106 915 93 842 q 118 1065 118 989 q 115 1121 118 1096 q 107 1170 113 1146 q 94 1220 101 1194 q 79 1279 88 1246 q 148 1282 101 1281 q 245 1285 194 1283 q 340 1287 296 1286 q 401 1288 385 1288 q 582 1240 514 1288 q 686 1117 650 1192 q 734 951 722 1042 q 746 774 746 860 q 742 681 746 726 q 733 588 738 635 q 724 493 728 542 q 719 392 719 444 q 745 188 719 288 q 842 0 771 89 l 235 0 q 126 99 165 40 q 67 222 86 157 q 43 351 47 286 q 39 469 39 415 m 333 938 q 336 901 333 924 q 346 856 339 878 q 366 819 353 835 q 401 803 379 803 q 435 819 424 803 q 453 856 447 835 q 459 901 458 878 q 460 938 460 924 q 459 976 460 953 q 453 1022 458 1000 q 435 1059 447 1043 q 401 1075 424 1075 q 363 1059 376 1075 q 342 1022 349 1043 q 335 976 336 1000 q 333 938 333 953 m 532 1546 l 368 1319 l 296 1360 l 410 1607 l 532 1546 z "},"ô":{"ha":828,"x_min":39,"x_max":842,"o":"m 39 469 q 51 621 39 547 q 78 768 64 694 q 106 915 93 842 q 118 1065 118 989 q 115 1121 118 1096 q 107 1170 113 1146 q 94 1220 101 1194 q 79 1279 88 1246 q 148 1282 101 1281 q 245 1285 194 1283 q 340 1287 296 1286 q 401 1288 385 1288 q 582 1240 514 1288 q 686 1117 650 1192 q 734 951 722 1042 q 746 774 746 860 q 742 681 746 726 q 733 588 738 635 q 724 493 728 542 q 719 392 719 444 q 745 188 719 288 q 842 0 771 89 l 235 0 q 126 99 165 40 q 67 222 86 157 q 43 351 47 286 q 39 469 39 415 m 333 938 q 336 901 333 924 q 346 856 339 878 q 366 819 353 835 q 401 803 379 803 q 435 819 424 803 q 453 856 447 835 q 459 901 458 878 q 460 938 460 924 q 459 976 460 953 q 453 1022 458 1000 q 435 1059 447 1043 q 401 1075 424 1075 q 363 1059 376 1075 q 342 1022 349 1043 q 335 976 336 1000 q 333 938 333 953 m 490 1322 l 379 1457 l 306 1314 l 164 1319 l 376 1615 l 633 1322 l 490 1322 z "},"È":{"ha":700,"x_min":29,"x_max":692,"o":"m 29 197 q 49 361 29 282 q 93 519 69 440 q 137 681 117 599 q 157 850 157 763 q 151 969 157 917 q 130 1072 144 1022 q 90 1171 115 1121 q 29 1282 65 1221 l 479 1282 q 549 1269 524 1282 q 588 1234 574 1256 q 605 1186 601 1213 q 608 1133 608 1160 q 608 1094 608 1110 q 610 1067 608 1079 q 613 1044 611 1056 q 618 1017 614 1032 l 567 1017 q 501 1035 519 1017 q 474 1076 483 1054 q 451 1115 464 1097 q 400 1133 438 1133 q 357 1114 372 1133 q 342 1065 342 1094 q 353 1030 342 1040 q 383 1015 365 1019 q 420 1008 400 1011 q 458 997 440 1006 q 487 967 475 988 q 499 908 499 947 q 497 892 499 901 q 492 874 496 883 q 461 884 476 878 q 429 890 446 890 q 382 874 401 890 q 363 811 363 858 q 386 768 363 783 q 440 753 410 753 q 503 772 485 753 q 531 812 522 790 q 548 852 540 833 q 578 871 556 871 q 647 836 629 871 q 665 753 665 801 q 658 643 665 700 q 641 528 650 586 q 624 411 632 469 q 617 294 617 353 q 639 135 617 207 q 692 3 661 63 q 624 1 658 1 q 543 0 589 0 q 435 0 497 0 q 283 0 372 0 q 190 10 236 0 q 109 42 144 19 q 51 103 74 65 q 29 197 29 142 m 329 1607 l 443 1360 l 371 1319 l 207 1546 l 329 1607 z "},"É":{"ha":700,"x_min":29,"x_max":692,"o":"m 29 197 q 49 361 29 282 q 93 519 69 440 q 137 681 117 599 q 157 850 157 763 q 151 969 157 917 q 130 1072 144 1022 q 90 1171 115 1121 q 29 1282 65 1221 l 479 1282 q 549 1269 524 1282 q 588 1234 574 1256 q 605 1186 601 1213 q 608 1133 608 1160 q 608 1094 608 1110 q 610 1067 608 1079 q 613 1044 611 1056 q 618 1017 614 1032 l 567 1017 q 501 1035 519 1017 q 474 1076 483 1054 q 451 1115 464 1097 q 400 1133 438 1133 q 357 1114 372 1133 q 342 1065 342 1094 q 353 1030 342 1040 q 383 1015 365 1019 q 420 1008 400 1011 q 458 997 440 1006 q 487 967 475 988 q 499 908 499 947 q 497 892 499 901 q 492 874 496 883 q 461 884 476 878 q 429 890 446 890 q 382 874 401 890 q 363 811 363 858 q 386 768 363 783 q 440 753 410 753 q 503 772 485 753 q 531 812 522 790 q 548 852 540 833 q 578 871 556 871 q 647 836 629 871 q 665 753 665 801 q 658 643 665 700 q 641 528 650 586 q 624 411 632 469 q 617 294 617 353 q 639 135 617 207 q 692 3 661 63 q 624 1 658 1 q 543 0 589 0 q 435 0 497 0 q 283 0 372 0 q 190 10 236 0 q 109 42 144 19 q 51 103 74 65 q 29 197 29 142 m 494 1546 l 331 1319 l 258 1360 l 372 1607 l 494 1546 z "},"Ê":{"ha":700,"x_min":29,"x_max":692,"o":"m 29 197 q 49 361 29 282 q 93 519 69 440 q 137 681 117 599 q 157 850 157 763 q 151 969 157 917 q 130 1072 144 1022 q 90 1171 115 1121 q 29 1282 65 1221 l 479 1282 q 549 1269 524 1282 q 588 1234 574 1256 q 605 1186 601 1213 q 608 1133 608 1160 q 608 1094 608 1110 q 610 1067 608 1079 q 613 1044 611 1056 q 618 1017 614 1032 l 567 1017 q 501 1035 519 1017 q 474 1076 483 1054 q 451 1115 464 1097 q 400 1133 438 1133 q 357 1114 372 1133 q 342 1065 342 1094 q 353 1030 342 1040 q 383 1015 365 1019 q 420 1008 400 1011 q 458 997 440 1006 q 487 967 475 988 q 499 908 499 947 q 497 892 499 901 q 492 874 496 883 q 461 884 476 878 q 429 890 446 890 q 382 874 401 890 q 363 811 363 858 q 386 768 363 783 q 440 753 410 753 q 503 772 485 753 q 531 812 522 790 q 548 852 540 833 q 578 871 556 871 q 647 836 629 871 q 665 753 665 801 q 658 643 665 700 q 641 528 650 586 q 624 411 632 469 q 617 294 617 353 q 639 135 617 207 q 692 3 661 63 q 624 1 658 1 q 543 0 589 0 q 435 0 497 0 q 283 0 372 0 q 190 10 236 0 q 109 42 144 19 q 51 103 74 65 q 29 197 29 142 m 442 1322 l 331 1457 l 257 1314 l 115 1319 l 328 1615 l 585 1322 l 442 1322 z "},"Ë":{"ha":700,"x_min":29,"x_max":692,"o":"m 29 197 q 49 361 29 282 q 93 519 69 440 q 137 681 117 599 q 157 850 157 763 q 151 969 157 917 q 130 1072 144 1022 q 90 1171 115 1121 q 29 1282 65 1221 l 479 1282 q 549 1269 524 1282 q 588 1234 574 1256 q 605 1186 601 1213 q 608 1133 608 1160 q 608 1094 608 1110 q 610 1067 608 1079 q 613 1044 611 1056 q 618 1017 614 1032 l 567 1017 q 501 1035 519 1017 q 474 1076 483 1054 q 451 1115 464 1097 q 400 1133 438 1133 q 357 1114 372 1133 q 342 1065 342 1094 q 353 1030 342 1040 q 383 1015 365 1019 q 420 1008 400 1011 q 458 997 440 1006 q 487 967 475 988 q 499 908 499 947 q 497 892 499 901 q 492 874 496 883 q 461 884 476 878 q 429 890 446 890 q 382 874 401 890 q 363 811 363 858 q 386 768 363 783 q 440 753 410 753 q 503 772 485 753 q 531 812 522 790 q 548 852 540 833 q 578 871 556 871 q 647 836 629 871 q 665 753 665 801 q 658 643 665 700 q 641 528 650 586 q 624 411 632 469 q 617 294 617 353 q 639 135 617 207 q 692 3 661 63 q 624 1 658 1 q 543 0 589 0 q 435 0 497 0 q 283 0 372 0 q 190 10 236 0 q 109 42 144 19 q 51 103 74 65 q 29 197 29 142 m 336 1353 q 250 1344 285 1353 q 190 1336 215 1336 q 131 1347 154 1336 q 92 1373 107 1357 q 72 1410 78 1389 q 65 1451 65 1431 q 74 1537 65 1504 q 83 1601 83 1569 q 60 1682 83 1636 q 192 1669 143 1682 q 265 1634 240 1656 q 297 1584 290 1613 q 304 1524 304 1556 q 301 1469 304 1496 q 297 1419 297 1442 q 309 1379 297 1399 q 336 1353 321 1360 m 639 1353 q 553 1344 588 1353 q 492 1336 518 1336 q 432 1347 456 1336 q 394 1373 408 1357 q 374 1410 379 1389 q 368 1451 368 1431 q 376 1537 368 1504 q 385 1601 385 1569 q 380 1640 385 1621 q 363 1682 375 1658 q 494 1669 446 1682 q 568 1634 543 1656 q 600 1584 593 1613 q 607 1524 607 1556 q 603 1469 607 1496 q 600 1419 600 1442 q 612 1379 600 1399 q 639 1353 624 1360 z "},"Ò":{"ha":828,"x_min":39,"x_max":842,"o":"m 39 469 q 51 621 39 547 q 78 768 64 694 q 106 915 93 842 q 118 1065 118 989 q 115 1121 118 1096 q 107 1170 113 1146 q 94 1220 101 1194 q 79 1279 88 1246 q 148 1282 101 1281 q 245 1285 194 1283 q 340 1287 296 1286 q 401 1288 385 1288 q 582 1240 514 1288 q 686 1117 650 1192 q 734 951 722 1042 q 746 774 746 860 q 742 681 746 726 q 733 588 738 635 q 724 493 728 542 q 719 392 719 444 q 745 188 719 288 q 842 0 771 89 l 235 0 q 126 99 165 40 q 67 222 86 157 q 43 351 47 286 q 39 469 39 415 m 333 938 q 336 901 333 924 q 346 856 339 878 q 366 819 353 835 q 401 803 379 803 q 435 819 424 803 q 453 856 447 835 q 459 901 458 878 q 460 938 460 924 q 459 976 460 953 q 453 1022 458 1000 q 435 1059 447 1043 q 401 1075 424 1075 q 363 1059 376 1075 q 342 1022 349 1043 q 335 976 336 1000 q 333 938 333 953 m 344 1613 l 458 1365 l 386 1325 l 222 1551 l 344 1613 z "},"Ó":{"ha":828,"x_min":39,"x_max":842,"o":"m 39 469 q 51 621 39 547 q 78 768 64 694 q 106 915 93 842 q 118 1065 118 989 q 115 1121 118 1096 q 107 1170 113 1146 q 94 1220 101 1194 q 79 1279 88 1246 q 148 1282 101 1281 q 245 1285 194 1283 q 340 1287 296 1286 q 401 1288 385 1288 q 582 1240 514 1288 q 686 1117 650 1192 q 734 951 722 1042 q 746 774 746 860 q 742 681 746 726 q 733 588 738 635 q 724 493 728 542 q 719 392 719 444 q 745 188 719 288 q 842 0 771 89 l 235 0 q 126 99 165 40 q 67 222 86 157 q 43 351 47 286 q 39 469 39 415 m 333 938 q 336 901 333 924 q 346 856 339 878 q 366 819 353 835 q 401 803 379 803 q 435 819 424 803 q 453 856 447 835 q 459 901 458 878 q 460 938 460 924 q 459 976 460 953 q 453 1022 458 1000 q 435 1059 447 1043 q 401 1075 424 1075 q 363 1059 376 1075 q 342 1022 349 1043 q 335 976 336 1000 q 333 938 333 953 m 532 1546 l 368 1319 l 296 1360 l 410 1607 l 532 1546 z "},"Ô":{"ha":828,"x_min":39,"x_max":842,"o":"m 39 469 q 51 621 39 547 q 78 768 64 694 q 106 915 93 842 q 118 1065 118 989 q 115 1121 118 1096 q 107 1170 113 1146 q 94 1220 101 1194 q 79 1279 88 1246 q 148 1282 101 1281 q 245 1285 194 1283 q 340 1287 296 1286 q 401 1288 385 1288 q 582 1240 514 1288 q 686 1117 650 1192 q 734 951 722 1042 q 746 774 746 860 q 742 681 746 726 q 733 588 738 635 q 724 493 728 542 q 719 392 719 444 q 745 188 719 288 q 842 0 771 89 l 235 0 q 126 99 165 40 q 67 222 86 157 q 43 351 47 286 q 39 469 39 415 m 333 938 q 336 901 333 924 q 346 856 339 878 q 366 819 353 835 q 401 803 379 803 q 435 819 424 803 q 453 856 447 835 q 459 901 458 878 q 460 938 460 924 q 459 976 460 953 q 453 1022 458 1000 q 435 1059 447 1043 q 401 1075 424 1075 q 363 1059 376 1075 q 342 1022 349 1043 q 335 976 336 1000 q 333 938 333 953 m 490 1322 l 379 1457 l 306 1314 l 164 1319 l 376 1615 l 633 1322 l 490 1322 z "},"Õ":{"ha":828,"x_min":39,"x_max":842,"o":"m 39 469 q 51 621 39 547 q 78 768 64 694 q 106 915 93 842 q 118 1065 118 989 q 115 1121 118 1096 q 107 1170 113 1146 q 94 1220 101 1194 q 79 1279 88 1246 q 148 1282 101 1281 q 245 1285 194 1283 q 340 1287 296 1286 q 401 1288 385 1288 q 582 1240 514 1288 q 686 1117 650 1192 q 734 951 722 1042 q 746 774 746 860 q 742 681 746 726 q 733 588 738 635 q 724 493 728 542 q 719 392 719 444 q 745 188 719 288 q 842 0 771 89 l 235 0 q 126 99 165 40 q 67 222 86 157 q 43 351 47 286 q 39 469 39 415 m 333 938 q 336 901 333 924 q 346 856 339 878 q 366 819 353 835 q 401 803 379 803 q 435 819 424 803 q 453 856 447 835 q 459 901 458 878 q 460 938 460 924 q 459 976 460 953 q 453 1022 458 1000 q 435 1059 447 1043 q 401 1075 424 1075 q 363 1059 376 1075 q 342 1022 349 1043 q 335 976 336 1000 q 333 938 333 953 m 615 1565 q 606 1460 615 1504 q 580 1387 596 1415 q 543 1344 564 1358 q 500 1331 522 1331 q 460 1337 481 1331 q 417 1351 440 1343 q 369 1366 394 1360 q 317 1372 344 1372 q 235 1365 278 1372 q 161 1335 193 1357 q 157 1362 158 1349 q 156 1389 156 1375 q 165 1464 156 1428 q 193 1527 175 1500 q 235 1570 211 1554 q 285 1586 258 1586 q 335 1575 308 1586 q 392 1551 363 1564 q 453 1528 421 1539 q 518 1517 485 1517 q 566 1527 539 1517 q 615 1565 593 1538 z "},"Ö":{"ha":828,"x_min":39,"x_max":842,"o":"m 39 469 q 51 621 39 547 q 78 768 64 694 q 106 915 93 842 q 118 1065 118 989 q 115 1121 118 1096 q 107 1170 113 1146 q 94 1220 101 1194 q 79 1279 88 1246 q 148 1282 101 1281 q 245 1285 194 1283 q 340 1287 296 1286 q 401 1288 385 1288 q 582 1240 514 1288 q 686 1117 650 1192 q 734 951 722 1042 q 746 774 746 860 q 742 681 746 726 q 733 588 738 635 q 724 493 728 542 q 719 392 719 444 q 745 188 719 288 q 842 0 771 89 l 235 0 q 126 99 165 40 q 67 222 86 157 q 43 351 47 286 q 39 469 39 415 m 333 938 q 336 901 333 924 q 346 856 339 878 q 366 819 353 835 q 401 803 379 803 q 435 819 424 803 q 453 856 447 835 q 459 901 458 878 q 460 938 460 924 q 459 976 460 953 q 453 1022 458 1000 q 435 1059 447 1043 q 401 1075 424 1075 q 363 1059 376 1075 q 342 1022 349 1043 q 335 976 336 1000 q 333 938 333 953 m 358 1353 q 272 1344 307 1353 q 213 1336 238 1336 q 153 1347 176 1336 q 115 1373 129 1357 q 94 1410 100 1389 q 88 1451 88 1431 q 97 1537 88 1504 q 106 1601 106 1569 q 82 1682 106 1636 q 214 1669 165 1682 q 288 1634 263 1656 q 319 1584 313 1613 q 326 1524 326 1556 q 323 1469 326 1496 q 319 1419 319 1442 q 331 1379 319 1399 q 358 1353 343 1360 m 661 1353 q 575 1344 610 1353 q 514 1336 540 1336 q 454 1347 478 1336 q 416 1373 431 1357 q 396 1410 401 1389 q 390 1451 390 1431 q 399 1537 390 1504 q 407 1601 407 1569 q 402 1640 407 1621 q 385 1682 397 1658 q 517 1669 468 1682 q 590 1634 565 1656 q 622 1584 615 1613 q 629 1524 629 1556 q 626 1469 629 1496 q 622 1419 622 1442 q 634 1379 622 1399 q 661 1353 646 1360 z "},"à":{"ha":986,"x_min":40,"x_max":999,"o":"m 40 218 q 65 406 43 313 q 111 590 86 499 q 156 773 136 682 q 176 957 176 864 q 153 1125 176 1043 q 69 1285 129 1207 q 158 1279 114 1285 q 256 1274 203 1274 q 327 1277 285 1274 q 417 1285 369 1281 q 512 1294 464 1290 q 601 1297 560 1297 q 705 1278 663 1297 q 774 1227 747 1260 q 814 1150 801 1194 q 826 1054 826 1106 q 824 976 826 1010 q 818 899 821 942 q 813 797 815 857 q 810 640 810 736 q 826 431 810 519 q 868 270 842 342 q 928 135 894 199 q 999 0 963 71 l 765 0 q 660 28 707 8 q 579 84 613 49 q 528 172 546 119 q 510 297 510 224 q 520 438 510 374 q 544 553 531 501 q 567 642 557 604 q 578 707 578 681 q 567 757 578 738 q 519 776 557 776 q 450 747 475 776 q 413 672 425 717 q 397 578 400 628 q 393 488 393 528 q 401 356 393 417 q 424 237 408 294 q 465 122 440 179 q 522 0 489 64 l 158 0 q 102 32 125 10 q 66 84 79 54 q 47 149 53 114 q 40 218 40 183 m 461 990 q 501 957 472 965 q 557 949 529 949 l 572 949 q 560 1028 565 990 q 545 1095 556 1067 q 513 1140 535 1124 q 451 1157 492 1157 l 422 1157 q 433 1113 426 1139 q 445 1063 439 1088 q 456 1017 451 1038 q 461 990 461 997 m 413 1607 l 526 1360 l 454 1319 l 290 1546 l 413 1607 z "},"á":{"ha":986,"x_min":40,"x_max":999,"o":"m 40 218 q 65 406 43 313 q 111 590 86 499 q 156 773 136 682 q 176 957 176 864 q 153 1125 176 1043 q 69 1285 129 1207 q 158 1279 114 1285 q 256 1274 203 1274 q 327 1277 285 1274 q 417 1285 369 1281 q 512 1294 464 1290 q 601 1297 560 1297 q 705 1278 663 1297 q 774 1227 747 1260 q 814 1150 801 1194 q 826 1054 826 1106 q 824 976 826 1010 q 818 899 821 942 q 813 797 815 857 q 810 640 810 736 q 826 431 810 519 q 868 270 842 342 q 928 135 894 199 q 999 0 963 71 l 765 0 q 660 28 707 8 q 579 84 613 49 q 528 172 546 119 q 510 297 510 224 q 520 438 510 374 q 544 553 531 501 q 567 642 557 604 q 578 707 578 681 q 567 757 578 738 q 519 776 557 776 q 450 747 475 776 q 413 672 425 717 q 397 578 400 628 q 393 488 393 528 q 401 356 393 417 q 424 237 408 294 q 465 122 440 179 q 522 0 489 64 l 158 0 q 102 32 125 10 q 66 84 79 54 q 47 149 53 114 q 40 218 40 183 m 461 990 q 501 957 472 965 q 557 949 529 949 l 572 949 q 560 1028 565 990 q 545 1095 556 1067 q 513 1140 535 1124 q 451 1157 492 1157 l 422 1157 q 433 1113 426 1139 q 445 1063 439 1088 q 456 1017 451 1038 q 461 990 461 997 m 624 1546 l 460 1319 l 388 1360 l 501 1607 l 624 1546 z "},"ä":{"ha":986,"x_min":40,"x_max":999,"o":"m 40 218 q 65 406 43 313 q 111 590 86 499 q 156 773 136 682 q 176 957 176 864 q 153 1125 176 1043 q 69 1285 129 1207 q 158 1279 114 1285 q 256 1274 203 1274 q 327 1277 285 1274 q 417 1285 369 1281 q 512 1294 464 1290 q 601 1297 560 1297 q 705 1278 663 1297 q 774 1227 747 1260 q 814 1150 801 1194 q 826 1054 826 1106 q 824 976 826 1010 q 818 899 821 942 q 813 797 815 857 q 810 640 810 736 q 826 431 810 519 q 868 270 842 342 q 928 135 894 199 q 999 0 963 71 l 765 0 q 660 28 707 8 q 579 84 613 49 q 528 172 546 119 q 510 297 510 224 q 520 438 510 374 q 544 553 531 501 q 567 642 557 604 q 578 707 578 681 q 567 757 578 738 q 519 776 557 776 q 450 747 475 776 q 413 672 425 717 q 397 578 400 628 q 393 488 393 528 q 401 356 393 417 q 424 237 408 294 q 465 122 440 179 q 522 0 489 64 l 158 0 q 102 32 125 10 q 66 84 79 54 q 47 149 53 114 q 40 218 40 183 m 461 990 q 501 957 472 965 q 557 949 529 949 l 572 949 q 560 1028 565 990 q 545 1095 556 1067 q 513 1140 535 1124 q 451 1157 492 1157 l 422 1157 q 433 1113 426 1139 q 445 1063 439 1088 q 456 1017 451 1038 q 461 990 461 997 m 424 1346 q 338 1338 372 1346 q 278 1329 303 1329 q 218 1340 242 1329 q 180 1366 194 1350 q 159 1403 165 1382 q 153 1444 153 1424 q 162 1530 153 1497 q 171 1594 171 1563 q 147 1675 171 1629 q 279 1662 231 1675 q 353 1627 328 1649 q 385 1577 378 1606 q 392 1517 392 1549 q 388 1462 392 1489 q 385 1413 385 1435 q 397 1372 385 1392 q 424 1346 408 1353 m 726 1346 q 640 1338 675 1346 q 579 1329 606 1329 q 519 1340 543 1329 q 481 1366 496 1350 q 461 1403 467 1382 q 456 1444 456 1424 q 464 1530 456 1497 q 472 1594 472 1563 q 467 1633 472 1614 q 450 1675 463 1651 q 582 1662 533 1675 q 656 1627 631 1649 q 688 1577 681 1606 q 694 1517 694 1549 q 691 1462 694 1489 q 688 1413 688 1435 q 699 1372 688 1392 q 726 1346 711 1353 z "},"â":{"ha":986,"x_min":40,"x_max":999,"o":"m 40 218 q 65 406 43 313 q 111 590 86 499 q 156 773 136 682 q 176 957 176 864 q 153 1125 176 1043 q 69 1285 129 1207 q 158 1279 114 1285 q 256 1274 203 1274 q 327 1277 285 1274 q 417 1285 369 1281 q 512 1294 464 1290 q 601 1297 560 1297 q 705 1278 663 1297 q 774 1227 747 1260 q 814 1150 801 1194 q 826 1054 826 1106 q 824 976 826 1010 q 818 899 821 942 q 813 797 815 857 q 810 640 810 736 q 826 431 810 519 q 868 270 842 342 q 928 135 894 199 q 999 0 963 71 l 765 0 q 660 28 707 8 q 579 84 613 49 q 528 172 546 119 q 510 297 510 224 q 520 438 510 374 q 544 553 531 501 q 567 642 557 604 q 578 707 578 681 q 567 757 578 738 q 519 776 557 776 q 450 747 475 776 q 413 672 425 717 q 397 578 400 628 q 393 488 393 528 q 401 356 393 417 q 424 237 408 294 q 465 122 440 179 q 522 0 489 64 l 158 0 q 102 32 125 10 q 66 84 79 54 q 47 149 53 114 q 40 218 40 183 m 461 990 q 501 957 472 965 q 557 949 529 949 l 572 949 q 560 1028 565 990 q 545 1095 556 1067 q 513 1140 535 1124 q 451 1157 492 1157 l 422 1157 q 433 1113 426 1139 q 445 1063 439 1088 q 456 1017 451 1038 q 461 990 461 997 m 549 1331 l 438 1465 l 364 1322 l 222 1328 l 435 1624 l 692 1331 l 549 1331 z "},"ã":{"ha":986,"x_min":40,"x_max":999,"o":"m 40 218 q 65 406 43 313 q 111 590 86 499 q 156 773 136 682 q 176 957 176 864 q 153 1125 176 1043 q 69 1285 129 1207 q 158 1279 114 1285 q 256 1274 203 1274 q 327 1277 285 1274 q 417 1285 369 1281 q 512 1294 464 1290 q 601 1297 560 1297 q 705 1278 663 1297 q 774 1227 747 1260 q 814 1150 801 1194 q 826 1054 826 1106 q 824 976 826 1010 q 818 899 821 942 q 813 797 815 857 q 810 640 810 736 q 826 431 810 519 q 868 270 842 342 q 928 135 894 199 q 999 0 963 71 l 765 0 q 660 28 707 8 q 579 84 613 49 q 528 172 546 119 q 510 297 510 224 q 520 438 510 374 q 544 553 531 501 q 567 642 557 604 q 578 707 578 681 q 567 757 578 738 q 519 776 557 776 q 450 747 475 776 q 413 672 425 717 q 397 578 400 628 q 393 488 393 528 q 401 356 393 417 q 424 237 408 294 q 465 122 440 179 q 522 0 489 64 l 158 0 q 102 32 125 10 q 66 84 79 54 q 47 149 53 114 q 40 218 40 183 m 461 990 q 501 957 472 965 q 557 949 529 949 l 572 949 q 560 1028 565 990 q 545 1095 556 1067 q 513 1140 535 1124 q 451 1157 492 1157 l 422 1157 q 433 1113 426 1139 q 445 1063 439 1088 q 456 1017 451 1038 q 461 990 461 997 m 692 1565 q 682 1460 692 1504 q 656 1387 672 1415 q 619 1344 640 1358 q 576 1331 599 1331 q 537 1337 557 1331 q 494 1351 517 1343 q 446 1366 471 1360 q 393 1372 421 1372 q 312 1365 354 1372 q 238 1335 269 1357 q 233 1362 235 1349 q 232 1389 232 1375 q 242 1464 232 1428 q 269 1527 251 1500 q 311 1570 288 1554 q 361 1586 335 1586 q 412 1575 385 1586 q 468 1551 439 1564 q 529 1528 497 1539 q 594 1517 561 1517 q 642 1527 615 1517 q 692 1565 669 1538 z "},"À":{"ha":986,"x_min":40,"x_max":999,"o":"m 40 218 q 65 406 43 313 q 111 590 86 499 q 156 773 136 682 q 176 957 176 864 q 153 1125 176 1043 q 69 1285 129 1207 q 158 1279 114 1285 q 256 1274 203 1274 q 327 1277 285 1274 q 417 1285 369 1281 q 512 1294 464 1290 q 601 1297 560 1297 q 705 1278 663 1297 q 774 1227 747 1260 q 814 1150 801 1194 q 826 1054 826 1106 q 824 976 826 1010 q 818 899 821 942 q 813 797 815 857 q 810 640 810 736 q 826 431 810 519 q 868 270 842 342 q 928 135 894 199 q 999 0 963 71 l 765 0 q 660 28 707 8 q 579 84 613 49 q 528 172 546 119 q 510 297 510 224 q 520 438 510 374 q 544 553 531 501 q 567 642 557 604 q 578 707 578 681 q 567 757 578 738 q 519 776 557 776 q 450 747 475 776 q 413 672 425 717 q 397 578 400 628 q 393 488 393 528 q 401 356 393 417 q 424 237 408 294 q 465 122 440 179 q 522 0 489 64 l 158 0 q 102 32 125 10 q 66 84 79 54 q 47 149 53 114 q 40 218 40 183 m 461 990 q 501 957 472 965 q 557 949 529 949 l 572 949 q 560 1028 565 990 q 545 1095 556 1067 q 513 1140 535 1124 q 451 1157 492 1157 l 422 1157 q 433 1113 426 1139 q 445 1063 439 1088 q 456 1017 451 1038 q 461 990 461 997 m 413 1607 l 526 1360 l 454 1319 l 290 1546 l 413 1607 z "},"Á":{"ha":986,"x_min":40,"x_max":999,"o":"m 40 218 q 65 406 43 313 q 111 590 86 499 q 156 773 136 682 q 176 957 176 864 q 153 1125 176 1043 q 69 1285 129 1207 q 158 1279 114 1285 q 256 1274 203 1274 q 327 1277 285 1274 q 417 1285 369 1281 q 512 1294 464 1290 q 601 1297 560 1297 q 705 1278 663 1297 q 774 1227 747 1260 q 814 1150 801 1194 q 826 1054 826 1106 q 824 976 826 1010 q 818 899 821 942 q 813 797 815 857 q 810 640 810 736 q 826 431 810 519 q 868 270 842 342 q 928 135 894 199 q 999 0 963 71 l 765 0 q 660 28 707 8 q 579 84 613 49 q 528 172 546 119 q 510 297 510 224 q 520 438 510 374 q 544 553 531 501 q 567 642 557 604 q 578 707 578 681 q 567 757 578 738 q 519 776 557 776 q 450 747 475 776 q 413 672 425 717 q 397 578 400 628 q 393 488 393 528 q 401 356 393 417 q 424 237 408 294 q 465 122 440 179 q 522 0 489 64 l 158 0 q 102 32 125 10 q 66 84 79 54 q 47 149 53 114 q 40 218 40 183 m 461 990 q 501 957 472 965 q 557 949 529 949 l 572 949 q 560 1028 565 990 q 545 1095 556 1067 q 513 1140 535 1124 q 451 1157 492 1157 l 422 1157 q 433 1113 426 1139 q 445 1063 439 1088 q 456 1017 451 1038 q 461 990 461 997 m 624 1546 l 460 1319 l 388 1360 l 501 1607 l 624 1546 z "},"Â":{"ha":986,"x_min":40,"x_max":999,"o":"m 40 218 q 65 406 43 313 q 111 590 86 499 q 156 773 136 682 q 176 957 176 864 q 153 1125 176 1043 q 69 1285 129 1207 q 158 1279 114 1285 q 256 1274 203 1274 q 327 1277 285 1274 q 417 1285 369 1281 q 512 1294 464 1290 q 601 1297 560 1297 q 705 1278 663 1297 q 774 1227 747 1260 q 814 1150 801 1194 q 826 1054 826 1106 q 824 976 826 1010 q 818 899 821 942 q 813 797 815 857 q 810 640 810 736 q 826 431 810 519 q 868 270 842 342 q 928 135 894 199 q 999 0 963 71 l 765 0 q 660 28 707 8 q 579 84 613 49 q 528 172 546 119 q 510 297 510 224 q 520 438 510 374 q 544 553 531 501 q 567 642 557 604 q 578 707 578 681 q 567 757 578 738 q 519 776 557 776 q 450 747 475 776 q 413 672 425 717 q 397 578 400 628 q 393 488 393 528 q 401 356 393 417 q 424 237 408 294 q 465 122 440 179 q 522 0 489 64 l 158 0 q 102 32 125 10 q 66 84 79 54 q 47 149 53 114 q 40 218 40 183 m 461 990 q 501 957 472 965 q 557 949 529 949 l 572 949 q 560 1028 565 990 q 545 1095 556 1067 q 513 1140 535 1124 q 451 1157 492 1157 l 422 1157 q 433 1113 426 1139 q 445 1063 439 1088 q 456 1017 451 1038 q 461 990 461 997 m 549 1331 l 438 1465 l 364 1322 l 222 1328 l 435 1624 l 692 1331 l 549 1331 z "},"Ã":{"ha":986,"x_min":40,"x_max":999,"o":"m 40 218 q 65 406 43 313 q 111 590 86 499 q 156 773 136 682 q 176 957 176 864 q 153 1125 176 1043 q 69 1285 129 1207 q 158 1279 114 1285 q 256 1274 203 1274 q 327 1277 285 1274 q 417 1285 369 1281 q 512 1294 464 1290 q 601 1297 560 1297 q 705 1278 663 1297 q 774 1227 747 1260 q 814 1150 801 1194 q 826 1054 826 1106 q 824 976 826 1010 q 818 899 821 942 q 813 797 815 857 q 810 640 810 736 q 826 431 810 519 q 868 270 842 342 q 928 135 894 199 q 999 0 963 71 l 765 0 q 660 28 707 8 q 579 84 613 49 q 528 172 546 119 q 510 297 510 224 q 520 438 510 374 q 544 553 531 501 q 567 642 557 604 q 578 707 578 681 q 567 757 578 738 q 519 776 557 776 q 450 747 475 776 q 413 672 425 717 q 397 578 400 628 q 393 488 393 528 q 401 356 393 417 q 424 237 408 294 q 465 122 440 179 q 522 0 489 64 l 158 0 q 102 32 125 10 q 66 84 79 54 q 47 149 53 114 q 40 218 40 183 m 461 990 q 501 957 472 965 q 557 949 529 949 l 572 949 q 560 1028 565 990 q 545 1095 556 1067 q 513 1140 535 1124 q 451 1157 492 1157 l 422 1157 q 433 1113 426 1139 q 445 1063 439 1088 q 456 1017 451 1038 q 461 990 461 997 m 692 1565 q 682 1460 692 1504 q 656 1387 672 1415 q 619 1344 640 1358 q 576 1331 599 1331 q 537 1337 557 1331 q 494 1351 517 1343 q 446 1366 471 1360 q 393 1372 421 1372 q 312 1365 354 1372 q 238 1335 269 1357 q 233 1362 235 1349 q 232 1389 232 1375 q 242 1464 232 1428 q 269 1527 251 1500 q 311 1570 288 1554 q 361 1586 335 1586 q 412 1575 385 1586 q 468 1551 439 1564 q 529 1528 497 1539 q 594 1517 561 1517 q 642 1527 615 1517 q 692 1565 669 1538 z "},"Ä":{"ha":986,"x_min":40,"x_max":999,"o":"m 40 218 q 65 406 43 313 q 111 590 86 499 q 156 773 136 682 q 176 957 176 864 q 153 1125 176 1043 q 69 1285 129 1207 q 158 1279 114 1285 q 256 1274 203 1274 q 327 1277 285 1274 q 417 1285 369 1281 q 512 1294 464 1290 q 601 1297 560 1297 q 705 1278 663 1297 q 774 1227 747 1260 q 814 1150 801 1194 q 826 1054 826 1106 q 824 976 826 1010 q 818 899 821 942 q 813 797 815 857 q 810 640 810 736 q 826 431 810 519 q 868 270 842 342 q 928 135 894 199 q 999 0 963 71 l 765 0 q 660 28 707 8 q 579 84 613 49 q 528 172 546 119 q 510 297 510 224 q 520 438 510 374 q 544 553 531 501 q 567 642 557 604 q 578 707 578 681 q 567 757 578 738 q 519 776 557 776 q 450 747 475 776 q 413 672 425 717 q 397 578 400 628 q 393 488 393 528 q 401 356 393 417 q 424 237 408 294 q 465 122 440 179 q 522 0 489 64 l 158 0 q 102 32 125 10 q 66 84 79 54 q 47 149 53 114 q 40 218 40 183 m 461 990 q 501 957 472 965 q 557 949 529 949 l 572 949 q 560 1028 565 990 q 545 1095 556 1067 q 513 1140 535 1124 q 451 1157 492 1157 l 422 1157 q 433 1113 426 1139 q 445 1063 439 1088 q 456 1017 451 1038 q 461 990 461 997 m 424 1346 q 338 1338 372 1346 q 278 1329 303 1329 q 218 1340 242 1329 q 180 1366 194 1350 q 159 1403 165 1382 q 153 1444 153 1424 q 162 1530 153 1497 q 171 1594 171 1563 q 147 1675 171 1629 q 279 1662 231 1675 q 353 1627 328 1649 q 385 1577 378 1606 q 392 1517 392 1549 q 388 1462 392 1489 q 385 1413 385 1435 q 397 1372 385 1392 q 424 1346 408 1353 m 726 1346 q 640 1338 675 1346 q 579 1329 606 1329 q 519 1340 543 1329 q 481 1366 496 1350 q 461 1403 467 1382 q 456 1444 456 1424 q 464 1530 456 1497 q 472 1594 472 1563 q 467 1633 472 1614 q 450 1675 463 1651 q 582 1662 533 1675 q 656 1627 631 1649 q 688 1577 681 1606 q 694 1517 694 1549 q 691 1462 694 1489 q 688 1413 688 1435 q 699 1372 688 1392 q 726 1346 711 1353 z "},"ì":{"ha":614,"x_min":-10,"x_max":636,"o":"m 636 3 q 586 1 621 3 q 506 -3 551 -1 q 407 -7 460 -6 q 303 -8 354 -8 q 110 48 171 -8 q 49 236 49 104 q 63 363 49 297 q 92 498 76 429 q 122 635 108 567 q 136 771 136 704 q 130 939 136 868 q 108 1066 124 1010 q 63 1170 92 1122 q -10 1269 35 1218 q 18 1274 1 1269 q 65 1283 35 1278 q 144 1292 96 1288 q 264 1296 192 1296 q 376 1285 332 1296 q 445 1253 419 1275 q 481 1197 471 1231 q 492 1115 492 1163 q 476 997 492 1054 q 441 873 460 939 q 406 727 422 807 q 390 540 390 647 q 409 391 390 463 q 461 253 428 319 q 540 124 494 186 q 636 3 585 61 m 213 1614 l 326 1367 l 254 1326 l 90 1553 l 213 1614 z "},"í":{"ha":614,"x_min":-10,"x_max":636,"o":"m 636 3 q 586 1 621 3 q 506 -3 551 -1 q 407 -7 460 -6 q 303 -8 354 -8 q 110 48 171 -8 q 49 236 49 104 q 63 363 49 297 q 92 498 76 429 q 122 635 108 567 q 136 771 136 704 q 130 939 136 868 q 108 1066 124 1010 q 63 1170 92 1122 q -10 1269 35 1218 q 18 1274 1 1269 q 65 1283 35 1278 q 144 1292 96 1288 q 264 1296 192 1296 q 376 1285 332 1296 q 445 1253 419 1275 q 481 1197 471 1231 q 492 1115 492 1163 q 476 997 492 1054 q 441 873 460 939 q 406 727 422 807 q 390 540 390 647 q 409 391 390 463 q 461 253 428 319 q 540 124 494 186 q 636 3 585 61 m 425 1546 l 261 1319 l 189 1360 l 303 1607 l 425 1546 z "},"ï":{"ha":642,"x_min":-10,"x_max":664,"o":"m 664 3 q 614 1 649 3 q 533 -3 579 -1 q 435 -7 488 -6 q 331 -8 382 -8 q 138 48 199 -8 q 76 236 76 104 q 90 363 76 297 q 120 498 104 429 q 150 635 136 567 q 164 771 164 704 q 158 939 164 868 q 135 1066 151 1010 q 91 1170 119 1122 q 18 1269 63 1218 q 46 1274 29 1269 q 93 1283 63 1278 q 172 1292 124 1288 q 292 1296 219 1296 q 403 1285 360 1296 q 473 1253 447 1275 q 509 1197 499 1231 q 519 1115 519 1163 q 503 997 519 1054 q 469 873 488 939 q 434 727 450 807 q 418 540 418 647 q 437 391 418 463 q 489 253 456 319 q 567 124 522 186 q 664 3 613 61 m 267 1351 q 181 1343 215 1351 q 121 1335 146 1335 q 61 1345 85 1335 q 23 1372 38 1356 q 2 1408 8 1388 q -4 1450 -4 1429 q 5 1535 -4 1503 q 14 1600 14 1568 q -10 1681 14 1635 q 122 1667 74 1681 q 196 1633 171 1654 q 228 1583 221 1611 q 235 1522 235 1554 q 231 1467 235 1494 q 228 1418 228 1440 q 240 1378 228 1397 q 267 1351 251 1358 m 569 1351 q 483 1343 518 1351 q 422 1335 449 1335 q 363 1345 386 1335 q 324 1372 339 1356 q 304 1408 310 1388 q 299 1450 299 1429 q 307 1535 299 1503 q 315 1600 315 1568 q 310 1638 315 1619 q 293 1681 306 1657 q 425 1667 376 1681 q 499 1633 474 1654 q 531 1583 524 1611 q 538 1522 538 1554 q 534 1467 538 1494 q 531 1418 531 1440 q 542 1378 531 1397 q 569 1351 554 1358 z "},"î":{"ha":614,"x_min":-10,"x_max":636,"o":"m 636 3 q 586 1 621 3 q 506 -3 551 -1 q 407 -7 460 -6 q 303 -8 354 -8 q 110 48 171 -8 q 49 236 49 104 q 63 363 49 297 q 92 498 76 429 q 122 635 108 567 q 136 771 136 704 q 130 939 136 868 q 108 1066 124 1010 q 63 1170 92 1122 q -10 1269 35 1218 q 18 1274 1 1269 q 65 1283 35 1278 q 144 1292 96 1288 q 264 1296 192 1296 q 376 1285 332 1296 q 445 1253 419 1275 q 481 1197 471 1231 q 492 1115 492 1163 q 476 997 492 1054 q 441 873 460 939 q 406 727 422 807 q 390 540 390 647 q 409 391 390 463 q 461 253 428 319 q 540 124 494 186 q 636 3 585 61 m 351 1332 l 240 1467 l 167 1324 l 25 1329 l 238 1625 l 494 1332 l 351 1332 z "},"ù":{"ha":936,"x_min":-17,"x_max":942,"o":"m -17 1282 q 135 1294 65 1289 q 288 1300 206 1300 q 453 1146 453 1300 q 442 1085 453 1119 q 418 1003 431 1050 q 394 896 406 956 q 383 761 383 836 q 401 702 383 725 q 463 679 418 679 q 510 703 486 679 q 553 765 533 726 q 585 851 572 803 q 597 947 597 899 q 569 1124 597 1043 q 488 1279 540 1204 q 510 1283 496 1279 q 547 1292 524 1288 q 609 1301 571 1297 q 704 1306 647 1306 q 793 1291 758 1306 q 848 1252 828 1276 q 876 1195 868 1228 q 885 1125 885 1163 q 870 1006 885 1064 q 838 883 856 949 q 805 736 819 817 q 790 549 790 656 q 825 260 790 393 q 942 8 860 126 q 879 3 932 8 q 753 -6 826 -1 q 600 -16 681 -11 q 454 -21 519 -21 q 290 -8 364 -21 q 165 38 217 4 q 86 130 114 71 q 58 282 58 189 q 71 394 58 328 q 99 536 83 461 q 126 688 114 611 q 139 832 139 765 q 106 1074 139 963 q -17 1282 72 1186 m 400 1600 l 514 1353 l 442 1313 l 278 1539 l 400 1600 z "},"ú":{"ha":936,"x_min":-17,"x_max":942,"o":"m -17 1282 q 135 1294 65 1289 q 288 1300 206 1300 q 453 1146 453 1300 q 442 1085 453 1119 q 418 1003 431 1050 q 394 896 406 956 q 383 761 383 836 q 401 702 383 725 q 463 679 418 679 q 510 703 486 679 q 553 765 533 726 q 585 851 572 803 q 597 947 597 899 q 569 1124 597 1043 q 488 1279 540 1204 q 510 1283 496 1279 q 547 1292 524 1288 q 609 1301 571 1297 q 704 1306 647 1306 q 793 1291 758 1306 q 848 1252 828 1276 q 876 1195 868 1228 q 885 1125 885 1163 q 870 1006 885 1064 q 838 883 856 949 q 805 736 819 817 q 790 549 790 656 q 825 260 790 393 q 942 8 860 126 q 879 3 932 8 q 753 -6 826 -1 q 600 -16 681 -11 q 454 -21 519 -21 q 290 -8 364 -21 q 165 38 217 4 q 86 130 114 71 q 58 282 58 189 q 71 394 58 328 q 99 536 83 461 q 126 688 114 611 q 139 832 139 765 q 106 1074 139 963 q -17 1282 72 1186 m 631 1544 l 467 1318 l 394 1358 l 508 1606 l 631 1544 z "},"û":{"ha":936,"x_min":-17,"x_max":942,"o":"m -17 1282 q 135 1294 65 1289 q 288 1300 206 1300 q 453 1146 453 1300 q 442 1085 453 1119 q 418 1003 431 1050 q 394 896 406 956 q 383 761 383 836 q 401 702 383 725 q 463 679 418 679 q 510 703 486 679 q 553 765 533 726 q 585 851 572 803 q 597 947 597 899 q 569 1124 597 1043 q 488 1279 540 1204 q 510 1283 496 1279 q 547 1292 524 1288 q 609 1301 571 1297 q 704 1306 647 1306 q 793 1291 758 1306 q 848 1252 828 1276 q 876 1195 868 1228 q 885 1125 885 1163 q 870 1006 885 1064 q 838 883 856 949 q 805 736 819 817 q 790 549 790 656 q 825 260 790 393 q 942 8 860 126 q 879 3 932 8 q 753 -6 826 -1 q 600 -16 681 -11 q 454 -21 519 -21 q 290 -8 364 -21 q 165 38 217 4 q 86 130 114 71 q 58 282 58 189 q 71 394 58 328 q 99 536 83 461 q 126 688 114 611 q 139 832 139 765 q 106 1074 139 963 q -17 1282 72 1186 m 546 1350 l 435 1485 l 361 1342 l 219 1347 l 432 1643 l 689 1350 l 546 1350 z "},"ü":{"ha":936,"x_min":-17,"x_max":942,"o":"m -17 1282 q 135 1294 65 1289 q 288 1300 206 1300 q 453 1146 453 1300 q 442 1085 453 1119 q 418 1003 431 1050 q 394 896 406 956 q 383 761 383 836 q 401 702 383 725 q 463 679 418 679 q 510 703 486 679 q 553 765 533 726 q 585 851 572 803 q 597 947 597 899 q 569 1124 597 1043 q 488 1279 540 1204 q 510 1283 496 1279 q 547 1292 524 1288 q 609 1301 571 1297 q 704 1306 647 1306 q 793 1291 758 1306 q 848 1252 828 1276 q 876 1195 868 1228 q 885 1125 885 1163 q 870 1006 885 1064 q 838 883 856 949 q 805 736 819 817 q 790 549 790 656 q 825 260 790 393 q 942 8 860 126 q 879 3 932 8 q 753 -6 826 -1 q 600 -16 681 -11 q 454 -21 519 -21 q 290 -8 364 -21 q 165 38 217 4 q 86 130 114 71 q 58 282 58 189 q 71 394 58 328 q 99 536 83 461 q 126 688 114 611 q 139 832 139 765 q 106 1074 139 963 q -17 1282 72 1186 m 435 1353 q 349 1344 383 1353 q 289 1336 314 1336 q 229 1347 253 1336 q 191 1373 206 1357 q 170 1410 176 1389 q 164 1451 164 1431 q 173 1537 164 1504 q 182 1601 182 1569 q 158 1682 182 1636 q 290 1669 242 1682 q 364 1634 339 1656 q 396 1584 389 1613 q 403 1524 403 1556 q 399 1469 403 1496 q 396 1419 396 1442 q 408 1379 396 1399 q 435 1353 419 1360 m 738 1353 q 651 1344 686 1353 q 590 1336 617 1336 q 531 1347 554 1336 q 492 1373 507 1357 q 472 1410 478 1389 q 467 1451 467 1431 q 475 1537 467 1504 q 483 1601 483 1569 q 478 1640 483 1621 q 461 1682 474 1658 q 593 1669 544 1682 q 667 1634 642 1656 q 699 1584 692 1613 q 706 1524 706 1556 q 702 1469 706 1496 q 699 1419 699 1442 q 710 1379 699 1399 q 738 1353 722 1360 z "},"Ì":{"ha":614,"x_min":-10,"x_max":636,"o":"m 636 3 q 586 1 621 3 q 506 -3 551 -1 q 407 -7 460 -6 q 303 -8 354 -8 q 110 48 171 -8 q 49 236 49 104 q 63 363 49 297 q 92 498 76 429 q 122 635 108 567 q 136 771 136 704 q 130 939 136 868 q 108 1066 124 1010 q 63 1170 92 1122 q -10 1269 35 1218 q 18 1274 1 1269 q 65 1283 35 1278 q 144 1292 96 1288 q 264 1296 192 1296 q 376 1285 332 1296 q 445 1253 419 1275 q 481 1197 471 1231 q 492 1115 492 1163 q 476 997 492 1054 q 441 873 460 939 q 406 727 422 807 q 390 540 390 647 q 409 391 390 463 q 461 253 428 319 q 540 124 494 186 q 636 3 585 61 m 213 1614 l 326 1367 l 254 1326 l 90 1553 l 213 1614 z "},"Í":{"ha":614,"x_min":-10,"x_max":636,"o":"m 636 3 q 586 1 621 3 q 506 -3 551 -1 q 407 -7 460 -6 q 303 -8 354 -8 q 110 48 171 -8 q 49 236 49 104 q 63 363 49 297 q 92 498 76 429 q 122 635 108 567 q 136 771 136 704 q 130 939 136 868 q 108 1066 124 1010 q 63 1170 92 1122 q -10 1269 35 1218 q 18 1274 1 1269 q 65 1283 35 1278 q 144 1292 96 1288 q 264 1296 192 1296 q 376 1285 332 1296 q 445 1253 419 1275 q 481 1197 471 1231 q 492 1115 492 1163 q 476 997 492 1054 q 441 873 460 939 q 406 727 422 807 q 390 540 390 647 q 409 391 390 463 q 461 253 428 319 q 540 124 494 186 q 636 3 585 61 m 425 1546 l 261 1319 l 189 1360 l 303 1607 l 425 1546 z "},"Î":{"ha":614,"x_min":-10,"x_max":636,"o":"m 636 3 q 586 1 621 3 q 506 -3 551 -1 q 407 -7 460 -6 q 303 -8 354 -8 q 110 48 171 -8 q 49 236 49 104 q 63 363 49 297 q 92 498 76 429 q 122 635 108 567 q 136 771 136 704 q 130 939 136 868 q 108 1066 124 1010 q 63 1170 92 1122 q -10 1269 35 1218 q 18 1274 1 1269 q 65 1283 35 1278 q 144 1292 96 1288 q 264 1296 192 1296 q 376 1285 332 1296 q 445 1253 419 1275 q 481 1197 471 1231 q 492 1115 492 1163 q 476 997 492 1054 q 441 873 460 939 q 406 727 422 807 q 390 540 390 647 q 409 391 390 463 q 461 253 428 319 q 540 124 494 186 q 636 3 585 61 m 351 1332 l 240 1467 l 167 1324 l 25 1329 l 238 1625 l 494 1332 l 351 1332 z "},"Ï":{"ha":642,"x_min":-10,"x_max":664,"o":"m 664 3 q 614 1 649 3 q 533 -3 579 -1 q 435 -7 488 -6 q 331 -8 382 -8 q 138 48 199 -8 q 76 236 76 104 q 90 363 76 297 q 120 498 104 429 q 150 635 136 567 q 164 771 164 704 q 158 939 164 868 q 135 1066 151 1010 q 91 1170 119 1122 q 18 1269 63 1218 q 46 1274 29 1269 q 93 1283 63 1278 q 172 1292 124 1288 q 292 1296 219 1296 q 403 1285 360 1296 q 473 1253 447 1275 q 509 1197 499 1231 q 519 1115 519 1163 q 503 997 519 1054 q 469 873 488 939 q 434 727 450 807 q 418 540 418 647 q 437 391 418 463 q 489 253 456 319 q 567 124 522 186 q 664 3 613 61 m 267 1351 q 181 1343 215 1351 q 121 1335 146 1335 q 61 1345 85 1335 q 23 1372 38 1356 q 2 1408 8 1388 q -4 1450 -4 1429 q 5 1535 -4 1503 q 14 1600 14 1568 q -10 1681 14 1635 q 122 1667 74 1681 q 196 1633 171 1654 q 228 1583 221 1611 q 235 1522 235 1554 q 231 1467 235 1494 q 228 1418 228 1440 q 240 1378 228 1397 q 267 1351 251 1358 m 569 1351 q 483 1343 518 1351 q 422 1335 449 1335 q 363 1345 386 1335 q 324 1372 339 1356 q 304 1408 310 1388 q 299 1450 299 1429 q 307 1535 299 1503 q 315 1600 315 1568 q 310 1638 315 1619 q 293 1681 306 1657 q 425 1667 376 1681 q 499 1633 474 1654 q 531 1583 524 1611 q 538 1522 538 1554 q 534 1467 538 1494 q 531 1418 531 1440 q 542 1378 531 1397 q 569 1351 554 1358 z "},"Ù":{"ha":936,"x_min":-17,"x_max":942,"o":"m -17 1282 q 135 1294 65 1289 q 288 1300 206 1300 q 453 1146 453 1300 q 442 1085 453 1119 q 418 1003 431 1050 q 394 896 406 956 q 383 761 383 836 q 401 702 383 725 q 463 679 418 679 q 510 703 486 679 q 553 765 533 726 q 585 851 572 803 q 597 947 597 899 q 569 1124 597 1043 q 488 1279 540 1204 q 510 1283 496 1279 q 547 1292 524 1288 q 609 1301 571 1297 q 704 1306 647 1306 q 793 1291 758 1306 q 848 1252 828 1276 q 876 1195 868 1228 q 885 1125 885 1163 q 870 1006 885 1064 q 838 883 856 949 q 805 736 819 817 q 790 549 790 656 q 825 260 790 393 q 942 8 860 126 q 879 3 932 8 q 753 -6 826 -1 q 600 -16 681 -11 q 454 -21 519 -21 q 290 -8 364 -21 q 165 38 217 4 q 86 130 114 71 q 58 282 58 189 q 71 394 58 328 q 99 536 83 461 q 126 688 114 611 q 139 832 139 765 q 106 1074 139 963 q -17 1282 72 1186 m 400 1600 l 514 1353 l 442 1313 l 278 1539 l 400 1600 z "},"Ú":{"ha":936,"x_min":-17,"x_max":942,"o":"m -17 1282 q 135 1294 65 1289 q 288 1300 206 1300 q 453 1146 453 1300 q 442 1085 453 1119 q 418 1003 431 1050 q 394 896 406 956 q 383 761 383 836 q 401 702 383 725 q 463 679 418 679 q 510 703 486 679 q 553 765 533 726 q 585 851 572 803 q 597 947 597 899 q 569 1124 597 1043 q 488 1279 540 1204 q 510 1283 496 1279 q 547 1292 524 1288 q 609 1301 571 1297 q 704 1306 647 1306 q 793 1291 758 1306 q 848 1252 828 1276 q 876 1195 868 1228 q 885 1125 885 1163 q 870 1006 885 1064 q 838 883 856 949 q 805 736 819 817 q 790 549 790 656 q 825 260 790 393 q 942 8 860 126 q 879 3 932 8 q 753 -6 826 -1 q 600 -16 681 -11 q 454 -21 519 -21 q 290 -8 364 -21 q 165 38 217 4 q 86 130 114 71 q 58 282 58 189 q 71 394 58 328 q 99 536 83 461 q 126 688 114 611 q 139 832 139 765 q 106 1074 139 963 q -17 1282 72 1186 m 631 1544 l 467 1318 l 394 1358 l 508 1606 l 631 1544 z "},"Û":{"ha":936,"x_min":-17,"x_max":942,"o":"m -17 1282 q 135 1294 65 1289 q 288 1300 206 1300 q 453 1146 453 1300 q 442 1085 453 1119 q 418 1003 431 1050 q 394 896 406 956 q 383 761 383 836 q 401 702 383 725 q 463 679 418 679 q 510 703 486 679 q 553 765 533 726 q 585 851 572 803 q 597 947 597 899 q 569 1124 597 1043 q 488 1279 540 1204 q 510 1283 496 1279 q 547 1292 524 1288 q 609 1301 571 1297 q 704 1306 647 1306 q 793 1291 758 1306 q 848 1252 828 1276 q 876 1195 868 1228 q 885 1125 885 1163 q 870 1006 885 1064 q 838 883 856 949 q 805 736 819 817 q 790 549 790 656 q 825 260 790 393 q 942 8 860 126 q 879 3 932 8 q 753 -6 826 -1 q 600 -16 681 -11 q 454 -21 519 -21 q 290 -8 364 -21 q 165 38 217 4 q 86 130 114 71 q 58 282 58 189 q 71 394 58 328 q 99 536 83 461 q 126 688 114 611 q 139 832 139 765 q 106 1074 139 963 q -17 1282 72 1186 m 546 1350 l 435 1485 l 361 1342 l 219 1347 l 432 1643 l 689 1350 l 546 1350 z "},"Ü":{"ha":936,"x_min":-17,"x_max":942,"o":"m -17 1282 q 135 1294 65 1289 q 288 1300 206 1300 q 453 1146 453 1300 q 442 1085 453 1119 q 418 1003 431 1050 q 394 896 406 956 q 383 761 383 836 q 401 702 383 725 q 463 679 418 679 q 510 703 486 679 q 553 765 533 726 q 585 851 572 803 q 597 947 597 899 q 569 1124 597 1043 q 488 1279 540 1204 q 510 1283 496 1279 q 547 1292 524 1288 q 609 1301 571 1297 q 704 1306 647 1306 q 793 1291 758 1306 q 848 1252 828 1276 q 876 1195 868 1228 q 885 1125 885 1163 q 870 1006 885 1064 q 838 883 856 949 q 805 736 819 817 q 790 549 790 656 q 825 260 790 393 q 942 8 860 126 q 879 3 932 8 q 753 -6 826 -1 q 600 -16 681 -11 q 454 -21 519 -21 q 290 -8 364 -21 q 165 38 217 4 q 86 130 114 71 q 58 282 58 189 q 71 394 58 328 q 99 536 83 461 q 126 688 114 611 q 139 832 139 765 q 106 1074 139 963 q -17 1282 72 1186 m 435 1353 q 349 1344 383 1353 q 289 1336 314 1336 q 229 1347 253 1336 q 191 1373 206 1357 q 170 1410 176 1389 q 164 1451 164 1431 q 173 1537 164 1504 q 182 1601 182 1569 q 158 1682 182 1636 q 290 1669 242 1682 q 364 1634 339 1656 q 396 1584 389 1613 q 403 1524 403 1556 q 399 1469 403 1496 q 396 1419 396 1442 q 408 1379 396 1399 q 435 1353 419 1360 m 738 1353 q 651 1344 686 1353 q 590 1336 617 1336 q 531 1347 554 1336 q 492 1373 507 1357 q 472 1410 478 1389 q 467 1451 467 1431 q 475 1537 467 1504 q 483 1601 483 1569 q 478 1640 483 1621 q 461 1682 474 1658 q 593 1669 544 1682 q 667 1634 642 1656 q 699 1584 692 1613 q 706 1524 706 1556 q 702 1469 706 1496 q 699 1419 699 1442 q 710 1379 699 1399 q 738 1353 722 1360 z "},"¹":{"ha":2492,"x_min":21,"x_max":2485,"o":"m 1078 -118 q 1110 -84 1097 -103 q 1122 -40 1122 -65 q 1114 2 1122 -21 q 1071 33 1106 25 q 1076 -5 1074 17 q 1079 -60 1079 -26 q 1062 -122 1079 -96 q 1018 -165 1044 -149 q 959 -190 992 -182 q 896 -197 926 -197 q 854 -191 875 -197 q 816 -172 833 -185 q 788 -142 799 -160 q 778 -103 778 -125 q 788 -65 778 -79 q 810 -42 797 -50 q 838 -31 824 -33 q 860 -28 851 -28 q 882 -29 875 -28 q 913 10 893 -8 q 961 42 932 29 l 961 46 q 958 68 958 57 q 957 88 957 79 q 918 36 942 57 q 860 15 894 15 q 803 51 825 15 q 781 140 781 88 q 790 197 781 167 q 812 257 800 226 q 833 315 824 288 q 843 361 843 342 q 839 393 843 385 q 828 401 835 401 q 807 394 817 401 q 789 378 797 388 q 776 361 781 369 q 769 349 771 353 q 752 291 769 314 q 708 256 735 268 q 657 67 708 128 q 506 6 606 6 q 453 11 479 6 q 408 31 428 17 q 376 66 389 44 q 364 119 364 88 q 385 186 364 156 q 440 217 406 217 q 474 200 464 217 q 485 165 485 183 q 466 101 485 131 q 413 71 447 71 q 398 74 406 71 q 383 79 390 76 q 407 44 389 58 q 443 29 425 29 q 494 50 472 29 q 531 103 515 71 q 558 176 547 136 q 578 256 569 217 q 515 311 535 274 q 490 304 499 304 q 392 408 392 304 q 406 483 392 446 q 447 549 421 519 q 508 595 472 578 q 583 613 543 613 q 651 606 625 613 q 697 590 678 599 q 729 575 715 582 q 760 568 743 568 q 774 569 767 568 q 788 571 781 569 l 788 564 q 697 522 740 553 q 625 453 653 492 q 597 506 621 486 q 538 526 574 526 q 488 515 511 526 q 446 483 464 503 q 417 439 428 464 q 406 388 406 414 q 486 314 406 314 q 511 319 500 314 q 501 368 501 339 q 522 430 501 407 q 558 453 542 453 q 581 442 574 453 q 589 418 589 432 q 569 360 589 389 q 525 317 549 332 q 548 287 533 299 q 581 268 563 275 q 609 363 592 315 q 663 453 626 410 q 683 473 669 460 q 713 499 696 486 q 748 524 729 513 q 785 536 767 535 l 785 526 q 744 492 760 514 q 719 445 728 471 q 706 390 710 419 q 703 335 703 361 q 707 269 703 306 q 747 301 731 281 q 763 350 763 322 q 757 388 763 369 q 742 415 751 406 l 742 418 q 759 396 753 411 q 768 365 765 381 q 798 402 776 382 q 854 422 819 422 q 891 411 875 422 q 917 382 907 400 q 933 340 928 364 q 938 290 938 315 q 928 247 938 274 q 906 190 918 219 q 885 128 894 160 q 875 72 875 97 q 892 43 875 43 q 924 63 910 43 q 951 114 939 82 q 974 187 964 146 q 992 269 983 228 q 1008 350 1000 311 q 1022 418 1015 389 q 1044 408 1033 413 q 1068 404 1056 404 q 1101 414 1088 404 q 1128 432 1114 424 q 1110 349 1121 397 q 1088 252 1099 301 q 1072 156 1078 203 q 1067 76 1065 110 l 1068 53 q 1114 24 1096 46 q 1132 -35 1132 1 q 1119 -83 1132 -62 q 1090 -118 1107 -104 l 1078 -118 m 2221 25 q 2204 -12 2217 4 q 2174 -41 2192 -29 q 2135 -58 2156 -53 q 2094 -64 2114 -64 q 2001 -47 2046 -64 q 1902 -123 1954 -94 q 1803 -151 1850 -151 q 1729 -113 1758 -151 q 1700 17 1700 -75 q 1690 15 1697 15 q 1641 27 1665 15 q 1598 63 1617 39 q 1567 122 1579 86 q 1556 207 1556 158 q 1575 272 1556 235 q 1626 342 1594 308 q 1697 399 1657 375 q 1779 422 1738 422 q 1828 401 1807 422 q 1849 329 1849 379 q 1831 270 1849 297 q 1788 223 1814 243 q 1731 190 1763 203 q 1671 175 1700 178 q 1658 94 1663 128 q 1654 60 1654 61 q 1665 37 1654 44 q 1690 29 1675 29 q 1700 31 1696 29 l 1700 32 q 1709 85 1700 56 q 1733 140 1718 114 q 1770 184 1749 167 q 1818 201 1792 201 q 1836 190 1831 201 q 1842 167 1842 179 q 1830 119 1842 144 q 1799 73 1818 94 q 1758 36 1781 51 q 1711 18 1735 21 q 1740 -99 1711 -64 q 1811 -135 1768 -135 q 1896 -109 1850 -135 q 1985 -40 1942 -83 q 1905 26 1936 -17 q 1874 129 1874 68 q 1880 171 1874 150 q 1898 210 1886 192 q 1927 242 1910 228 q 1967 260 1944 256 l 1967 254 q 1903 203 1924 242 q 1883 124 1883 165 q 1915 33 1883 72 q 1996 -28 1947 -7 q 2058 54 2029 8 q 2101 151 2086 100 l 1943 200 l 2013 228 l 1919 417 l 1994 394 l 1978 506 l 2050 424 l 2093 486 l 2136 350 l 2194 538 l 2224 489 l 2333 553 l 2333 429 l 2401 429 l 2257 286 l 2400 326 l 2376 253 l 2485 242 l 2381 192 l 2436 147 l 2238 110 l 2250 39 l 2128 138 q 2078 45 2107 89 q 2014 -35 2050 1 q 2088 -47 2050 -47 q 2169 -28 2140 -47 q 2215 25 2199 -10 l 2221 25 m 1021 640 q 999 651 1010 646 q 975 656 989 656 q 944 651 956 656 q 921 639 933 647 q 929 685 924 656 q 941 752 935 715 q 954 828 947 789 q 967 903 961 868 q 976 966 972 939 q 979 1006 979 993 q 976 1022 979 1015 q 967 1029 974 1029 q 938 1006 950 1029 q 915 956 926 983 l 901 956 q 913 988 907 972 q 930 1017 919 1004 q 955 1039 940 1031 q 990 1047 969 1047 q 1048 1024 1029 1047 q 1072 968 1067 1000 q 1090 993 1081 979 q 1111 1019 1100 1007 q 1136 1040 1122 1032 q 1168 1049 1150 1049 q 1206 1035 1190 1049 q 1233 998 1222 1021 q 1250 947 1244 975 q 1256 889 1256 918 q 1244 796 1256 839 q 1221 714 1233 753 q 1197 638 1208 675 q 1186 561 1186 601 q 1196 503 1186 524 q 1220 470 1206 482 q 1252 451 1235 458 q 1285 433 1269 443 q 1314 405 1301 422 q 1332 354 1326 388 q 1375 410 1357 397 q 1414 422 1393 422 q 1460 403 1440 422 q 1492 355 1479 383 q 1512 297 1506 326 q 1518 246 1518 267 q 1513 194 1518 222 q 1496 139 1507 167 q 1515 102 1507 122 q 1522 58 1522 82 q 1514 2 1522 31 q 1489 -50 1506 -26 q 1448 -89 1472 -74 q 1392 -104 1424 -104 q 1352 -92 1368 -104 q 1336 -56 1336 -79 q 1348 -28 1336 -40 q 1375 -17 1360 -17 q 1388 -18 1383 -17 l 1388 -24 q 1361 -32 1375 -24 q 1347 -56 1347 -40 q 1360 -83 1347 -74 q 1388 -93 1372 -93 q 1438 -77 1415 -93 q 1476 -37 1460 -61 q 1502 13 1493 -14 q 1511 64 1511 40 q 1506 97 1511 82 q 1492 126 1500 113 q 1442 49 1472 83 q 1369 15 1411 15 q 1326 38 1338 15 q 1315 89 1315 61 q 1324 135 1315 115 q 1344 167 1332 154 q 1370 188 1357 181 q 1393 197 1383 196 q 1401 251 1397 222 q 1407 308 1404 281 q 1412 356 1410 335 q 1414 390 1414 378 q 1410 399 1414 393 q 1397 404 1406 404 q 1381 398 1392 404 q 1361 378 1371 392 q 1344 344 1351 365 q 1338 294 1338 324 q 1331 241 1338 281 q 1316 151 1325 201 q 1296 44 1307 100 q 1275 -59 1285 -11 q 1258 -140 1265 -107 q 1249 -178 1250 -172 q 1227 -168 1238 -172 q 1203 -164 1217 -164 q 1170 -174 1183 -164 q 1144 -192 1157 -183 q 1156 -130 1147 -175 q 1176 -26 1164 -85 q 1199 100 1188 33 q 1222 224 1211 167 q 1239 325 1232 282 q 1246 381 1246 368 q 1235 429 1246 413 q 1210 459 1225 446 q 1176 486 1194 472 q 1143 524 1158 500 q 1117 588 1128 549 q 1107 692 1107 628 q 1117 767 1107 729 q 1139 845 1126 806 q 1161 924 1151 885 q 1171 1001 1171 964 q 1158 1032 1171 1032 q 1118 1003 1143 1032 q 1074 925 1093 974 q 1064 861 1072 906 q 1047 770 1056 817 q 1031 685 1039 724 q 1021 640 1024 647 m 281 449 q 298 452 288 449 q 317 462 308 456 q 333 477 326 468 q 340 499 340 486 q 339 507 340 504 q 305 498 322 500 q 271 496 288 496 q 238 499 258 496 q 198 508 217 501 q 165 526 179 515 q 151 556 151 538 q 159 576 151 568 q 178 588 167 583 q 203 595 190 593 q 224 597 215 597 q 257 592 239 597 q 292 578 275 588 q 324 557 310 569 q 347 531 339 544 q 392 562 374 542 q 411 611 411 582 q 396 661 411 642 q 349 640 374 647 q 297 632 325 632 q 222 647 257 632 q 162 690 188 661 q 122 758 136 718 q 107 849 107 799 q 125 924 107 876 q 90 967 101 940 q 79 1025 79 993 q 90 1089 79 1057 q 119 1147 100 1121 q 164 1189 138 1172 q 221 1206 190 1206 q 243 1203 229 1206 l 243 1194 q 226 1196 238 1196 q 173 1181 197 1196 q 130 1141 149 1165 q 101 1087 111 1117 q 90 1028 90 1057 q 100 977 90 1000 q 132 939 110 954 q 190 1045 154 989 q 267 1149 226 1101 q 349 1227 308 1196 q 422 1258 390 1258 q 451 1249 440 1258 q 468 1226 463 1240 q 476 1195 474 1211 q 478 1164 478 1179 q 460 1087 478 1125 q 412 1017 442 1049 q 345 959 382 985 q 271 919 308 933 q 270 917 271 918 q 269 914 269 917 q 257 863 264 890 q 244 808 250 835 q 234 756 238 781 q 231 710 231 731 q 240 674 231 688 q 260 655 249 661 q 283 647 272 649 q 294 644 293 644 q 382 675 340 644 q 352 688 368 685 q 321 692 336 692 q 292 688 308 692 q 272 682 275 685 l 272 688 q 294 699 279 694 q 318 703 310 703 q 390 683 360 703 q 444 754 424 711 q 464 842 464 797 q 463 869 464 854 q 456 894 461 883 q 440 913 450 906 q 415 921 431 921 q 370 908 390 921 q 336 877 350 896 q 315 835 322 858 q 307 789 307 811 q 313 757 307 776 q 339 738 319 738 q 363 747 353 738 q 381 771 374 757 q 391 800 388 785 q 394 828 394 815 q 393 838 394 832 q 390 850 392 843 l 401 850 q 404 837 404 843 q 404 828 404 831 q 399 795 404 813 q 385 763 394 778 q 365 737 376 747 q 339 726 353 726 q 305 749 313 726 q 297 793 297 772 q 306 840 297 815 q 328 885 314 864 q 364 919 343 906 q 411 932 385 932 q 470 899 449 932 q 492 821 492 865 q 469 736 492 776 q 407 668 446 696 q 429 608 429 646 q 407 549 429 572 q 353 511 385 525 q 354 504 354 508 q 331 459 354 476 q 283 442 307 442 l 276 442 l 281 449 m 1953 1207 q 1975 1197 1964 1201 q 1999 1193 1986 1193 q 2031 1203 2018 1193 q 2058 1221 2044 1213 q 2047 1162 2056 1204 q 2028 1065 2039 1119 q 2006 948 2018 1010 q 1985 833 1994 886 q 1969 739 1975 779 q 1963 686 1963 699 q 1965 669 1963 676 q 1975 663 1968 663 q 2001 677 1988 663 q 2024 713 2014 692 q 2043 756 2035 733 q 2056 794 2051 779 l 2071 794 q 2062 760 2069 785 q 2041 710 2054 736 q 2009 665 2028 685 q 1964 644 1990 644 q 1910 665 1936 644 q 1875 729 1885 685 q 1849 684 1861 701 q 1826 658 1836 667 q 1806 645 1815 649 q 1785 642 1796 642 q 1740 660 1758 642 q 1708 707 1721 679 q 1690 765 1696 735 q 1685 819 1685 796 q 1704 890 1685 850 q 1751 965 1724 929 q 1812 1024 1779 1000 q 1871 1049 1844 1049 q 1913 1015 1899 1049 q 1926 1084 1919 1051 q 1939 1143 1933 1117 q 1948 1186 1944 1169 q 1953 1207 1951 1203 m 1667 736 q 1656 703 1663 719 q 1641 674 1650 688 q 1619 651 1632 660 q 1586 643 1606 643 q 1535 663 1558 643 q 1503 728 1511 683 q 1454 657 1474 672 q 1413 642 1435 642 q 1367 660 1386 642 q 1336 707 1349 679 q 1318 765 1324 735 q 1313 819 1313 796 q 1332 890 1313 850 q 1379 965 1351 929 q 1440 1024 1407 1000 q 1499 1049 1472 1049 q 1543 1008 1529 1049 l 1553 1044 q 1574 1035 1564 1039 q 1599 1031 1585 1031 q 1631 1040 1618 1031 q 1657 1058 1644 1050 q 1642 979 1653 1033 q 1619 866 1631 925 q 1599 756 1608 807 q 1590 686 1590 704 q 1601 663 1590 663 q 1630 685 1618 663 q 1653 736 1642 708 l 1667 736 m 2450 736 q 2440 703 2446 719 q 2424 674 2433 688 q 2402 651 2415 660 q 2369 643 2389 643 q 2318 663 2342 643 q 2286 728 2294 683 q 2238 657 2257 672 q 2196 642 2218 642 q 2151 660 2169 642 q 2119 707 2132 679 q 2101 765 2107 735 q 2096 819 2096 796 q 2115 890 2096 850 q 2163 965 2135 929 q 2223 1024 2190 1000 q 2282 1049 2256 1049 q 2326 1008 2313 1049 l 2336 1044 q 2358 1035 2347 1039 q 2382 1031 2368 1031 q 2415 1040 2401 1031 q 2440 1058 2428 1050 q 2425 979 2436 1033 q 2403 866 2414 925 q 2383 756 2392 807 q 2374 686 2374 704 q 2385 663 2374 663 q 2413 685 2401 663 q 2436 736 2425 708 l 2450 736 m 875 736 q 865 703 871 719 q 850 674 860 688 q 827 651 840 660 q 794 643 814 643 q 743 663 767 643 q 711 728 719 683 q 685 683 697 700 q 663 657 674 667 q 642 644 653 647 q 621 642 632 642 q 576 660 594 642 q 545 707 557 679 q 528 765 533 735 q 522 819 522 796 q 542 890 522 850 q 589 965 561 929 q 649 1024 617 1000 q 708 1049 682 1049 q 751 1008 738 1049 l 761 1044 q 783 1035 772 1039 q 807 1031 794 1031 q 840 1040 826 1031 q 867 1058 853 1050 q 851 979 863 1033 q 828 866 840 925 q 808 756 817 807 q 799 686 799 704 q 811 663 799 663 q 840 685 828 663 q 863 736 851 708 l 875 736 m 213 297 q 174 260 199 278 q 121 242 149 242 q 59 260 86 242 q 32 310 32 278 q 45 353 32 336 q 78 378 58 369 q 120 391 97 388 q 164 394 143 394 q 283 355 242 394 q 325 249 325 315 q 310 192 325 219 q 274 141 294 164 q 232 101 253 118 q 200 76 211 83 l 225 71 q 288 54 258 64 q 343 28 317 44 q 394 -10 369 13 q 443 -64 418 -32 l 440 -64 l 440 -67 q 425 -62 432 -64 q 411 -61 418 -61 q 376 -73 386 -61 q 367 -100 367 -85 q 381 -135 367 -121 q 414 -159 394 -150 q 455 -172 433 -168 q 492 -176 476 -176 q 538 -166 515 -176 q 574 -140 561 -156 l 568 -140 q 540 -137 557 -140 q 506 -126 522 -133 q 479 -106 490 -118 q 468 -75 468 -93 q 481 -45 468 -54 q 514 -36 494 -36 q 573 -58 546 -36 q 600 -108 600 -79 q 597 -122 600 -114 q 635 -109 617 -118 q 669 -85 654 -100 q 694 -51 685 -71 q 704 -6 704 -32 q 703 20 704 10 q 696 47 701 31 l 701 47 q 708 26 704 42 q 711 -6 711 10 q 676 -94 711 -58 q 592 -137 640 -129 q 548 -174 578 -162 q 492 -186 518 -186 q 449 -181 472 -186 q 405 -166 425 -176 q 371 -140 385 -156 q 357 -100 357 -124 q 369 -65 357 -81 q 403 -50 381 -50 q 412 -50 407 -50 q 424 -53 417 -50 q 307 24 364 0 q 171 47 250 47 q 104 44 139 47 q 21 33 69 40 q 94 57 64 49 q 150 75 124 65 q 210 106 182 86 q 261 151 239 126 q 297 203 283 176 q 310 256 310 231 q 269 349 310 318 q 171 381 229 381 q 131 378 153 381 q 90 369 108 376 q 58 348 71 363 q 46 310 46 333 q 70 274 46 286 q 121 261 94 261 q 169 276 147 261 q 213 310 192 292 l 213 297 m 999 -100 q 985 -35 999 -71 q 964 26 971 0 q 922 5 940 19 q 893 -33 904 -10 q 933 -63 921 -43 q 944 -96 944 -83 q 937 -118 944 -106 q 910 -131 929 -131 q 882 -113 893 -131 q 871 -78 871 -96 q 871 -65 871 -71 q 874 -53 871 -60 q 862 -51 867 -51 q 851 -51 857 -51 q 809 -66 825 -51 q 793 -107 793 -81 q 802 -141 793 -126 q 825 -166 811 -156 q 857 -181 839 -176 q 893 -186 875 -186 q 928 -181 910 -186 q 962 -164 946 -175 q 988 -137 978 -153 q 999 -100 999 -121 m 1460 944 q 1450 893 1457 931 q 1435 813 1443 856 q 1422 731 1428 769 q 1417 675 1417 692 q 1418 665 1417 671 q 1428 660 1419 660 q 1466 689 1447 660 q 1500 785 1485 718 q 1512 865 1503 817 q 1531 957 1521 913 q 1524 1019 1531 1003 q 1506 1035 1517 1035 q 1485 1024 1493 1035 q 1472 999 1476 1014 q 1465 969 1467 985 q 1460 944 1463 954 m 2243 944 q 2233 893 2240 931 q 2219 813 2226 856 q 2206 731 2211 769 q 2200 675 2200 692 q 2201 665 2200 671 q 2211 660 2203 660 q 2249 689 2231 660 q 2283 785 2268 718 q 2295 865 2286 817 q 2314 957 2304 913 q 2307 1019 2314 1003 q 2289 1035 2300 1035 q 2268 1024 2276 1035 q 2255 999 2260 1014 q 2248 969 2250 985 q 2243 944 2246 954 m 669 944 q 660 893 667 931 q 645 813 653 856 q 632 731 638 769 q 626 675 626 692 q 628 665 626 671 q 638 660 629 660 q 674 689 656 660 q 708 785 693 718 q 720 865 711 817 q 740 957 729 913 q 733 1019 740 1003 q 715 1035 725 1035 q 698 1024 706 1035 q 684 998 690 1013 q 674 968 678 983 q 669 944 671 953 m 1832 944 q 1822 893 1829 931 q 1808 813 1815 856 q 1794 731 1800 769 q 1789 675 1789 692 q 1790 665 1789 671 q 1800 660 1792 660 q 1831 675 1818 660 q 1854 726 1843 690 q 1876 822 1865 761 q 1903 971 1888 882 q 1894 1022 1901 1008 q 1878 1035 1886 1035 q 1857 1024 1865 1035 q 1844 999 1849 1014 q 1837 969 1839 985 q 1832 944 1835 954 m 356 1157 q 346 1131 356 1156 q 323 1071 336 1106 q 297 999 310 1036 q 275 936 283 963 q 341 980 310 951 q 395 1044 372 1008 q 432 1122 418 1081 q 446 1206 446 1164 q 442 1230 446 1219 q 422 1240 438 1240 q 393 1224 407 1240 q 356 1157 379 1207 m 2068 674 q 2018 583 2058 613 q 1935 547 1978 554 q 1897 482 1933 511 q 1811 453 1861 453 q 1774 457 1793 453 q 1738 471 1754 461 q 1710 497 1721 481 q 1700 539 1700 514 q 1722 590 1700 565 q 1774 617 1744 615 l 1774 611 q 1733 590 1751 607 q 1714 549 1714 572 q 1722 513 1714 526 q 1745 491 1731 499 q 1778 481 1760 483 q 1814 478 1796 478 q 1851 481 1832 478 q 1885 491 1869 483 q 1913 513 1901 499 q 1925 547 1924 526 q 1915 546 1921 546 q 1861 558 1883 546 q 1839 593 1839 571 q 1850 613 1839 604 q 1871 621 1861 621 q 1910 603 1893 621 q 1933 564 1928 586 q 2015 600 1976 569 q 2065 674 2054 631 l 2068 674 m 1772 408 q 1740 388 1756 408 q 1713 336 1725 368 q 1690 265 1700 304 q 1674 189 1681 226 q 1722 215 1701 193 q 1757 267 1743 238 q 1778 326 1771 296 q 1786 378 1786 357 q 1772 408 1786 408 m 1263 547 q 1318 499 1286 519 q 1394 478 1350 478 q 1427 482 1411 478 q 1454 496 1443 486 q 1403 509 1433 500 q 1344 535 1372 518 q 1296 578 1315 553 q 1276 640 1276 604 q 1278 665 1276 651 q 1290 688 1281 678 l 1296 682 q 1289 644 1289 661 q 1308 588 1289 611 q 1353 549 1326 565 q 1412 526 1381 533 q 1469 515 1443 518 q 1474 539 1474 526 q 1448 593 1474 571 q 1388 615 1422 615 q 1359 612 1374 615 q 1332 601 1344 608 l 1326 603 q 1353 619 1338 614 q 1385 624 1369 624 q 1420 617 1403 624 q 1451 601 1438 611 q 1474 575 1465 590 q 1483 540 1483 560 q 1479 515 1483 526 l 1485 515 q 1531 521 1507 515 q 1575 539 1554 526 q 1610 571 1596 551 q 1631 617 1625 590 l 1644 610 q 1625 565 1640 586 q 1588 528 1610 544 q 1538 503 1565 513 q 1481 493 1510 493 l 1465 493 q 1436 476 1454 482 q 1399 471 1418 471 q 1319 489 1358 471 q 1261 546 1281 507 l 1263 547 m 1710 32 q 1747 46 1726 32 q 1785 81 1767 60 q 1815 126 1803 101 q 1826 171 1826 150 q 1824 184 1826 178 q 1814 190 1822 190 q 1774 174 1793 190 q 1741 135 1756 158 q 1718 84 1726 111 q 1710 35 1710 57 l 1710 32 m 263 513 q 333 525 299 513 q 285 570 318 553 q 224 588 251 588 q 208 586 218 588 q 190 582 199 585 q 174 573 181 579 q 168 556 168 567 q 178 533 168 542 q 202 520 188 525 q 233 514 217 515 q 263 513 250 513 m 982 572 q 967 567 975 569 q 951 564 960 564 q 927 571 938 564 q 917 590 917 578 q 935 616 917 607 q 969 625 954 625 q 1011 613 993 625 q 1029 576 1029 600 q 1010 544 1029 553 q 976 535 992 535 l 894 544 q 860 536 879 544 q 842 507 842 528 q 854 488 842 493 q 878 482 867 482 q 913 489 894 482 q 948 505 931 496 q 981 521 965 514 q 1010 528 997 528 q 1069 503 1046 528 q 1093 439 1093 478 l 1085 440 l 1085 444 q 1056 499 1078 485 q 1019 513 1035 513 q 994 506 1007 513 q 965 492 981 500 q 928 478 949 485 q 881 472 908 472 q 844 483 856 472 q 833 507 833 494 q 856 542 833 532 q 894 551 878 551 l 975 543 q 1005 549 990 543 q 1019 575 1019 556 q 1003 606 1019 596 q 968 617 988 617 q 941 610 954 617 q 928 592 928 604 q 950 574 928 574 q 979 582 967 574 l 982 572 m 1324 81 q 1331 51 1324 68 q 1357 33 1338 33 q 1372 50 1365 33 q 1381 90 1378 67 q 1388 140 1385 114 q 1392 182 1390 165 q 1364 171 1376 181 q 1342 147 1351 161 q 1328 115 1333 132 q 1324 81 1324 97 m 561 -128 q 581 -124 575 -128 q 588 -106 588 -121 q 565 -64 588 -81 q 519 -47 542 -47 q 493 -56 504 -47 q 482 -82 482 -64 q 490 -103 482 -94 q 511 -118 499 -112 q 538 -126 524 -124 q 561 -128 551 -128 m 514 367 q 521 326 514 340 q 561 367 543 342 q 579 415 579 392 q 575 435 579 426 q 558 443 571 443 q 536 435 544 443 q 523 415 528 426 q 516 390 518 403 q 514 367 514 376 m 1924 564 q 1907 597 1919 583 q 1875 610 1894 610 q 1860 606 1867 610 q 1854 592 1854 603 q 1874 569 1854 575 q 1918 564 1894 564 l 1924 564 m 928 -100 q 915 -74 928 -85 q 888 -57 903 -64 q 886 -66 886 -61 q 886 -75 886 -71 q 891 -103 886 -89 q 907 -117 896 -117 q 924 -111 919 -117 q 928 -100 928 -106 z "},"":{"ha":1276,"x_min":60,"x_max":1219,"o":"m 950 188 l 1049 317 l 904 261 l 888 368 l 735 225 l 822 497 l 735 456 l 653 604 l 561 456 l 492 497 l 543 225 l 400 368 l 386 261 l 243 317 l 335 188 l 228 168 l 468 -8 l 400 -89 l 629 -44 l 629 -278 l 60 -278 l 60 692 l 1219 692 l 1219 -278 l 671 -278 l 671 -44 l 888 -89 l 825 -8 l 1049 168 l 950 188 m 642 782 q 627 747 639 757 q 599 736 615 736 l 543 736 l 543 972 l 599 972 q 627 960 615 972 q 642 919 639 947 l 642 782 m 368 736 l 331 888 l 324 906 l 328 886 l 328 736 l 296 736 l 296 972 l 335 972 l 374 810 l 381 790 l 378 811 l 378 972 l 410 972 l 410 736 l 368 736 m 253 736 l 243 785 l 210 785 l 206 736 l 174 736 l 206 972 l 253 972 l 281 736 l 253 736 m 500 736 l 493 785 l 460 785 l 454 736 l 422 736 l 454 972 l 500 972 l 529 736 l 500 736 m 728 736 l 721 785 l 688 785 l 683 736 l 653 736 l 683 972 l 728 972 l 760 736 l 728 736 m 1118 882 q 1106 846 1118 857 q 1075 835 1093 835 l 1050 835 l 1050 736 l 1022 736 l 1022 972 l 1075 972 q 1106 960 1093 972 q 1118 919 1118 947 l 1118 882 m 167 781 q 153 744 167 753 q 117 735 139 735 q 83 744 96 735 q 67 781 69 753 l 67 924 q 83 963 69 951 q 117 974 96 974 q 153 963 139 974 q 167 924 167 951 l 167 886 l 133 886 l 133 919 q 117 943 129 943 q 99 919 103 943 l 99 782 q 117 760 104 760 q 133 782 128 760 l 133 813 l 167 813 l 167 781 m 972 815 l 972 736 l 935 736 l 935 815 l 900 972 l 933 972 l 953 868 l 975 972 l 1010 972 l 972 815 m 1135 736 l 1135 972 l 1210 972 l 1210 938 l 1165 938 l 1165 869 l 1207 869 l 1207 836 l 1165 836 l 1165 765 l 1210 765 l 1210 736 l 1135 736 m 868 938 l 868 736 l 836 736 l 836 938 l 810 938 l 810 972 l 899 972 l 899 938 l 868 938 m 608 918 q 604 934 608 931 q 592 938 600 938 l 575 938 l 575 763 l 592 763 q 604 769 600 763 q 608 788 608 776 l 608 918 m 1085 919 q 1068 942 1085 942 l 1050 942 l 1050 861 l 1068 861 q 1085 885 1085 861 l 1085 919 m 231 922 q 228 938 231 935 l 228 922 l 214 818 l 242 818 l 231 922 m 478 922 q 475 938 478 935 l 475 922 l 465 818 l 492 818 l 478 922 m 706 922 q 704 938 706 935 l 704 922 l 690 818 l 718 818 l 706 922 z "},"µ":{"ha":976,"x_min":13,"x_max":982,"o":"m 24 1282 q 176 1294 106 1289 q 328 1300 246 1300 q 493 1146 493 1300 q 482 1085 493 1119 q 458 1003 471 1050 q 435 896 446 956 q 424 761 424 836 q 441 702 424 725 q 503 679 458 679 q 550 703 526 679 q 593 765 574 726 q 625 851 613 803 q 638 947 638 899 q 609 1124 638 1043 q 528 1279 581 1204 q 550 1283 536 1279 q 588 1292 564 1288 q 649 1301 611 1297 q 744 1306 688 1306 q 833 1291 799 1306 q 888 1252 868 1276 q 917 1195 908 1228 q 925 1125 925 1163 q 910 1006 925 1064 q 878 883 896 949 q 845 736 860 817 q 831 549 831 656 q 865 260 831 393 q 982 8 900 126 q 940 3 969 8 q 867 -9 910 -3 q 774 -21 825 -15 q 668 -26 722 -26 q 567 -20 618 -26 q 472 3 517 -14 q 392 49 428 21 q 332 121 356 78 q 306 19 317 67 q 296 -72 296 -28 q 307 -149 296 -111 q 345 -227 318 -187 q 417 -310 372 -267 q 531 -400 463 -353 q 435 -406 500 -400 q 267 -411 371 -411 q 74 -355 135 -411 q 13 -167 13 -299 q 39 73 13 -46 q 97 315 65 192 q 153 565 128 438 q 179 832 179 693 q 146 1074 179 963 q 24 1282 113 1186 z "},"®":{"ha":793,"x_min":-1,"x_max":771,"o":"m -1 1290 q 98 1292 51 1290 q 189 1295 144 1293 q 277 1299 233 1297 q 368 1300 321 1300 q 487 1286 435 1300 q 575 1249 539 1272 q 631 1194 611 1225 q 650 1131 650 1164 q 642 1090 650 1111 q 615 1048 633 1068 q 567 1010 597 1028 q 493 981 538 993 q 528 881 499 938 q 599 767 558 824 q 684 664 639 711 q 764 596 729 617 l 564 596 q 452 621 492 596 q 393 683 413 646 q 368 764 374 721 q 358 844 363 807 q 347 907 354 882 q 315 932 339 932 q 287 899 299 932 q 275 818 275 867 q 298 700 275 763 q 378 596 321 638 q 330 595 350 596 q 291 593 310 594 q 251 591 272 592 q 197 590 229 590 q 72 625 110 590 q 35 724 35 660 q 47 800 35 765 q 74 874 60 835 q 101 962 89 913 q 113 1082 113 1011 q 90 1193 113 1139 q -1 1290 68 1247 m 442 1168 q 406 1201 442 1189 q 326 1214 371 1214 q 305 1214 315 1214 q 285 1211 294 1214 q 301 1179 296 1194 q 310 1149 307 1164 q 314 1119 313 1135 q 317 1086 315 1104 q 407 1118 372 1096 q 442 1168 442 1140 m 50 504 l 729 504 l 771 361 l 92 361 l 50 504 z "}}}
